<svg version="1.1" xmlns="http://www.w3.org/2000/svg" viewBox="0 0 1500 1500">
  <g transform="translate(250.000000,761.000000) scale(0.100000,-0.100000)">
    <path fill="#8c640c" d="M9712,4822.7c-45.9-241.3-221.4-498.6-454.7-664.1c-151.6-109.7-514.5-285.2-757.9-367c-97.7-31.9-420.8-131.6-718-219.4c-602.3-177.5-947.3-295.2-1226.5-418.8C5190.8,2555.1,4548.6,1538,4464.9-157.2l-14-285.2l-135.6,161.5C4081.9-5.7,3705,285.5,3268.3,526.8C3015,668.4,2707.8,806,2075.6,1067.3c-576.4,237.3-847.6,369-1080.9,522.5c-376.9,249.3-578.4,542.5-614.3,895.5c-16,147.6-19.9,145.6-101.7-59.8C-100.2,1466.2,137.1,58.2,861.1-1026.8c803.7-1206.6,2012.3-1832.8,3354.5-1743.1c369,25.9,353,17.9,337,151.6c-35.9,305.1-237.3,632.2-628.2,1023.1c-287.2,287.2-602.3,536.5-993.2,791.8c-133.6,85.8-257.3,167.5-277.2,181.5c-21.9,14,93.7-41.9,253.3-123.7c909.4-462.7,1615.4-1045,1830.8-1507.7c85.8-183.5,103.7-331.1,81.8-648.2c-53.8-741.9-267.2-1304.3-644.2-1699.2L4056-4726.3h259.3h261.3l81.8,127.7c277.2,424.8,426.8,1102.9,426.8,1946.5c2,604.3-55.8,991.2-213.4,1426C4754-901.1,4706.2-450.4,4738.1-5.7c25.9,341,55.8,442.7,183.5,632.2c283.2,424.8,965.3,871.5,1922.6,1258.4c382.9,153.6,390.9,151.6,49.9-23.9c-735.9-374.9-1278.4-767.8-1575.5-1134.8c-137.6-171.5-277.2-436.8-293.2-562.4c-10-79.8-10-81.8,65.8-101.7c295.2-77.8,440.8-91.7,905.4-91.7c514.5,2,654.1,21.9,1057,151.6c229.3,71.8,694,297.2,891.5,430.8c380.9,257.3,795.7,652.1,1067,1015.1c674.1,907.4,1003.2,2050.2,851.6,2949.7c-27.9,161.5-99.7,428.8-115.7,428.8C9741.9,4946.3,9724,4890.5,9712,4822.7z"/>
  </g>
</svg>
