<svg viewBox="0 0 1710 2700" xmlns="http://www.w3.org/2000/svg"><path d="M713 4c-2 1-3 4-1 6s11 1 11-2c0-2-8-5-10-4m307 89c-3 1-5 4-13 16l-8 12c-9 11-15 23-18 39l-5 11-4 11-2 8-1 7v3l-4-16c-3-15-10-36-12-37-5-3-8 10-8 32 0 16 1 17 2 17 2 0 3-1 3-8 1-11 4-20 6-17 1 2 8 26 12 46 3 9 2 12-8 27-5 6-8 12-8 13l2 13 3-8a55 55 0 0 1 11-22c5-8 10-22 18-52 2-7 6-15 8-15l1 5 1 6 1 17a545 545 0 0 0 4 83l-1 24c-1 21-2 28-6 42-3 11-4 14-9 23-8 12-15 31-14 33 1 1 9-3 14-6 5-4 7-7 10-16 3-12 2-12-3-1-4 7-6 11-8 10-1-2 2-11 4-14 9-11 14-31 17-56 1-9 1-9 13-34l6-16c1-5 5-20 8-26a258 258 0 0 0 15-73l3-9a322 322 0 0 1 25-42c4-5 5-5 4-2l1 6c2 6-6 45-13 65a442 442 0 0 0-16 45l-4 8a254 254 0 0 0-9 28l-2-7c0-3 0-3-2-2l-3 14-3 14-1 2-1-2 1-7c1-4 1-6-1-4s-5 12-6 18l-2 11c-3 6-6 19-6 29-1 7-1 10-3 13l-5 17c-3 15-7 25-14 31l-6 6-7 5c-3 3-5 5-7 12-3 7-3 7-4 3-1-6-5 5-5 14 0 3-1 6-4 11l-5 9c-2 4-5 5-6 3-2-2-2-2-3 0-3 5-4-1-2-8l2-15c1-9 1-12 4-15 2-3 2-4 1-8 0-5 1-8 2-4v14c-1 3 2 4 3 2s4-3 4-1c1 3 3-1 4-6 0-5 1-6 2-3 1 2 3 0 3-3 0-2-1-3-3-4-3-1-4-1-5 4-2 6-3 5-3-2-1-6-1-8-3-9l-4-5c-1-3-1-3-3-2-1 3-1 3-3-3v-7l3-14 2-13 4-35a356 356 0 0 0-2-81l2 3c2 0 2-4 2-16 0-16-3-23-7-18v8l2 18-3-12-4-17c-1-5-2-8-1-13 0-6 0-12-2-20l-3-26c-1-8-2-19-4-24l-2-17c0-6-1-11-4-11-5-2-12-2-15-1-6 2-6 3-7 11 0 6 0 9-3 16l-6 12a257 257 0 0 1-8 25l-3 9c-4 9-7 26-8 41v11l-3-1c-2-1-2-1-5 2l-4 7-2 4-3-12c0-3-3-7-5-6-2 0-4 6-4 10l-1 2c-2 0-2-1-4-7l-5-13c-2 0-3 6-2 11v12c-1 7-2 8-6 12-4 5-5 6-9 21l-5 19c-2 5-4 4-6-3l-12-30c-2 0-1 2 1 12 2 8 5 15 11 24 3 6 3 6 2 10l-2 6-3 9-1-5-8-30c-4-12-5-25-3-28 3-2 3-14 1-23l-1-17c-1-11-2-15-5-15l-1 5-2 8c-3 4-4 6-5 19l-2 16-2 13-1 11a197 197 0 0 0 2 62l3 18c0 4 3 15 6 22 2 5 1 8-2 20l-6 27c0 6-1 10-3 12-3 3-3 4-7 16a587 587 0 0 0-19 72 182 182 0 0 0-4 59c0 1-8-10-8-12l-4-9-5-13c-1-5-2-6-8-7-9-3-25-18-33-32l-5-5-4-1-5-3-4-3-11-7c-10-5-14-9-21-17-6-6-11-9-23-11-5-2-11-2-13-2l-12-4c-10-4-17-6-20-5l-5-2-4-3-4-1c-17-8-18-8-23-7s-6 1-9-1c-5-3-14-6-26-7a462 462 0 0 1-39-6c-9-1-10-1-13-5-9-8-15-8-15 1 0 7 12 23 22 31 13 10 30 16 29 11-1-2-14-10-19-11-4-1-18-15-19-18 0-4 0-4 6-3l16 2a376 376 0 0 1 65 12c8 0 22 4 25 7a248 248 0 0 0 65 21c6 1 7 2 14 8 12 12 29 24 40 29 6 2 6 2 8 7 0 2 4 6 9 11a156 156 0 0 0 22 18c9 6 15 17 35 57 3 8 8 16 10 19 4 6 4 8 1 8s-8-4-10-9l-1-4-1 7c-1 13-5 5-6-13 0-8-3-18-4-17s0 13 2 22c1 9 1 16-1 16s-4-8-4-19c-1-8-4-21-6-22-1-2-1 10 2 25v17c-2 1-2 1-3-1a86 86 0 0 0-1-4l-1-2-2 2c-4 4-5 2-6-10l-1-8-2-10c-1-12-6-32-7-32l-1 9c0 9 1 13 4 33 1 7 2 13 1 14-1 4-3 2-7-4l-8-11c-3-6-4-8-1-8l1-3-2-3c-1-2-3 0-3 3 1 2 0 2-4-2-2-3-5-5-6-5-1 1 0 3 6 11a228 228 0 0 1 15 24c-1 1-3 0-6-2l-13-5-12-5-26-8c-4 0-2 2 3 4a350 350 0 0 1 48 22l-24-8c-9-4-14-5-14-3s4 5 8 6l7 3 5 2c3 1 4 3 2 3l-10-3-9-2-17-16-11-9c-4-3-4-3-6-16a117 117 0 0 0-33-32c-2-1-3-2-4-6-2-7-13-19-24-28a303 303 0 0 0-43-34l-13-8-15-10c-9-6-12-7-12-4l4 5 8 5 8 6 11 6 19 13 11 9a308 308 0 0 0 23 19l15 21c1 4 5 8 8 10l7 4 4 3 9 8c8 8 9 9 11 16l2 9c1 2 3 5 7 8a146 146 0 0 1 17 15c2 0 2 1 2 2-1 2-2 2-9 2-8 0-9-1-13-8-4-5-16-13-16-9l6 7 7 8c0 2-4 3-12 5-3 1-6 1-16-1-14-4-22-4-29 0l-5 2-17 12c-3 4-14 5-24 3-5-1-6 0-7 1-4 3 3 6 15 7 8 1 9 1 14-1l12-9c5-4 9-7 11-7l10-3c6-2 12-2 19 0 8 2 18 3 21 2s4-1 7 1h9l10-3c6-2 19-1 20 0 1 2 1 3-2 6-3 2-4 4-3 5 1 2 7 4 13 4s15 2 23 5l12 12c7 8 9 11 9 15l4 12c5 17 6 24 8 35a1667 1667 0 0 0 2 19v14c-2 7-2 18-1 24 2 6 1 7-3 5-3-2-3-2-4-1 0 2 0 3 7 10 4 5 13 23 12 25l-17-17c-10-11-21-23-20-24h4c4 0 4 0 3-1l-7-5c-5-3-6-3-7-1-1 1-1 3 3 10l9 13 4 6-2 3-2 4c0 4 0 4-4 1l-6-2c-2 1-2 3 1 4l5 4 7 8c4 4 5 8 2 8l-7-5c-6-5-7-6-12-4l-2 1 2 2c2 3 3 5 1 5l-1 3c-1 5-3 5-8 1l-6-6c-3-2-3-2 1-5s1-4-5-3-10 2-10 4 4 6 8 9c13 8 17 16 18 35v11l-4 4-4 4v8c0 9 4 18 11 25l4 4-7-1c-8 0-8 0-9 2 0 2-1 2-10 2l-19-2a1199 1199 0 0 0-13-2l-6-2-8-2-11-3c-9-3-15-4-21-4l-12-1h-12l-10 1c-7 1-17 5-21 8s-10 8-10 10 4 1 8-3l9-6 11-3c14-4 40-3 56 3l15 3 13 3 11 3 10 2a47 47 0 0 0 29-1h4l-4 13-1 5c0 3 0 4 2 4l6-2c3-2 4-2 6-1 3 1 3 3 0 8-3 6-2 7 6 4l7-1-1 5v3l3-2 4-2 1 3c1 4 3 5 6 2 3-4 4-4 4 0s1 4 4 0c3-2 3-2 4-1l1 3c0 4 6 3 7-2l3-8v6l1 6 2-3c0-4 2-10 3-10s2 2 1 8c0 5 0 6 2 7 2 0 3 2 3 4 1 3 0 5-3 3l-8-2c-7 0-7 0-7 9 0 8 2 14 7 18 3 4 4 7 2 12l-3 11-1 6c-8-18-8-21-10-33l-2-13c-3-3-3 10 0 23a213 213 0 0 1 6 37l2 3 11 22 16 19c4 5 13 10 19 12 1 1 6 0 11-1l12-2c4 0 4 0 6 4 3 4 3 4 7 4 6 0 9-2 12-8l4-6c2 0 5 2 14 10l7 7 7-1c6-1 8-2 11-5l11-6c6-4 9-4 19-1 5 2 6 2 13 0 6-1 8-2 11-6l8-9c4-7 5-8 8-7s6 14 6 19c-2 7-6 15-12 21a73 73 0 0 1-22 16l-16 1c-15 1-17 2-22 5-5 5-14 10-17 11-5 1-22 1-30-1l-16-4c-15-5-20-6-29-6-11 0-17 1-22 6-4 2-5 3-9 3-3 0-7 1-10 3l-11 4c-5 2-5 2-9 1l-7-2-7-2-12-2c-10-1-17-3-20-6l-5-2c-3 0-7-2-11-6-4-5-8-6-16-6-7 0-9 0-14 3-6 3-8 3-17 3-17 1-30-3-40-12l-10-7-13-11-11-10-4-5c-5-6-7-8-17-13-13-8-16-9-19-14l-9-12-10-22c-1-4-1-5 1-8 1-5 1-10-1-17-1-6-1-7 1-8 3-2 3-3 0-7-2-2-3-7-4-14l-2-11 2-2c7-6 32-22 36-24 8-3 35 0 45 4l11 4 16 4 21 7a59 59 0 0 1 16 5c8 0-6-8-15-9-3 0-8-1-11-3l-16-6-14-5c-14-6-27-8-42-8-11 0-12 0-16 3l-4 3-9 6c-5 4-10 7-14 8-10 3-14 10-11 20 2 9 1 10-3 4l-8-9-7-7-6-6c-4-3-7-6-10-11l-5-8-1-3c0-5-3-15-5-15-3 0 0 17 5 26a278 278 0 0 1 4 8l5 6a130 130 0 0 1 25 26c5 4 7 8 8 11 1 4 1 4-1 7-2 4-5 5-8 5l-8 3-8 3-6 2-12 1c-10 1-13 0-23-6-9-5-22-6-22-1 0 2 1 2 10 4 5 0 8 1 7 3l-12 1h-11v2c0 5 5 8 14 9l5 1-6 2-7 2c-2 2-1 4 1 5l6 2 5 2c3 0 3 2 0 3s-4 5-1 6l5-1c5-2 12-1 22 0 16 3 20 4 29 4 9 1 11 0 9-2-1-2-3-2-9-2-8 0-9-2 0-2 7 0 12-2 12-4s-3-2-19-1l-27 1-11 1 2-2c3-3 2-4-7-5l-6-1 8-5c9-4 10-6 2-7-7 0-10-1-10-2l7-1 8-1c1-1 3-1 8 1 7 2 9 3 16 0l8-2c3 0 7-2 24-10 6-2 9-3 9 0a113 113 0 0 1-2 30l-3 2c-2 2-2 2-1 3l6 1c4-1 5-1 3 2 0 1-1 2-4 2-4 0-9 1-9 3l10 1c8 0 9 0 10 2l4 7 7 8c3 5 8 10 13 11 7 2 14 6 20 11l6 4 4 6 9 10 7 6 7 6 12 8c6 6 11 8 20 10 13 2 16 2 22 0l10-3 13-3c8-2 14-2 17 1l4 14a317 317 0 0 0-6 63c0 29 0 31-4 31-3 1-7 12-8 25-2 11-2 28-1 39l1 8h-3c-3-1-15-13-22-23a1309 1309 0 0 1-32-42c0-3-11-26-14-32l-8-1c-6 0-8 0-12-3-7-3-19-15-22-21l-11-17c-6-9-11-19-23-52-2-4-3-4-16-9-9-4-11-5-17-11l-9-10c-6-9-10-12-10-9s12 20 18 25c7 7 17 13 22 14 5 0 8 4 12 16a181 181 0 0 0 46 74c11 11 19 15 25 13 1-1 3 2 10 16a141 141 0 0 0 25 36 1777 1777 0 0 0 27 34c12 14 26 32 35 46a2898 2898 0 0 0 8 13c5 7 8 15 8 18l5 10c4 9 5 10 3 12-2 1-5 1-9-1a271 271 0 0 0-7-3c-2 0-3-1-2-2 0-1 4-1 7 1 6 3 7 0 1-4-6-3-6-3-4-4 4-1-1-8-8-12-12-6-18-10-17-12 0-3-3-15-7-21l-5-14c-4-12-3-11-17-26l-12-18-11-13 4 8 8 13 4 4 9 14a195 195 0 0 0 9 17l2 6c3 5 5 13 5 14-2 2-8-1-15-6l-9-6 13 14c2 0 3 2 3 3 0 2-1 1-7-3l-6-4c-4 0 6 11 14 15 3 1 5 3 5 4h-4l-19-13-9-8c-4-4-5-5-4-6l3 1h5l-5-5-5-6-8-16v10l-18-13-11-8-3-3c-3-4-13-15-16-16-4-2-2 1 4 7 5 6 6 7 4 7l-13-11a185 185 0 0 0-26-25l4 5a559 559 0 0 0 65 69c-4-2-4 0 1 4l6 4 4 4c3 2 5 3 5 1 2-2 4-1 9 3a595 595 0 0 0 23 21l-3-1-4-1c-6-1-35-20-55-38a369 369 0 0 1-72-76c0-2 2-4 4-4s2 0 2-2l-2-8a371 371 0 0 0-24-69l-5-10c-3-9-6-16-10-21l-9-17c-5-10-7-13-7-10 0 4 3 13 5 16a321 321 0 0 1 33 66 85 85 0 0 1 7 21c4 13 5 21 3 28-1 4-3 5-6 3l-11-13a618 618 0 0 0-22-27 900 900 0 0 0-15-16l-9-12-8-12-11-16-19-25-13-16-20-24-7-9c-7-9-11-14-18-20l-8-9-10-12-28-30c-2-2-4-1-4 1 0 3 12 18 15 20 3 1 15 15 21 24l8 8 10 11a387 387 0 0 0 31 37 266 266 0 0 0 23 29 216 216 0 0 0 16 20 322 322 0 0 0 28 39l4 6 5 6 7 9 1 3-21-20-21-20a176 176 0 0 0 34 40 2630 2630 0 0 0 36 33 465 465 0 0 0 31 36l-14-10a1425 1425 0 0 0-58-40c-3 0-5-1-8-6-2-2-5-6-8-7-6-4-9-9-7-12 2-4 0-11-7-21l-8-13c-2-5-8-13-13-17a63 63 0 0 1-23-28l-10-15-11-14c-3-4-5-6-8-6s-6-6-8-14l-3-8-4-7c-2-6-13-24-19-31a8039 8039 0 0 1-8-10l-5-7a248 248 0 0 0-34-34c1-1 7 3 13 8l6 4c4-2 1-6-10-14l-14-11 10 6 4 2 3 3 7 6 12 10a4301 4301 0 0 0 39 39c3 0 3-2 0-5l-2-3c0-2-7-9-10-10l-2-3-35-35-16-10c-11-6-15-9-9-8l4 2c3 4 14 7 21 7 4 0 6 0 7 2l5 3 17 9c15 8 22 11 29 11l6 1 6 7a195 195 0 0 0 75 54c6 2 10 3 13 0 3-2 3-5-3-8-3-2-3-2-7 0l-6 2c-3 0-12-5-21-12l-13-10c-9-5-24-20-36-34l-11-11-3 3-3 3a210 210 0 0 1-36-19c-8-4-9-5-15-5l-9-1-8-4-7-3-10-4-11-4c-5-2-8 1-4 4v3c-2 0-7 6-6 8 0 2 6 5 12 6s7 3 5 6l-2 3a374 374 0 0 0 41 38c5 7 12 16 16 17l4 4c1 2 2 5 4 6l2 3 5 11 7 13 3 8 5 8 6 9c2 2 6 6 7 9l9 9c8 10 15 20 15 24 0 3 1 4 7 10 19 17 23 22 23 24 2 6 4 12 6 14 6 6 8 10 9 20 1 14 2 15 18 25a411 411 0 0 1 33 20l11 5c9 4 10 5 14 9 5 6 8 9 13 11l8 6 5 5a578 578 0 0 1 65 59l10 8 11 9 27 23c6 5 19 11 22 11 2 0 3 1 4 3l3 5 2 5 2 8c4 8 5 16 4 27l-1 20-1 21a466 466 0 0 0-6 61l-1 19-3 31a528 528 0 0 1-5 37 804 804 0 0 1-15 107c0 4-1 8-4 15-3 8-3 10-3 17l-1 14a34948 34948 0 0 1-29 140c-2 7-2 18-2 25-1 12-1 14-3 17-2 5-3 9-1 11l5 2 3 1-3 3c-4 4-4 8-1 15 2 4 5 6 8 5s3-5-1-8c-2-3-2-3-1-6l1-3 7-1c6 0 9 0 13-2 5-3 6-3 8-2s2 1 7-3l9-6 6-5c2-3 1-7-1-11-4-6-5-15-5-31-1-16 1-28 4-39l5-20a304 304 0 0 1 20-63l5-11 3-9c3-2 9-16 10-20 1-5 2-7 6-10 3-2 4-2 3-4 0-3 0-4 10-9 11-6 15-8 26-9a502 502 0 0 0 91-28c16-4 32-10 34-13 3-2 3-2 10 0a390 390 0 0 0 8 3l5 2c4 0 5 0 10-5 8-7 9-8 10-11a390 390 0 0 0 36-29l7-6 10-5a772 772 0 0 0 14-7c6-4 14-7 21-8 7-2 12-4 12-6l1-8c1-6 9-23 14-30l6-9c4-6 10-12 22-23l12-10c7-6 21-26 21-28s4-8 12-16l3-6c1-3 4-6 7-9l9-9c2-3 5-6 9-8l9-7 7-5c3-1 6-3 7-5l3-2c2 0 7-5 9-8s3-7 1-7l-7 6-11 9a107 107 0 0 0-24 18l-28 28a376 376 0 0 1-6 9l-8 14c0 3-22 27-33 36l-23 22c-4 6-7 10-17 30l-5 11-14 8a291 291 0 0 1-27 13l4-4c1-2 1-2-2-1l-3 3-8 5-8 6 1 1 1-1 3-2 4-3h4l-2 2-9 5-8 5a205 205 0 0 0-26 18l-9 6-12 7c-8 4-8 4-19 4l-10-1-2 3c-2 3-3 4-14 8a946 946 0 0 1-60 20 499 499 0 0 1-74 19c0 2-5 5-7 5l-7 4-7 4 6-12c3-5 5-5 9-4s4 1 6-1l12-7a257 257 0 0 0 43-24l3-2c4-3 9-4 9-3 0 2-2 3-11 9l-24 13c-2 0-15 8-15 9 1 2 6 1 8 0l5-3 7-4h4c3 3 6 2 24-7 22-12 24-13 24-15l3-4a268 268 0 0 1 27-19c8-6 10-7 13-5 1 2 2 2 4 1 3-1 5-4 3-5l-2 1h-3c-2 0 2-4 9-9l9-7 6-5c4-2 5-4 2-4s-8 2-12 5a1721 1721 0 0 1-60 43c-5 4-7 5-6 1l2-2c2 0 11-7 11-10l5-3c7-3 28-18 28-21s-4-1-19 12l-7 4-2 1-2 1-2 2-4 4-9 6c-5 4-10 5-10 3l8-6 15-10 13-11c11-7 16-12 11-12l-14 10-6 4-7 6c-4 3-7 1-4-2l17-13 10-8 2-2 6-3c5-4 6-3 3 1-6 7-2 8 5 2l5-4 4-3h4c2 2 3 2 14 2l13 1-7 7-3 3-2 2 4-2 15-10 18-9c2 0 1 2-3 5a810 810 0 0 0-47 32c-12 10-39 27-41 27-1 0 0-2 3-4l5-4 6-4c5-4 7-6 5-6l-11 6-14 8c-6 4-8 7-6 8s1 2-10 7c-12 7-15 9-8 7l6-1 4-1a193 193 0 0 0 42-23 154 154 0 0 0 27-18 356 356 0 0 0 28-20l5-5 23-16 12-8a1021 1021 0 0 1 48-44 707 707 0 0 1 25-23l-2-1c-2 0-10 7-25 21a388 388 0 0 1-58 48c-5 2-7 3-7 0l1-1c3 0 28-23 27-25-1-1-7 4-17 14-15 14-24 20-33 21l-10 2h-6l-11-1-9-1-2-1 2-2 8-5c4-3 6-6 6-8 0-1-4 0-7 3l-5 3a3767 3767 0 0 0 19-18 411 411 0 0 1 39-28c-4 2-14 11-19 16-2 2-3 4-1 4l2-1 4-1h3l-2 2c-2 2-2 2-1 3l4-3c3-2 3-3 1-3-3 0-2-2 1-6a4517 4517 0 0 0 31-29c-1-3-1-4 3-7l9-7a254 254 0 0 0 25-22 187 187 0 0 0 24-20l6-4c7-6 22-17 25-17 4-1 3-2-1-4-3-2-4-7-3-13 0-6 5-22 8-28a197 197 0 0 1 47-58c8-5 9-4 2 3-3 4-5 9-3 9l6-6a95 95 0 0 1 31-19 426 426 0 0 1 19-10c0-3-14 2-25 9l-20 10-1-1-1-3-7 3-5 5-8 6-9 7 4-8c2-1 3-3 1-3-1 0-13 12-13 14h2c3-1 2 2-2 8a180 180 0 0 0-20 27c-2 0 1-6 10-18l9-15c-3-2-26 31-25 35 0 2 1 2 3 0 2-1 2-1 2 1l-4 7-4 14-7 24-5 7-5 6c0 2-3 4-5 5-6 3-13 8-18 13a587 587 0 0 1-46 35l2-6 12-31 4-11 12-32c3-8 16-33 21-40a3217 3217 0 0 0 6-9c2-3 2-5 1-5-2 0-5 3-9 10a175 175 0 0 1-15 24l-4 10a119 119 0 0 0-9 24l-3 5c-6 18-12 32-19 45-4 7-5 10-5 13l-3 9a860 860 0 0 0-6 8c-1 3-5 7-8 9a367 367 0 0 0-63 50l-4 2v-4l2-11a2797 2797 0 0 0 9-35l9-21c1-5-2-3-5 4a276 276 0 0 0-22 72l-12 12a604 604 0 0 0-22 19c-20 15-37 26-42 27l-4-1 9-14a172 172 0 0 0 16-28c4-6 6-10 13-27 5-12 6-13 10-30a640 640 0 0 1 8-28c-3 3-9 17-12 28a378 378 0 0 1-16 43c0 3-5 8-5 6l2-5c3-6 8-20 11-34l5-14 1-10a1574 1574 0 0 1 2-13c0-5-1-5-3-1l-13 39-15 36c-14 30-12 26-26 44l-18 19-14 16c-1 2-3 3-5 3l-6 3c-2 2-4 2-6 2-2-1-3 0-5 2-4 4-4 6-2 9l3 4-5 7-7 9c-3 3-4 2-2-6l2-11c0-5 1-6 3-4 0 1 2 0 2-2l-2-1-1-4c1-6 4-11 8-11l4-2c1-5 2-3 2 1-1 5 0 5 3 1 2-5 2-4 3-3 3 2 5 0 4-3l3-10v-7l-2 2c-3 3-5 3-5 0l2-4a285 285 0 0 1 29-66l16-26a236 236 0 0 1 31-43h4c3 1 3 1 3 8l1 6c1 0 4-6 4-9 0-2 2-3 4-5 3-2 3-3 4-7 0-5-1-5-3-7-8-4-8-4 2-5 11 0 22-2 30-7 14-8 21-15 26-22l7-11 5-8 3-4h18c8-3 15-5 16-7s16-12 18-12h5c8 0 21-8 33-22l23-24 16-16h4c6 1 19-3 19-5s-5-3-9-2l-8 1c-4 0-5 0-6-2 0-2-5-7-10-12l-11-11a552 552 0 0 0-42-47 153 153 0 0 1-37-36l-5-8-10-14-6-9a121 121 0 0 0-20-26l-16-16-15-16c-3-4-5-4-5-1 0 2 2 5 8 10a342 342 0 0 1 66 83c4 8 6 11 12 17l12 10 8 7 26 27c5 8 12 14 27 29 10 11 15 16 15 18l-5 6-10 10-23 23c-15 14-21 18-29 18-5 1-18 7-24 12-8 6-12 8-20 9-7 0-8 0-10-2-3-2-4-5-2-7v-3c-5-3-6-1-7 7l-2 10-6 10c-5 9-10 16-17 22-6 5-9 7-18 10-10 4-18 5-37 6-5 1-7 1-8 3l-2 2-4-2c-2-1-4-2-6-1-5 0-6 2-7 6 0 4-4 12-9 18a164 164 0 0 0-11 17c-12 16-16 23-24 37-13 25-19 38-20 46-2 8-2 9-1 9l5-9c8-18 10-20 12-23 1-2 3-5 3-8l6-11c3-4 6-8 6-10a480 480 0 0 1 28-38l-24 40a369 369 0 0 0-40 87c-2 13-4 16-4 6l4-32c2-9 5-33 5-43 0-15 3-35 7-48l2-14 2-17a1200 1200 0 0 0 12-63 14109 14109 0 0 1 19-75 1685 1685 0 0 0 33-94l3-8a612 612 0 0 0 19-49l6-13 5-13a323 323 0 0 1 26-48c7-7 7-8 7-12s0-4 3-4c4 0 7-2 14-10 5-7 7-8 16-13 7-3 13-7 16-10 4-4 6-5 8-5h15c16-1 17-2 31-15l12-11c2-1 2-1 1 3v3l3-1c4 0 4 0 5 3l5 6 5 7 7 10a240 240 0 0 1 17 27l19 37a2052 2052 0 0 0 33 69c5 10 7 14 7 17l8 18c2 3 0 4-3 2l-6-4-7-4a284 284 0 0 0-49-29l-26-12-13-5c-3 0-5-1-8-4l-9-6-10-6-14-10c-10-8-25-23-33-33l-8-7-3-2-6-3-13-6c-7-4-9-4-9-2l7 5c4 2 9 5 10 7l8 2a1284 1284 0 0 0 39 37l21 16 9 7 3 2 3 2 5 2c2 0 7 2 12 6l11 5 5 2 7 4 18 8 16 7c1 0 20 12 26 18l19 17c3 2 6 7 15 23 7 14 10 17 12 18l3-1a275 275 0 0 0-23-49 725 725 0 0 0-8-18 3396 3396 0 0 1-6-14 712 712 0 0 0-5-10l-4-9a737 737 0 0 0-74-137c-10-13-12-17-8-17 2 0 13 11 17 17 3 5 4 6 8 7l4 1-6-8c-4-4-8-8-9-11l-10-10c-7-6-8-6-6-12 1-3 1-5-1-10l-4-8-3-6c-2-4-2-4 0-8 2-5 10-14 11-14l6-2c4-3 10-4 30-9 9-2 12-3 14-6 2-2 4-2 7-2l6 1c2 1 3 0 6-4 2-3 4-4 6-4l7-1 13-1h7l-4 2c-3 0-3 3 0 4 1 1 8 0 11-1h4c4 2 10 9 10 10l2 4 5 10 7 9 12 22c1 5 7 13 13 19 3 2 5 5 5 6 0 2 5 10 9 15 7 8 11 15 11 19l5 12c4 8 10 26 16 46l11 26 9 19c0 4 9 22 11 25 5 7 10 18 14 31l8 22c3 7 4 11 6 29 0 8 1 9 3 9l3-1a230 230 0 0 0-35-101 354 354 0 0 0-9-21c1-3-2-11-5-17-2-2-5-7-6-11l-3-10-3-9a255 255 0 0 0-11-34c-2-8-5-16-7-18l-2-3c0-2-8-15-13-21l-8-11-7-9c-4-5-11-15-17-29l-11-16-7-10-4-4-1-1-2-6c-4-6-4-10 0-15s7-6 15-9c12-3 18-4 23-3 4 1 15 1 21-1l3-3c2-3 12-8 22-11 7-2 12-2 28-2l21-1c3-1 9-10 9-13 0-5 16-19 28-24l14-7c10-5 11-5 15-4 5 1 5 1 8-2 2-1 4-4 5-9 2-5 3-8 6-11 10-10 13-11 29-15l11-3c5-5 8-7 11-7l9-2 14-4 12-2c6-1 5-4-3-8-5-2-7-2-17-3-15 0-23-1-27-3-7-2-18-5-28-6a192 192 0 0 0-74 9h-13l-21-2c-7 0-13 0-16-2l-17-1c-10 1-12 1-17 3-2 2-7 3-9 4l-9 3-4 3-9-1-13-1-5-1 2-4 6-4c8-8 12-11 16-11 3 0 6-1 10-4s11-6 23-10l23-8c23-10 29-15 51-35a203 203 0 0 0 51-68l3-6 3-5a124 124 0 0 0 14-25l6-10a279 279 0 0 1 60-57l10-3c7-2 20-8 20-11l-5-1-5 1 3-2 5-3 19-13c1-2 4-4 8-5 6-1 15-7 22-12 4-5 5-8 2-11-3-4-13-2-21 3-4 3-10 4-10 2 0-1 3-6 7-9 8-8 12-24 7-30-3-4-5-4-9 1-5 5-5 8-1 10 3 1 3 2 3 6-1 4-1 6-4 9s-5 6-12 21c-6 10-5 13 1 7 1-2 5-4 9-6l9-5c2-1 3-2 4-1 2 1 1 3-4 4l-7 5c-4 3-8 6-19 11l-10 7c-4 4-7 6-17 7l-12 3c-5 1-12 6-12 9l-3 3-19 12c-16 9-16 10-38 31a461 461 0 0 0-41 43l19-25a195 195 0 0 1 20-33c2-5 10-15 16-22l7-9 3-6c1-1 2-3 1-4l-4 3c-6 6-10 8-14 8-3 0-4 1-8 5a287 287 0 0 0-18 19l15-19 9-7 10-7 5-3c1 0 3-1 3-3l8-6 7-4c1-2 24-19 26-19s1 2-7 7-18 14-18 15c0 2 3 1 15-8l9-7 8-6c2-2 5-3 7-3l6-2c3-1 3-2 3-7 0-6 5-25 6-25 2 0-1 24-4 29-1 2-1 2 1 2l3-2 7-10 9-15 4-7c2 0 1 6-1 9l-4 14a1055 1055 0 0 1-2 15c2 0 5-4 9-11 3-7 4-8 3-12 0-6 2-18 5-27l3-9c0-4-2-4-5 1l-6 7-6 12c-4 10-9 16-10 12l-1-12-3-18c-3-1-4 2-11 29-2 9-5 14-12 17-6 2-6 2-8-3v-8l2-8c0-2 2-6 5-9a136 136 0 0 0 16-35l2-7-2-4c-3-5-7-8-13-10-5-1-12-4-17-8l-7-4c-3-1-4-2-6-9-1-3-3-4-11-7h-8c-13 4-20 4-27 2-3-2-4-3-4-6 0-5-15-15-23-16l-14-2-12-3-12-5c-8-6-16-9-22-9s-5-2 1-6c8-5 17-15 17-18 0-2-1-2-7-2-5 0-6 0-13 4l-15 12c-7 8-13 12-16 13-1 1-3 0-8-4-6-4-11-5-15-3l-7 2c-5 0-6 0-10-3-8-6-14-9-18-9-6 1-13 8-19 20a568 568 0 0 1-5 9c-4 5-4 8-3 12s1 5-1 7l-3 6c-2 3-2 3 0 5v10l-1 15c-1 9-3 17-6 20-4 3-13 8-19 8l-16 1h-11l-5 4-6 6a970 970 0 0 1-37 40l-16 19c-1-1 11-18 17-25a1151 1151 0 0 1 40-41h-6a438 438 0 0 0-58 61l24-30 11-12 7-9 3-3c0-2-2-1-5 2l-7 6c-10 8-29 31-36 42-4 7-5 8-5 5 2-6 12-22 19-30 4-4 6-8 5-8l-3 2a142 142 0 0 0-22 27l3-10c2-2-1-1-4 2-4 5-4 2 0-5l6-15c2-7 4-10 8-15a89 89 0 0 1 17-16l7-5c4-2 4-2 8-1 5 3 7 2 11-3 3-4 3-4 9-4 7-1 7-1 16-8l9-8 7-1c8-1 13-3 18-8l8-6c4-1 5-2 5-5 0-2 0-3-2-3-3 0-9 4-16 11-4 5-6 6-8 5h-14l-8 8c-8 8-8 8-11 7-7-2-9-1-15 5-6 5-6 5-12 5s-11 2-16 7c-6 7-6 5-3-9 3-8 8-19 13-26 4-4 5-7 4-12 0-4 0-5 2-6 1-2 19-14 28-20s26-14 35-17c11-2 13-4 16-10 4-8 8-14 12-18 6-5 28-17 34-18 3-1 5-5 5-9l1-9 2-9 2-7c4-10 21-29 32-35 8-5 8-7 6-19-1-4 0-6 19-36l9-14c2-6 5-22 3-23-2-2-16 9-39 33a10309 10309 0 0 1-26 22h-5a4158 4158 0 0 0-24 4l1-9 3-17v-13c-2-4-2-4 0-10a233 233 0 0 0 12-77v-26l-3-1c-4 0-6 1-10 8l-6 10-11 17-5 8a567 567 0 0 0-37 62c-2 4-3 5-3 3s3-11 8-20a201 201 0 0 0 19-56l7-38c1-9-3-11-11-7-7 4-25 29-30 43l-5 8-4-12c-1-7-4-8-9-2-3 4-4 4-5 3l-3-2c-2 0-1-2 1-14 4-17 6-31 4-34 0-2-5-5-7-5l-3 2m3 20c1 3 0 7-5 27l-2 13c0 3-2 7-6 15l-6 10v-4l-2-7-2-11c-1-11-2-10-7 2l-5 14c-3 5-6 14-10 30l-3 8c-1 1-1-5-1-12l1-13 4-11 7-16c3-12 5-17 9-22l6-8c1-4 14-17 17-17l3-1c1 0 2 1 2 3m-108 4-3 5-3 9c-1 9-2 11-4 11-2 1-4 5-4 10l-2 13a407 407 0 0 0-1 109 1325 1325 0 0 1 2 91c2 1 2-2 2-13l1-14 1-1a4046 4046 0 0 1 4 37v-13a751 751 0 0 1-2-33l-2 4-1-17c0-19 0-20 2-22s2-3 2-16l-1-35a347 347 0 0 1 7-98v-4l1 3c1 5 2 5 4 1l1-4v4l1 10c1 10 2 7 3-6 1-10 1-12-1-18-2-5-2-7-1-9 3-5 5 0 8 24a609 609 0 0 1 9 70l3 15 3 21a427 427 0 0 1-8 127c-2 10-8 24-16 35-3 3-3 4-4 21l1 23 1 7-3-3c-2-3-3-5-3-15v-12l-4-4c-4-3-4-4-4-9 0-4-1-7-5-14-7-15-9-26-7-57a445 445 0 0 0-7-80c-2-3-3-8-3-10l-2-8-3-6 1-4c3 0 3-2 3-17a151 151 0 0 1 9-50 513 513 0 0 0 6 148c1 1 1-2 1-19l-2-27a411 411 0 0 1 0-94c2-11 1-14-2-12-2 0-2 0-1-4 0-4 5-15 7-18l1-4 3-9 4-10c1-6 8-13 8-9m207 23-6 11-3 4a324 324 0 0 1-21 35l-8 14a251 251 0 0 0-9 17 1137 1137 0 0 0-39 79 131 131 0 0 0-13 41c-2 2-2-13 0-20a583 583 0 0 1 42-92 229 229 0 0 1 31-55 2929 2929 0 0 1 26-34m6 19c0 11-1 20-5 35a553 553 0 0 1-28 83c-6 18-6 19-30 31l-12 8c-2 3-4 3-4 0a43 43 0 0 1 38-90c2-4 2-5 0-5-2 1-1 0 1-5 1-3 2-4 4-3 1 0 2-1 2-5 1-5 6-16 9-16l1-3 2-6 4-7 4-10a272 272 0 0 0 11-19c2-1 3 2 3 12m-93-3c3 9 3 28-2 56l-3 14a513 513 0 0 0 3-36c2-16 0-33-3-32l-1 17-2 36c-2 17-2 19-1 20 3 2 2 4-3 20a375 375 0 0 1-18 48l1-11c2-9 2-14 0-24l-2-31a1459 1459 0 0 0 1-47c5-11 23-36 27-36l3 6m-121-1c-1 3-1 5 1 5 1 0 2-1 2-3 0-4-2-5-3-2m109 9c-2 3-2 4-1 9 1 7 1 13-2 36-2 22-2 29-1 27l4-25 3-18v-29c-2-2-2-2-3 0m-6 9v6l-2 18-1 16c1 1 1 1 2-2 2-7 5-35 5-38-1-2-4-3-4 0m-6 9c-2 2-4 13-4 22l1 6c2 0 2 0 4-15 3-15 2-19-1-13m-56 1 5 35c1 2 2 1 2-4l-4-30c-1-2-3-3-3-1m-54 34c-1 3-1 0-1-9 1-15 1-17 2-4l-1 13m87-18c-1 2-2 29-1 31h1l2-33-2 2m-102 14v5l1-3c0-3 0-3-1-2m127 7-1 4c0 2 0 3 1 2l1-4-1-2m69 11c-2 4-3 6-4 5l3-7 4-5-3 7m-25 2c-1 1-2-1-1-2h1v2m16 1-2 2 1-3 2-2-1 3m123 0-1 2-3 6c-2 5-7 14-13 21a853 853 0 0 0-38 44l-12 14-24 23-16 15-13 11-17 15a627 627 0 0 0-77 79c-5 0-6 0-7 2l-2 5-1 4c-1 0-3 2-4 5-3 6-5 6-4-1 2-11 1-12-5-11-2 1-2 2-2 4 0 5-1 7-2 7l-1-6 5-12c5-8 8-15 13-27 4-12 6-15 11-19 19-12 26-23 28-40l2-11c1-3 9-11 10-11 2 0 10-6 15-11l9-12 9-9 6-3 8-4c6-2 33-20 41-27 2-2 6-4 13-6 16-5 22-7 26-10l17-15a200 200 0 0 1 26-22c2-3 3-2 3 0m-342 0c1 2 0 12-1 12s-2-6-1-9c0-4 1-5 2-3m13 7c-1 9 0 13 2 13l2-1c0-3 2 0 4 5a189 189 0 0 1 12 65v7l-1 33c-1 31-2 41-4 45l-2 7c1 10 0 25-2 34l-3 40a1058 1058 0 0 1-10 96l-1 4c0 5-5 20-8 23l-2 2v-2l3-11a326 326 0 0 0 11-59c-1 0-4 9-7 23a320 320 0 0 1-18 48c-3 6-4 8-6 8s-1-2 2-8c7-15 13-34 16-50 3-19 1-19-4 0a276 276 0 0 1-21 60c-1 4-3 6-5 5l4-13a266 266 0 0 0 16-61l-1 1-2 5-3 10c-5 22-11 38-17 50-2 5-3 6-7 7h-5l1-7c2-5 6-16 10-36 2-9 0-11-3-2a387 387 0 0 1-17 46l2-8a84 84 0 0 0 6-19c3-10 3-15 2-15l-3 6c-4 14-10 32-12 33-2 3-2 0 1-11 4-13 6-20 4-20-1 0-3 5-7 19-2 10-4 13-4 7 0-3 3-14 5-17l4-15c2-7 4-16 6-19a1527 1527 0 0 0 35-121 357 357 0 0 1 14-58c0-10 6-40 10-51l3-15c2-11 2-18 2-33a966 966 0 0 1-2-35c-1 1-2 2-2 22 0 18-1 40-3 42-1 1-1-1-1-15a287 287 0 0 0-4-29c0-6-2-13-4-17-4-8-4-8-1-8l3 3c2 4 3 4 6 1 2-3 2-4 2-10s0-8 2-9l2-1v6m109-3-1 8-1 5-1-2-1-2c-2 1-4 9-4 15 0 3 0 4-2 3l-2 3c-3 7-5 19-5 40a3612 3612 0 0 1 0 53l2-12a706 706 0 0 1 6-72 1922 1922 0 0 0-3 69c0 4 1 5 3 2l1-16a539 539 0 0 1 5-47l2 1 1-18a386 386 0 0 1 2-32c-1-2-2-1-2 2m-181 5c0 1 0 2-1 1l-1-4c0-4 0-4 1-2l1 5m50-4c0 1 0 2-1 1l-1-2c0-1 0-2 1-1l1 2m136 1-1 28c2 1 2-1 2-16 1-15 0-20-1-12m27 2c-2 3-3 7-1 7 1 0 3-5 3-8l-1-3-1 4m69-1c0 2-2 5-3 5v-3c1-3 3-4 3-2m-12 7c0 3-1 4-2 4l2-4c2-5 2-4 0 0m-276 9c2 20 3 25 8 43 8 27 7 26 5 36l-2 13c-1 7-3 12-5 14s-3 0-3-7l-3-14-2-17a5520 5520 0 0 0-2-25v-31c1-16 2-22 3-21l1 9m282-5c-2 7-14 31-15 32a92 92 0 0 1 10-23l6-13-1 4m41 10a56 56 0 0 1-5 14c0 2-4 6-5 6s-1-3 2-8l3-8c2-6 5-13 6-12l-1 8m-275-3-1 4-1 5-2 8c-3 6-5 16-4 17 1 2 2 0 2-4l2-4v5l1 9 1 8c1 0 2-4 2-17 0-12 1-22 2-22s3 10 3 16 1 7 3 2 1-10-2-20c-2-9-2-11 2-10s5 6 9 31a141 141 0 0 1-1 68c-1 4-5 19-5 27a691 691 0 0 1-32 132 93 93 0 0 0-4 15 623 623 0 0 0-19 64l-3 8c-2 6-3 3-4-5l-1-10c-1-4-2-1-2 5 0 5 0 6-1 5-2-3-2-27 0-62l2-39c0-10 1-13 3-8 1 3 0 29-2 51-1 15-1 26 1 24l2-23c1-35 2-38 3-49l3-31a555 555 0 0 1 6-69c0-13-2-9-4 6a353 353 0 0 1-3 28 970 970 0 0 1-6 55c-5 1-7 10-8 41l-2 33c-2 22-1 38 1 49 3 12 3 13 2 13-4 0-7-21-7-42 0-12 2-51 5-78 0-11-2-7-4 8a450 450 0 0 0-1 105c3 9 4 13 2 13-5 0-12-25-9-33v-14a380 380 0 0 1 16-120l2-16a933 933 0 0 1 21-90l7-25 3-8c4-10 10-33 12-46 1-8 5-14 9-14 2 0 2 0 1 4m223 0-3 7-5 11-4 8c-1 2-12 29-13 35a583 583 0 0 0-3 11l-3 4c-1-1-1 0 1-9a197 197 0 0 1 15-40l1-2 2-4 12-24v3m-88 22c-1 1-1 0-1-5 0-11 1-14 2-4l-1 9m8-8 1 4 1-3-1-3-1 2m196 3c-3 5-4 13-3 15 2 3 0 5-6 10a99 99 0 0 0-36 56c-3 12-4 13-14 16-12 4-25 15-36 30-6 10-7 11-13 11-6 1-23 10-34 17-7 5-7 5-7 3 0-1 9-11 21-22l20-23c-1-2 0-4 2-4a140 140 0 0 1 19-19 553 553 0 0 0 74-77l4-5 10-11-1 3m-123 17-2 6-2 5-5 15-3 10h-2a213 213 0 0 1 16-42l-2 6m-81 12v15l1-1c2-2 2-29 1-29s-2 3-2 15m-130-9c0 1 0 2 1 1v-2c-1-1-1 0-1 1m97 4c-1 2 1 10 2 10 3 0 3-5 2-8-2-4-3-5-4-2m-98 4c0 3 0 3 1 2v-6l-1 4m0 8-2 16c-1 18-3 32-7 51a614 614 0 0 0-11 48 696 696 0 0 0-8 36 738 738 0 0 1-18 67c1 1 3-1 4-5a395 395 0 0 1 9-34 33323 33323 0 0 0 18-66l4-19 3-20 8-38v-36m-15 2c-3 10-4 36-2 36l1-4 1-6 1-27c-1-1-1 0-1 1m-8 6-3 15a216 216 0 0 1-1 21c1 0 2-3 3-10l1-10c2-4 4-21 3-22l-3 6m87-3c-1 2 0 9 1 8v-10l-1 2m31 7c-1 5-2 35-1 36 3 1 3-2 3-14 0-14-1-26-2-22m-41 23-1 7v30c1 8 10 26 14 28l2 3v4c1 2 3 1 3-1l3-6c4-5 11-18 11-21l-2-9c-1-4-2-9-1-13 0-8-1-14-2-13l-1 19-1 16c-2-4-4-18-4-30 0-14-1-18-3-18l-1 11c0 10 1 31 3 36 1 5-2-1-4-8-2-8-4-9-4-2l2 11 1 6c-1 1-5-12-5-14l-3-9v12l1 7 1 5-2-5c-3-9-4-19-4-33l-2-17-1 4m33 10v24c2 3 3-2 3-16s-1-19-2-19l-1 11m-121-1-3 17a696 696 0 0 1-4 51l1-7a6922 6922 0 0 0 8-67l-2 6m303 1-12 11c-3 4-3 5 0 3s5-2 5-1c0 3 1 2 3 0l2-4c-1-2 0-4 4-8 5-5 6-7 4-7l-6 6m-159-1-2 7-2 11c-2 10-1 14 3 6 2-5 4-26 2-26l-1 2m-783 6 2 6 6 15c3 7 6 12 13 19l10 12c3 6 9 13 12 17l4 5 3 6 9 14 4 6 5 13c3 8 5 12 10 15l12 10a143 143 0 0 1 29 49l3 10 4 9c0 6 2 8 7 11l8 6 5 6 6 4 5 4 7 8a559 559 0 0 0 15 20c0 3 6 13 8 14 2 0 1-7-2-13-5-12-10-18-27-35l-13-14c0-7-2-9-6-12-2-1-3-2-4-7-1-4-2-7-4-9l-9-16-10-17-8-12-14-17a92 92 0 0 1-22-30c-5-10-11-19-18-26l-5-9-6-10-6-9-4-7-3-5-4-7-4-8 5 2 5 2 5 3 6 3 8 3c3 1 8 4 11 4l14 6 10 4 13 5c14 7 29 12 30 10 2-2-2-5-6-6l-19-7c-3-1-7-3-11-3l-8-4-13-7a82 82 0 0 1-13-7l-7-4-7-3c-2 0-7-5-7-7 1-1-4-5-8-7l-11-2a225 225 0 0 1-15-1m643 7-3 18v17l1 1 2-12a344 344 0 0 1 2-25c-1-1-1-1-2 1m268 17a354 354 0 0 0-33 30l-4 4a579 579 0 0 0 37-35m-42 0c-3 2-22 31-22 33l1 1c3 0 7-5 11-13l8-14c4-6 5-9 2-7m-841 3c0 2 20 19 22 19l8 6a774 774 0 0 0 68 48c0-2-10-11-16-15l-8-6-7-6-7-5-5-3-1-1-6-5-6-5c0-1-16-12-18-12l-3-3a50 50 0 0 0-14-11c-3-2-7-3-7-1m846 3-1 3c1 1 5-3 5-5s-2-1-4 2m30 10-7 5-1 2 1 2 14-14c0-2-2-1-7 5m-54-1-8 15c-7 14-8 18-5 18l4-7a120 120 0 0 1 12-28c0-1-2 0-3 2m36 1-1 1v-1l1-1v1m170 2c0 2-3 4-5 6a108 108 0 0 1-26 14 1 1 0 0 1-1-1l1-1c2 0 14-8 20-13 10-9 14-11 11-5m-279 2v6c-1 1-1 1-2-3v-5c0-3 1-2 2 2m-51 1 4 13c1 9 1 10 6 16l4 7-1 7c0 10 1 14 8 25l6 8v10c0 8 1 13 3 22 3 11 3 13 3 21l-3 12a211 211 0 0 0-13 60l-3 44c-1 9-2 14-4 11l1-20c1-18 1-23 5-49 1-13 1-17-1-15l-6 37a1409 1409 0 0 1-6 32l2-11c4-49 4-49 3-51l-2-3-1-7a863 863 0 0 0-16-67c-2-11-2-23-1-35l1-16 1-13a1237 1237 0 0 0 6-42l4 4m43 1 1 8-3 33c-1 0-2-3-2-7l-2-4-2 10c0 10-1 13-2 6l-2-3v13c1 6 1 6-2 2-2-4-3-33-2-40 2-6 12-22 14-22l2 4m70-1v3c0 1 3-3 3-5s-2-1-3 2m42-1-2 2c-1 1-1 1 0 0 0-2 2-3 2-2m-53 8-5 11c-3 6-3 7-4 6l-1-7v-4l-2 7-2 6-1 10 2-5c2-5 4-7 4-2l1 3c1 0 4-4 5-11l4-11 2-7-3 4m147 5 6 3 8-1c12-1 13-1 16 2 3 4 13 9 16 9l4-1 9-4 8-3 8 2c10 1 23 6 28 10l7 4 7 1 10 1c7 1 16 4 16 7 0 0-2 2-5 2-6 2-13 1-24-4-11-6-15-6-23-2-7 3-9 4-17 1-9-2-12-1-19 7s-9 8-11 3c-2-4-3-5-6-5l-3-1-5-1c-3 1-5 1-14-4s-11-5-17-6h-6l-2-6-2-8c-1-1-1 0-1 5l2 9-1 2c-3 0-3-1-3-10-1-11-4-15-6-7l-1 3-4-1c-2 0-2 0-1-3 2-4 5-7 9-7l3-1c0-2 4-3 7-1l7 5m-141-2a1808 1808 0 0 1-4 10l-2 8c1 2 2 0 4-5l4-10 1-7-3 4m134 2 1 10c1 6 2 8 3 8l1-8-2-10h-3m-837 2c-1 3 1 4 6 5 7 1 20 5 23 7s6 1 6-2c0-2-7-9-10-9a109 109 0 0 1-5-1h-20m159 6c0 2 14 10 20 11a252 252 0 0 1 60 29l21 13a1488 1488 0 0 0 48 30 264 264 0 0 1 62 60l-25-10c-6-3-15-5-14-3l2 1 19 8c18 10 22 11 20 7l2 1c3 2 5 3 5 1s-8-13-11-16l-2-4a418 418 0 0 0-11-50c-2-3-2-2-2 2l2 8a382 382 0 0 0 8 38 502 502 0 0 1-38-33l-9-8-13-10a605 605 0 0 1-35-23l-6-3c-1-2-9-7-17-11a1047 1047 0 0 1-12-7c-11-7-15-8-20-10l-10-6c-5-3-12-6-15-6l-12-5c-13-5-17-6-17-4m689 0v9c1 5 4-1 3-6-1-4-2-5-3-3m-808 3-4 1 5 4c4 5 8 7 11 5 1-1 2-1 2 1l3 1 5 2a343 343 0 0 0 30 23l15 10 6 5a134 134 0 0 0 35 24l9 5a56 56 0 0 0 22 13l5 3a615 615 0 0 1 57 28c2 0 20 15 30 25 8 8 10 10 16 12l8 3-18-17-19-16c-5-6-14-12-18-14a461 461 0 0 1-40-20l-12-5-5-1-4-3-6-3-7-4-9-6c-9-8-16-13-22-14-4-1-7-3-10-7l-5-5-12-8c-3-1-8-6-19-16l-7-5-6-6c-7-5-27-16-31-16l-5 1m638 1c-2 3-5 15-4 16h2l4-15c0-2-1-3-2-1m198 0v8c2-1 3-7 2-8h-2m-56 7 4 4 1-5c0-4 0-4 1-3 2 3 1 11-2 14s-3 3-2 7l2 4c2 0 5-3 5-6 2-4 7-8 9-7l6 1 10 2c7 4 11 5 18 5 6 1 6 1 12 7s9 8 15 8c4 0 18-6 18-8l-2-1-7 2c-4 0-4 0-3-1 2-2 1-4-2-4-3 1-2-1 2-3 3-2 5-2 13-2 10 0 11-1 15-3 4-3 4-3 10-2l16 5c12 6 18 7 25 5 5-2 5-2 10 0l11 5c8 5 14 6 28 3 5 0 11 2 18 9 5 5 15 11 24 14 7 3 10 6 13 12v12c-2 10-8 25-11 28-7 6-8 3-8-16l1-14-3-3c-4-4-10-5-19-2s-10 3-12 0c-1-2-2-3-5-4-7-2-10-1-17 3l-6 3-8-2c-9-3-11-4-12-9-4-15-20-26-36-26-5 0-6 0-9-4-4-4-9-7-13-7s-4 2 1 6a304 304 0 0 1 7 4l8 4c9 2 21 7 25 11 5 4 8 9 12 17 2 5 3 5 11 8 9 3 13 6 16 13 4 8 3 14-1 23l-8 10a1488 1488 0 0 0-43 29 2448 2448 0 0 1-15 11c-10 8-14 11-14 13 0 3 1 2 7-2l21-16 12-7c1 1 1 2-2 7-2 3-2 4-2 8v6c-1 1-3 4-3 7-5 16-11 25-37 51a223 223 0 0 0-19 24c-6 7-8 11-11 20l-7 16a164 164 0 0 0-12 29l-8 19 1 1 6-11a790 790 0 0 1 24-54 102 102 0 0 1 23-31 218 218 0 0 0 25-30l14-19c9-12 12-23 14-40l7-11 10-10c16-10 20-14 26-21 7-9 7-13 0-25l-5-9 2-2c4-3 11-2 18 2 5 3 6 3 8 2l9-2c5 0 6 0 9 3l6 3 2 1c1 1 0 1-1 1-2 0-2 1-2 7a1040 1040 0 0 1 0 22l2 6 1 6c1 3-1 12-4 18a75 75 0 0 1-27 21l-14 7-12 6a99 99 0 0 0-21 22c0 2 3 1 5-2l4-4 7-4 10-7c2 0-3 5-6 7l-4 2-7 6c-7 4-14 14-19 25l-3 6-3 3c-1 5-18 31-23 37a854 854 0 0 1-27 35 281 281 0 0 0-34 48 106 106 0 0 1-28 25l-11 8c-4 3-6 5-8 9l-3 6c-1 2-1 3 1 7l2 6-7-3c-1-1-3 0-10 4l-10 5-4-10c0-3 2-2 4 2 2 3 4 3 5-2s4-7 12-9c3-1 5-2 6-4 2-4 0-6-4-4l-6 2c-3 0-6 1-7 4-2 4-4 4-6 1s-2-7-1-9c3-2 1-23-4-56-4-24-6-85-3-112 2-19 2-28 0-29l-2 13a704 704 0 0 0-4 58c-1 15-4 4-7-28a409 409 0 0 1-4-54c-1-2-5-3-5-1a513 513 0 0 0 8 92c2 17 2 16-1 20-4 5-14 20-14 22l-2 6c-3 5-5 16-5 23l-1 5-4-5-14-17a585 585 0 0 1-24-23c-4-2-10-7-13-11l-8-6c-3 0-7-4-7-8 0-3-1-7-4-9l-10-7-5-1-12-3c-7-2-7-2-12 0s-11 3-11 1l3-4 6-8a849 849 0 0 1 19-32 652 652 0 0 0 14-21l14-17 8-9 22-22a417 417 0 0 0 43-36l9-8c3-3 4-4 6-3 4 2 4 4 2 13a685 685 0 0 0-7 56c0 5 1 7 4 4 2-1 2-3 3-21a530 530 0 0 1 7-70 6058 6058 0 0 0 6-47l2-9 2-2c1 0 2-2 2-10 0-9 1-14 5-14l4 5m47-3 2 8v-9l-2 1m-368 5v16c2 1 2-1 3-8 0-7-1-11-3-8m218 2c-1 2-7 7-7 5l6-7 1 2m-91 5h1v-2l-1 2m-140 9v8l2-4 1-6-1-2-2 4m-10 5-2 9-3 20c-7 40-7 40-7 67l-1 26-2-10-3-21c-1 0-1 22 1 25l-1 2-1-2a109 109 0 0 1-1-35 230 230 0 0 1 8-46 231 231 0 0 1 13-42l-1 7m335 1c0 11 5 34 7 34l1-10c1-8 0-10-1-13l-3-8c-1-6-4-9-4-3m-813 2-1 1c0 2 19 17 24 19 4 2 9 7 15 13 2 3 16 13 20 15l7 4c3 3 5 4 5 2 1-2-3-7-7-9-3-1-6-3-7-5l-7-7-11-8c-2-3-7-7-10-8l-8-7-5-3-6-4c-5-4-8-5-9-3m590 0v1h1c0-2-1-2-1-1m46 5-1 4c-1 1-1 0-2-2 0-4 0-6 2-5l1 3m-149 1 1 3 1-2-1-3c-1-1-1 0-1 2m209 4-3 8-6 15-5 17a246 246 0 0 1-17 40l-6 13c-1 5-1 5 3 25 1 6 1 17-1 24-1 6-11 27-17 36l-2 6c0 2 0 2 3 0l4-4 3-1c1 0 0 7-2 10a446 446 0 0 0-8 14h-4c-2 0-3 0-3-2l-2-3a162 162 0 0 1 6-66 399 399 0 0 1 27-85c0-4-2-1-8 10a447 447 0 0 1 22-42c-5 10-6 12-5 13l10-14 7-13c2-3 4-3 4-1m-47 4-2 4c-1 1-1 1-1-2l1-6h2v4m-6 2-2 2v-6c1-2 2 1 2 4m-49-1a976 976 0 0 0-1 15c-1 5 0 18 1 19 2 1 2-1 3-9l1-11-3-15-1 1m236 7-3 2-1 25a458 458 0 0 1-8 103 750 750 0 0 0 13-119c0-4 2-7 4-5 0 1 0 21-2 39 0 8 1 14 2 14l3-22 2-23 1-10-2-3c-3-2-4-2-9-1m-198 8-1 6c-1 0-3-8-2-11 1-4 3-1 3 5m8 1v5c1 2 4-1 4-5l1-3 1 6c-1 5-1 6 1 6l4-7 4-8c2-1 1 6-3 17l-7 25c0 6 11-19 14-29l3-11c3 0 0 11-7 28l-13 33a434 434 0 0 0-19 93 754 754 0 0 1 13-87c2-4 2-11 3-19 0-13 0-14-3-22-4-10-4-11-1-16l3-7 1-5c0-2 0-2 1 0v6m206-6a1130 1130 0 0 1-4 30c-1 12 0 24 1 21l2-11 2-16 4-23c-1-2-3-2-5-1m9 0c-2 4-8 65-7 67 2 1 2-1 4-17a1140 1140 0 0 1 5-51l-2 1m9 2a728 728 0 0 0-8 47c-1 13-2 18-4 21l-4 16a636 636 0 0 0-11 77c1 0 1 1 2-9l2-16a1955 1955 0 0 0 17-79 454 454 0 0 1 10-58c-1-2-4-1-4 1m9 1-2 7-9 44c-2 6-2 22-1 22s2-2 3-11l2-13a415 415 0 0 1 12-48c-1-2-3-2-5-1m8 3-2 8-4 16-6 35c-1 5 1 3 2-2 8-29 10-38 14-45s3-12-1-13l-3 1m10 4-2 9-6 17c-3 10-6 26-5 27 1 0 5-11 7-21 4-14 14-35 13-25l-3 11-5 19-6 21c-2 10-3 13-1 13a497 497 0 0 1 21-68l-3-2-4-2c-4-1-5-1-6 1m-290 7a239 239 0 0 0 5 63c1 0 1-1-1-13v-46l-2-10-2 6m69 2c-2 5-1 7 2 2l1-4c0-1-2 0-3 2m240-1-12 40a481 481 0 0 1-2 8l1 3c1 0 2-1 5-11 2-8 9-28 13-36v-4c-2-3-4-2-5 0m-90 16-2 25a11400 11400 0 0 1-7 69 313 313 0 0 1 5-29c7-41 9-76 5-79l-1 14m96-1c-6 18-5 24 1 9l5-10c3-4 4-7 1-9l-2-2-5 12m-119-5c1 3 0 5-3 8l-5 4a147 147 0 0 1-25 21l-7 5-6 5-21 19a299 299 0 0 0-80 103c-2 3-1-1 2-7l3-9c2-6 8-21 11-25l9-16 2-5 3-8 5-8 6-8 6-6 5-5 5-10c4-10 11-17 17-17 7-2 10-4 12-9l3-6 2-4 4-5c5-6 8-8 15-7 5 0 7 0 15-3l13-6c7-3 8-4 9-1m-654 2 2 4c3 4 27 29 32 32 9 7 19 19 26 29l9 13 6 9 12 21c8 12 10 12 5 0l-6-11-5-10c-2-6-3-8-6-9l-7-9a452 452 0 0 0-68-69m465 6v19l1 14c1 0 2-2 3-16v-19c-1-6-3-4-4 2m332-4-1 4c1 1 4 0 4-2 1-2-1-3-3-2m-574 2 2 10 4 14 3 11c0 3 1 5 2 5v-7l-3-14c-3-12-5-20-7-21l-1 2m560 5a259 259 0 0 1-14 32l-5 12c-5 12-5 17 0 8 1-4 4-8 5-9l2-6 2-7c4-7 8-15 8-18l4-10c3-7 4-9 2-9-1 0-3 3-4 7m19-5-1 5-4 14c-4 10-5 11-3 11 1 0 3-3 4-7 4-8 7-13 10-15 2-2 3-6 0-8h-6m-862 4c-1 3 24 26 28 25 3-2 1-3-11-12-4-3-5-6-6-8-2-6-9-9-11-5m871 3-15 34-9 19c0 4 10-6 13-13a191 191 0 0 1 11-20l3-7c3-8 3-13-1-14l-2 1m-21 4c-2 4-7 16-7 19h1c2-2 10-22 10-23l-4 4m-556 0 1 7 1 6 2 4-1-16c-1-5-3-5-3-1m208 2a3100 3100 0 0 0 4 23 4014 4014 0 0 0-4-13l-3-12c0-3 2-2 3 2m153-2-10 11c-2 1-2 1-1-1 1-3 9-11 10-11l1 1m-121 3c-3 13-3 27 0 27l1-2c1-4 3-23 2-25 0-3-3-2-3 0m-228 6 1 8 1 10c0 4 6 23 8 24 2 0 1-5-2-21-4-19-7-27-8-21m-59 2 28 14 1-1-5-5-10-3-14-5m511 1c-3 6-4 11-4 18l-3 21a843 843 0 0 0-5 55 553 553 0 0 1 9-62l4-29-1-3m-207 1-1 7a348 348 0 0 0-13 66l-1 11-2 32c-4 4-3-26 2-52l3-19a190 190 0 0 1 9-43c1-3 3-4 3-2m15 5h-1c0-2 1-3 2-3l-1 3m-333-1v2l2-2h-2m362 0v4c1 0 3-2 3-4h-3m456 3v3c1 1 2 0 3-4 1-3-1-3-3 1m-1019-1c0 2 7 11 13 15a207 207 0 0 1 22 18l6 4 8 7 14 12c10 8 16 12 19 12l8 6c6 7 8 8 8 5s-16-17-24-21l-6-6c-5-5-12-11-14-11-1 0-14-9-16-12l-21-17-9-7c-5-5-8-7-8-5m286 3c-1 2 1 5 2 4l-1-3c0-2-1-2-1-1m179 2 1 3 2 7c1 2 3 6 3 10s2 10 4 14c3 7 3 8 3 16l-1 20a492 492 0 0 0-5 20c0-8-1-9-3-3l-4 17c-2 2-6 1-9-1l-18-18c-5-6-5-9-1-8 5 0 7-3 14-25l4-12 3-10 1-11 3-14c1-7 2-9 3-5m-196 5 1 3c2 3 3 1 2-2 0-3-3-4-3-1m18 0 1 1 1-1-1-1-1 1m-71 3 2 1 1-1-1-1-2 1m12 3 7 3 12 6 9 4 6 3c3 2 6 3 6 1 0-1-2-3-5-3l-6-3-10-5-6-2-12-5-1 1m190 4-3 9a700 700 0 0 1-12 43l2-1a140 140 0 0 0 8-21c1-2 4-11 6-23l1-12s-2 2-2 5m328 1-1 4-1 7a223 223 0 0 0-22 139c0 14-1 17-3 11a312 312 0 0 1 1-71 406 406 0 0 0-6 94c-1 2-1 2-2-1a560 560 0 0 1-2-94l-1 3c-3 20-3 30-3 57v27c-1-3-4-20-5-34l-3-13v18c2 28 3 36 5 41 3 5 4 8 1 14-2 6-1 13 2 24 1 7 2 11 1 13-1 6 1 6 12-3 2-2 2-2 1-5v-12l6-27c1-1 2 12 2 18-1 7 1 8 3 2l4-10c2-6 4-21 6-44a440 440 0 0 1 5-43 1075 1075 0 0 1-7 25c-2 9-4 20-4 29l-2 13-2 5-1 2-1-6c1-6 1-6-2-7l-2-4 1-10c1-1 1-1 1 1l1 8a968 968 0 0 1 15-92c5-23 16-61 20-69 3-5 4-10 2-10-3 1-7 8-9 14l-11 44a1081 1081 0 0 0-19 100 305 305 0 0 1 4-57 355 355 0 0 1 4-31 592 592 0 0 1 16-72c0-2-3-1-4 2m-840 0c0 2 5 5 9 7 5 1 7 0 5-3-1-3-14-7-14-4m316 1c0 2 1 3 2 1v-1h-2m554 1h1v-2l-1 2m-885 0-1 1-1-1v-1l1 1m1081 1-2 1-1-1 2-1v1m-735 3 1 1v-1l-1-1v1m-312 2c-1 1 1 3 3 2 2 0 1-3-1-3l-2 1m388 5c0 8 2 19 3 21h2v-11c-2-11-3-15-5-16v6m-67-3 2 2 31 14v-3l-15-7-7-3c-7-3-11-4-11-3m104 8 1 4c2 3 1 5-1 3-2-3-4-12-3-13 0-1 3 3 3 6m-415-4v3c1 2 9 9 15 11l7 7c1 3 4 5 5 5 2 1 4-1 4-5 0-3-1-4-4-5l-6-2-5-4c-1-4-11-11-13-11l-3 1m553 13a3051 3051 0 0 0-1 16l-1 11a320 320 0 0 0-5 30l-1-8 2-11 3-31c1-19 1-20 3-20v13m81-10-2 2 1-3c2-3 3-2 1 1m201 11c-8 25-16 56-15 54a412 412 0 0 0 19-66l-4 12m16-10c0 3 1 4 2 2v-2h-2m-539 2 9 4a525 525 0 0 1 30 12c1-1 1-1-1-3-3-2-34-14-37-14-2 0-2 0-1 1m-58 3 11 5c3 0-1-4-6-4l-3-1h-2m107 5c0 3 0 4 2 4l1-3c-1-5-3-5-3-1m142 16-5 10c-2 0-2-2 0-7 3-6 5-8 5-3m358 7-11 29c0 2 0 2 2 1l3-6 3-8 2-4 3-6c4-6 6-16 4-16l-6 10m-827-8-1 3c0 5 33 40 40 42l5 1c2 2 3 2 14 6a1159 1159 0 0 1 25 10c5 4 8 1 4-3a110 110 0 0 0-37-16l-7-2c-5-2-10-5-14-10l-6-7-11-15c-6-9-9-12-12-9m587 8c-1 1-1 1 0 0l1-2-1 2m217 10a561 561 0 0 0-8 36l8-25 5-21c-1-2-2 0-5 10m-417-6c2 2 25 5 45 6 19 0 21 0 24 2l10 7c8 5 11 8 9 10 0 1-7 2-15 2-15 1-19 2-28 6-8 5-11 5-20 2l-14-5c-12-5-16-6-17-5-2 2 0 4 7 6l11 5 6 3 5 2c4 2 15 2 18 0 15-8 26-12 34-11 19 3 25 5 26 10 0 2 1 4 3 5 4 2 14 12 26 24s14 13 33 14c11 0 13 0 16 2l10 3h6l-8-3c-9-5-13-6-29-7l-17-1-5-5a96 96 0 0 0-24-25c-3-2-4-7-2-8 3-1 25 1 28 2l9 5 8 5 7 8c6 9 8 9 28 10l17 1 7 2c5 0 6 2 6 5l2 6c2 2 2 2 1 3-2 3-1 5 4 5l7 4 6 4 4 4c2 3 4 5 14 11 6 3 9 5 12 10 7 8 14 14 18 15 2 0 3 1 4 4l5 10 4 7 2 6c4 5 4 12 1 19-2 6-2 19 0 30v32c-1 3-2 5-8 11l-8 6-7 5a192 192 0 0 1-18 16l-4 5c-5 6-14 10-25 11l-16 2c-6 1-7 0-3-5 3-2 4-2 11-2 15 0 24-3 24-7 0-2 0-2-6-1l-14 2c-9 0-11 0-15 3-17 8-21 10-24 10l-4 2h-24c-22 2-23 2-28-1-4-3-6-3-14-3l-12 1c-2 2-2 2-6 1s-12-2-14 0c-3 2-16 5-21 5l-14 1c-8 1-10 2-13 5l-4 5c1 3 11 2 11-1s4-5 9-5l9-1c4-2 5-1 1 4-7 7-4 7 6 0 4-4 15-9 19-10 2-1 3-1 3 1 1 2 3 3 9 1l11-2c6-1 7-1 9 1s7 3 24 4h53c4 0 7 0 14-3 7-2 10-2 21-2 12-1 13-1 18-3l6-5a710 710 0 0 1 48-45l3-6v-14l-2-19c0-5 0-5 3-8l5-4 6 11c0 3 6 13 10 18l4 7a1565 1565 0 0 0 13 26l1 7v13c-1 9-4 16-12 30l-5 9c-1 4-4 9-6 10l-6 5c-4 3-8 5-22 9l-11 6c-7 4-14 14-15 23-2 9-6 19-13 23-10 9-15 12-18 12l-14 3-15 4c-3 0-7 4-16 12-10 11-12 13-14 18l-6 12c-5 7-9 8-21 4-6-1-10-2-12-1-5 1-14 6-18 9-8 7-20 10-23 5-4-4-16-14-20-15-5-2-6-1-8 7-3 8-4 8-10 4l-4-3h-13c-17 0-21-1-30-10l-9-7-8-14-3-5-4-10c-2-10-1-19 2-28l3-11c1-4 2-8 4-10 2-3 2-5 2-10s1-7 2-7l1 1c1 2 12 9 14 9 3 0 2-1-5-8l-7-6c0-1 2 0 12 7 8 6 11 7 11 5l-9-7c-5-3-18-14-17-15 1-2 2-1 7 4a176 176 0 0 0 19 15c10 8 14 10 14 7l-13-10a397 397 0 0 1-18-15c0-2 4 0 10 5a155 155 0 0 0 19 14l2 2c2 0 11 8 11 9h-2c-4-1-2 2 2 4l6 4c2 2 5 3 5 1l10 4c14 7 12 6 20 4 9-3 9-5 1-9s-11-5-10-3l2 1c2 0 8 6 6 7-2 2-8 1-14-2a182 182 0 0 1-32-20l-13-11-5-4c-4-3-5-5-1-4l4 2 6 3 21 10c2 2 6 3 9 4a768 768 0 0 1 25 5l4-1-4-1-15-5c-12-2-15-3-20-7-3-3-15-8-18-8l-6-3-6-3c-2 0-2 0-1-2h3l10 3c7 2 9 2 12 1 6-2 21-1 34 1a3169 3169 0 0 0 34 4c18 1 32 1 40-1l33-5c15 0 18-1 14-3-6-3-35 0-51 5l-8 2-19-1c-19-2-30-3-36-5-7-2-23-3-35-3l-17-1c-4-2-20-3-20-1-1 1 0 5 2 5v1l-3-2-2-1-1-2c0-4-2-5-6-4-7 2-15 0-10-2l4-3c0-2 2-4 5-6l14-23c1-3 3-5 3-3l-1 3-6 13-2 4-2 6c-1 3 0 3 2 4 4 3 20 6 23 6 8-1 2-7-7-8-8-1-10-4-10-10 1-7 20-40 23-40v3l-1 2h1l5-2 6-2 8-2 10-3 7-2c2 0 27-12 35-17l13-10 14-10a302 302 0 0 0 34-27l17-13c0-2-3 0-22 14a148 148 0 0 0-23 18l-9 6-21 17c-3 3-19 11-28 14-1 0-1-1 2-4 7-7 4-8-6-2-4 2-9 5-13 5-8 2-13 5-18 10-4 3-6 4-6 2l-1-1c-2 0 3-11 7-14 3-3 1-3-4 0s-6 4-13 16c-3 7-6 9-6 7l2-5c4-7 2-8-3-2-4 5-5 5-5 2 0-4 2-7 5-10 4-2 13-12 17-18 5-7 11-9 24-10h10v2c0 3-1 4-17 11l-5 3c-1 2-2 2 8 0l12-2h8v-4c0-3 0-4 2-4s6-3 6-4-1-2-3-2l-4-4c-2-3-2-3-8-2l-8 1c-5 1-4-1 0-4 3-2 6-5 7-8 4-7 4-9 0-10-3 0-5 2-5 5l-3 4-3 3-8 9c-8 7-10 8-10 4l-1-3c-2-1-11 3-15 7l-6 3c-2 0-1-3 1-5l4-5c2-3 11-8 22-12 6-2 10-5 8-7l-9 1c-8 2-17 8-21 13-3 3-5 3-5-1 0-6-1-10-4-11l-2-1 20-14c3-1 4-4 1-4l-9 2c-8 3-10 4-10 2s6-9 10-14l6-8 14-14c4-3 6-6 8-11a190 190 0 0 1 6-13l7-15 12-26c0-2-1-2-3-1-2 3-13 25-15 32-3 8-11 27-13 28l-18 1c-15 0-16 0-22 2-6 3-13 10-18 18l-5 4-4-6c-5-9-12-17-20-24-11-10-12-11-10-21 3-16 3-20 1-33a417 417 0 0 0-10-43c-2-12-4-20-6-23-2-2-2-3-1-5l9-3h12c5 1 6 0 5-2-2-3-8-4-18-2-4 0-5 1-6 3-2 4-6 3-12-3-7-6-8-7-17-8l-11-2-3-2 13-6 11-2c7-1 8-1 20 1l15 2c3 0 11-2 18-5 3-1 8-1 11 1m348 0v4l1-2c0-3 0-3-1-2m-439 2-1 1-1-1v-1l2 1m-173 16c-8 6-18 25-18 33 0 4 0 5-6 11-4 4-9 7-13 9-11 4-14 7-18 15l-4 9c0 2 1 4 3 3 2 0 6-7 8-11l4-4c5-2 22-14 26-18l6-10 2-7 1-4c1-6 4-11 8-16 6-5 10-12 9-13-1-2-4-1-8 3m774 2c-5 6-13 22-13 23l2-1 3-3 1-3 3-6c9-13 12-21 4-10m-164-3 1 2 1-1-1-2-1 1m230 6-1 1-1-1 1-1 1 1m-6 5-10 8c-4 2 0-3 8-9 4-3 6-3 2 1m-770 2c-1 1 1 7 3 8 3 2 3-1 1-5-1-4-3-5-4-3m775 3c-5 5-11 9-11 8l14-12-3 4m-970 0c0 3 3 8 5 9 2 0 3 2 6 10a104 104 0 0 0 24 41 386 386 0 0 1 26 33l-3 5c-4 4-6 9-6 14l-1 8c-2 6-1 20 1 24 1 2 1 15-2 22-2 9 1 19 4 11l5-24-2-10c-1-6-1-17 1-23l2-7 7-16c6-10 6-11 6-18 0-9 0-10-2-10s-3 2-4 10c-1 9-2 8-9-3a175 175 0 0 0-18-26l-7-6c-5-3-10-11-10-15l-3-10c-2-6-4-8-9-14-8-7-11-9-11-5m183-1v4a302 302 0 0 1 3 6c1 3 5 4 6 2l-2-7c-2-4-4-6-5-6l-2 1m768 8-2 1 2-3v2m-775 0c-2 1-1 4 1 8 3 7 7 5 4-3-2-5-4-7-5-5m642 3v2l1-2v-2l-1 2m130 0 4 1c3 0 4 1 1 3l-21 26c0 2 2 1 4-2l12-13c3-2-2 8-8 18-5 7-7 12-13 24l-7 13c-4 7-6 9-9 17-1 3-7 10-22 25-19 19-22 21-35 30a210 210 0 0 1-69 32l-1-4c0-4 0-4 5-6a159 159 0 0 0 20-8 39 39 0 0 0 11-6l5-3 10-5a211 211 0 0 0 30-20 380 380 0 0 0 49-55l-2 2a416 416 0 0 1-111 86l-14 6a210 210 0 0 0 19-13 185 185 0 0 1 20-11l12-8a398 398 0 0 0 77-72l10-16c5-6 7-9 5-8l-14 16-7 9-3 3-11 12a12713 12713 0 0 0-23 22 277 277 0 0 1-60 45 497 497 0 0 1-33 18c-1-1 9-7 26-18l9-6 9-6a138 138 0 0 0 13-9 439 439 0 0 0 108-116l-9 9-4 3c2-4 14-16 16-16l1 1m-160 8 1 1 1-1-1-2-1 2m-619 1 1 3c2 0 2-2 1-4-2-1-2-1-2 1m789-1-2 1v-1h2m-72 2-1 2c1 1 3-1 3-3s-2-1-2 1m-788 0c1 2 3 2 3 1l-2-2-1 1m58 0c-1 3 6 17 9 17s3-4 0-10c-5-8-7-10-9-7m-9 11c1 6 7 15 10 15 3-1 4-4 1-8a277 277 0 0 1-5-8c-4-6-6-6-6 1m761-2c-2 4-4 5-4 3l6-6-2 4m-100 2c-2 7-4 12-2 12 1 0 7-16 5-16l-3 4m87 0c-2 2-3 1-1-2 1-2 2-2 2-1l-1 3m-16 0-2 4c1 1 1 1 3-2l2-4c0-2-2-1-3 2m44 4a304 304 0 0 0-16 21c-4 6-20 22-27 28l-19 17c-18 15-31 25-37 28l-11 8c-7 7-17 15-17 13 0 0 1-2 3-2l17-18 6-6a618 618 0 0 0 40-29 259 259 0 0 0 59-60l3-3-1 3m-23 5a324 324 0 0 0-20 26c-4 6-23 24-24 24s0-2 3-5c2-3 6-6 7-9l9-10 20-23c6-9 7-10 8-9l-3 6m-13 1c-4 6-8 9-5 3 3-4 8-10 9-9l-4 6m-158 4c0 3 0 3-1 2v-5l1 3m62-1h1v-2l-1 2m-547 1 1 3h3l-2-5-2 2m-112 0c-1 2-1 3 1 7l6 9c4 6 7 7 8 1 0-3 0-3-3-5s-4-3-5-6c-2-7-4-9-7-6m142 2 2 5 3 18a256 256 0 0 0 7 36l3 23a956 956 0 0 1 2 11l3 11 3-1-3-20-5-26c-5-38-7-48-10-54-3-5-5-6-5-3m528 2c-1 3 0 4 1 3v-5l-1 2m-350 4-4 11-3 14c-2 7-2 7-1 9 2 2 2 2 5-10l4-12c3-6 4-16 2-16l-3 4m-10 0a2070 2070 0 0 0-14 53c-3 16 0 24 3 9a1567 1567 0 0 1 14-63c0-3-2-2-3 1m347 0c0 3 0 5 2 4v-7l-2 3m-194 1c-1 2-1 2 2 3s15 0 15-1l-1-1a338 338 0 0 0-16-1m-470 5c0 3 9 15 12 15 2-1 2-3-4-11-5-8-8-9-8-4m745 4-9 9 2-3 5-6c4-5 5-4 2 0m-401 2-3 8c0 3 0 3 1 2 4-3 8-15 5-15l-3 5m30 3c-5 9-6 11-4 11s10-15 10-17l-1-1-5 7m-272-3v5l3 3c3 0 4-1 4-5s-4-6-7-3m24 0 1 8 3 15a296 296 0 0 0 9 45 906 906 0 0 0 6 34c3 17 11 39 17 49 5 7 1 5-9-6-8-8-11-11-14-18l-6-11-4-5-4-8a32166 32166 0 0 1-13-21l-3-10a370 370 0 0 0-27-54c-3-4-6-4-6-1s6 13 9 17c2 1 5 7 8 14a349 349 0 0 0 37 70c9 17 11 20 20 30 17 20 43 44 46 42l-6-9c-2 0-10-9-17-18-8-11-12-18-12-24l-8-20-4-15-2-12-2-6-2-15-4-19a4777 4777 0 0 0-2-17 2455 2455 0 0 1-3-18c-1-7-5-17-6-18l-2 1m260 3-3 4-5 9-5 9-2 4c-2 2-3 5-1 5 1 0 7-7 7-9l4-7c10-14 12-23 5-15m-97-1c-3 7-5 27-4 27 2 0 3-5 4-13l2-12-1-3-1 1m65 0-1 2c0 2 0 2 1 1l1-2-1-1m-358 3 1 4 8 9c2 0 1-6-2-10-4-5-6-6-7-3m96 3c0 3 3 6 5 6s1-6-1-7c-3-3-4-2-4 1m303 0-17 29c0 2 3 0 5-4l4-7c4-3 13-18 12-19 0-2-2-1-4 1m205 4a661 661 0 0 0 9 81v8l-2-2-2-2v4l1 5c1 2 0 8-1 8-2 0-9-28-10-40 0-11-1-16-3-14l-1 11c1 10 1 10-1 9-2-4-3-10-3-25 0-9 0-16 2-21l2-13c1-9 6-14 9-9m-198 3-3 5-1 1-2 4-1 4 2-2 3-3c1-1 7-10 7-12s-2-1-5 3m331-3-2 3-2 2 1-3 3-2m-741 4c-1 3 6 11 9 11s3-3-2-8c-5-4-6-5-7-3m303 0v7c1 0 2-6 1-7h-1m-24 3-2 14c-2 16-2 16 0 17a147 147 0 0 0 4-31c-1-2-1-2-2 0m318 4a103 103 0 0 0-7 32c-2 3-1-16 1-22l2-9c0-4 3-8 4-6v5m-179-2-14 19c0 2 9-7 14-13 6-7 5-13 0-6m315 1h-1c0-1 1-2 2-1l-1 1m-88 4v10l-1 12v2l-1-2v-18c0-6 1-7 2-4m-656 1c-2 2 0 5 4 9a289 289 0 0 1 25 25c6 3 7 4 11 9 3 5 13 14 19 19l13 12 11 11c2 0 8 6 13 11a202 202 0 0 0 34 28 117 117 0 0 0 31 20l5 2c0-2-11-9-20-14l-15-12-17-14-12-11c-7-7-11-10-15-12l-13-13-10-8-9-8-13-16-4-3-5-3-3-3-12-13-11-12-5-5-2 1m430 9c-14 17-21 27-20 29 1 1 4-2 15-15 13-15 15-18 15-21 1-5-2-3-10 7m-349-5c1 2 3 5 5 4v-3c-1-4-5-4-5-1m199 0-2 8 1 7c2 0 3-2 3-9 0-5-1-8-2-6m129 2-4 5c-2 4-3 5-1 4 2 0 9-9 9-11s-2-1-4 2m-342 2c-3 2 2 9 5 8 2-1 2-1 1-4-2-4-5-6-6-4m203 0 2 4v-5l-2 1m-273 2c-1 3 2 7 10 15 9 9 13 11 14 7l-9-10-9-10-4-4-2 2m793 3v4c1 0 3-2 3-4h-3m-342 9c-7 7-10 11-8 11l17-17c0-3-3-1-9 6m-39-2c-2 2-2 4 0 3 2 0 4-4 4-6 0-1-2 0-4 3m110-2-12 12c0 2 1 1 9-4 5-3 7-5 7-7s-1-3-4-1m-460 2c0 2 1 4 3 5 2 0 2 0 2-3-1-3-4-5-5-2m375 2-3 4c0 2 2 1 4-2l3-4 1-1c0-2-2-1-5 3m214-1v9l-1 9c1 5 0 6-2 3-1-3-2-21-1-23s2-1 4 2m134 0-9 9-10 9a171 171 0 0 1-33 23l-9 5a189 189 0 0 1-33 15c-3 1-2 3 0 3a296 296 0 0 0 68-36c5-3 32-28 32-30s-1-1-6 2m-789 0v5c-3 0-3 2 0 7s10 10 12 10c3 0 3-2 1-4l-5-5c-3-4-3-5-2-6 1-2 1-3-1-5-2-3-4-4-5-2m454 15a1092 1092 0 0 1-23 24c-2 6 0 5 31-26 8-8 11-12 8-12l-16 14m82-11c-1 1 0 1 1 1l1-1-1-1-1 1m12 2-18 14c0 2 3 1 11-5l10-5c1 0 4-3 4-5s-4-1-7 1m-275 3 6 6c6 7 14 20 17 27l5 11c2 3 2 8 1 13-2 6 4 6 12 0l10-6c1 1-3 5-6 7l-4 4c-1 2-7 6-10 6-2 0-2 0-2 3 1 3 1 5-1 8-2 4-4 5-4 3-1-10-4-17-10-21-4-2-5-3-8-3-2-1-3-2-5-7-4-9-4-10 3-6 3 1 5 3 6 5l4 7 7 6c2 3 6 4 6 2l-6-7c-6-7-11-14-15-23a924 924 0 0 0-4-10l-2-8-2-7c-3-5-4-12-2-12l4 2m-264 0 6 6c5 6 8 7 8 4 0-2-4-7-8-9-3-2-6-3-6-1m424 1c-3 2-4 5-2 5 1 0 5-4 5-6l-3 1m-32 8a237 237 0 0 0-21 25c-1 2-8 3-13 2-5 0-12 1-12 4h13c2 3-2 6-15 10-8 3-12 5-13 7-3 3-2 3 1 2l5-1 9-3 11-4c6-1 12-6 15-11l17-23c4-3 12-14 12-16s-2-1-9 8m63 3-19 18c1 2 11-7 25-20 9-8 4-6-6 2m89-5c-7 4-15 11-14 12s7-2 11-5a862 862 0 0 1 7-6c3-2 4-4 2-4l-6 3m-207-1c3 1 3 3-1 6s-13 15-16 19c-5 8-11 14-14 14-4 0-8-3-11-7-2-4-2-6 0-6s3-2 3-5c0-7 11-16 19-18l10-2 6-2 4 1m94 2c-3 3-3 4-1 3 2 0 5-6 4-6l-3 3m-445 1c0 1 4 6 8 8l6 4 5 3c2 0 1-3-4-8-9-9-13-11-15-7m484 3-4 3-6 6a329 329 0 0 0-21 19c0 2 3 1 7-2a406 406 0 0 1 29-27c0-3-1-2-5 1m82 2-7 5-6 5c-4 2-6 5-5 6s23-13 23-15c2-3 0-3-5-1m-544 3 2 2 2-2-2-3c-1 0-2 1-2 3m336 6c-3 7-4 11-3 12 2 1 4-2 6-9 2-8 2-8 0-8l-3 5m132-2a392 392 0 0 0-28 26c1 1 2 0 5-2 5-5 7-5 7-2 1 2 1 2 2 1 2-1 2-2 1-5 0-2 0-3 3-5 7-5 15-13 15-14 0-2-1-1-5 1m74 7c-15 10-19 14-17 15 1 1 6-1 19-9 8-6 13-11 11-12-1-1-1-1-13 6m-305 0c4 6 11 19 11 24v3c-2 0-3-3-6-9l-6-10c-5-5-6-10-4-11 1-1 1-1 5 3m-262-1c-1 1 0 2 1 4 2 2 2 2 1 4s-1 2 2 5c4 3 4 4 1 4-3 1-3 5 0 6l4 2c2 2 5 1 5-1l-2-4c-2-2-2-4-2-6 1-2 1-3-1-5l-2-2h2c3-1 2-4-3-6s-6-2-6-1m621 5 2 4 1 5c0 2-2 3-5 1h-5l-5 2 2-5 2-6c0-4 5-4 8-1m-128 2v1l1-1v-1l-1 1m82 4-5 3-5 3-13 10 12-4 4-4 3-2c2 0 10-6 10-8s-1-1-6 2m-142-1a29 29 0 0 0-2 3h2c3-2 4-4 2-4l-2 1m-14 14-13 12c-5 3-6 5-6 7s2 1 9-5c12-11 21-20 21-22 0-3-4 0-11 8m-175-2 4 12 6 15c4 9 5 16 3 16-3 0-5-3-8-10l-5-9-2-5-3-5-3-5 6-13 2 4m262-2a278 278 0 0 0-29 22c1 1 21-12 27-17l6-6c0-1-1-1-4 1m-251 2 1 1c2 0 13 9 14 11 2 4 5 23 5 27 0 5-2 10-4 12-1 1-2 0-4-3l-2-5-4-18c-6-13-10-24-8-25h2m322 1c-8 4-22 13-22 15l1 1 24-13c2-3 3-5 1-5l-4 2m-68 7-7 5c-5 2-17 12-17 13l23-13c5-4 7-7 5-7l-4 2m-503 3 2 2c2 0 2 0 2-2l-2-2c-2 0-2 0-2 2m677 3-4 3c-4 2-9 3-9 1s2-3 7-3l3-1h3m-722 9c1 9 2 13 6 16l5 7a756 756 0 0 0 5 8c2 2 2 4 2 12-1 8-1 9 1 9 1 0 7-8 7-11 0-5-4-12-10-18l-6-9-2-6-4-10c-3-9-4-8-4 2m550-6-19 13a1269 1269 0 0 0-19 12l16-7 17-9c5-2 9-6 9-8s-3-3-4-1m52 3c-9 5-13 8-12 10s6 0 13-4c8-5 10-7 10-9s-1-1-11 3m-282-1 2 6 2 10c1 8 0 32-3 41l-2 14-2 11-1 12c0 10-1 12-2 12-3 0-4-1-3-8l2-13 3-15c1-9 1-17-1-24-1-7-1-7 1-6 2 0 2 0 3-2 2-5 1-22-1-30l-2-9c0-2 2-1 4 1m52 0c2 1 2 1 2 6-1 6-7 17-14 23l-7 5-2-9c-2-7-2-9-1-11 2-2 4-1 4 2 0 4 2 2 6-4l8-13 4 1m-305 2 2 6c1 3 2 4 5 5l5 1c4 0 21 8 25 10l7 4c3 0 10 3 15 6a56 56 0 0 0 18 7c6 2 7 2 7 1l-6-3-13-7c-4-2-8-5-11-5l-11-5-25-12-12-6c-3-3-6-4-6-2m267 3c4 2 5 5 5 12l1 9c2 5 2 7 1 14-1 6-3 5-3-2-2-15-3-18-5-17l-1 8c1 11-1 6-4-11-2-13-2-14 0-15s1-1 6 2m178-1v1l2-1v-2l-2 2m186-1-4 7 1-7h3m-645 2v6c-2 1-1 4 2 5 5 1 10-2 6-4-2 0-2-1-1-3l-1-4c-1-1-6-2-6 0m227 2c4 7 6 16 6 29 0 11 0 13-2 17l-2 5-3-2c-2-1-4-3-6-7-2-5-2-5-1-13l3-13 1-12c-1-8 0-9 4-4m427-1-6 5c-2 0-1-2 2-5s6-3 4 0m-162 7-22 13-15 8c0 2 3 2 11-2l10-5 5-3 8-5 12-9c0-2-4-1-9 3m57 1-7 4c-2 2-4 4-6 4-2 1-3 4-1 4l17-10c2-2 0-3-3-2m293 3c10 1 17 2 28 5 12 3 11 4-7 5a293 293 0 0 0-57 9c-7 2-8 2-8 1 0-2 5-4 23-10 10-4 13-5 11-6s-10 0-18 3c-10 3-33 15-36 18a317 317 0 0 0-62 26 408 408 0 0 1-27 11l-7 5-8 4-3 1c0-1 7-8 14-13 6-5 3-5-5-1s-12 9-14 14c-1 5-3 8-4 6-2-5 7-29 12-34l5-8c2-5 7-8 19-12l11-4 10-3 22-7c0-2-9-2-11-1l-16 4c-15 2-22 5-30 11-7 5-18 19-22 28-1 2-2 4-6 5l-6 3 10-9 1-2c0-3-2-3-6 1l-4 1c0-1 5-7 11-11 5-3 5-4 0-2l-3 1 1-2c0-3 0-4-3-2-2 1-2 1 0-1 0-2 2-3 2-3l4-2v-2l-5 2c-3 2-4 0-1-3 4-3 3-3 0-2h-3l6-5 6-2 5-1c2 1 4 0 8-3 11-8 16-11 24-11a163 163 0 0 1 44 5l16 2c6 1 7 1 17-2a168 168 0 0 1 62-7m-504 2-3 4c-3 2-8 8-7 9s5-2 7-5c3-4 6-4 4-1s-12 14-17 17-7 7-7 11c1 2 1 2 3 1h2l-5 16a158 158 0 0 0-7 16l-2 5-3 3-2 3c-6 7-4-9 3-32 1-3 3-3 3 1 0 2 2 4 3 1v-16l-3 3c-4 2-8 3-8 1l5-5 7-7c1-6 15-19 24-25h3m-338 4c-1 1-1 2 2 2 2 1 6 0 5-1-1-2-7-2-7-1m698 0c-9 3-12 4-12 6s2 2 7 0l8-4 4-2c1-1 1-1-2-1l-5 1m-379 3-8 7-6 8c-2 5-5 10-6 9-4-2 8-20 17-25 5-3 5-2 3 1m-115 1c1 4 3 6 4 5s-1-7-3-8l-1 3m696 2-40 13-9 5-11 7c-4 1-8 4-9 5l-20 12c-9 4-13 4-24 4-10 0-12 1-12 2 0 3 4 4 14 4 9 0 11 0 18-4l9-3c2 0 1 3-1 5-3 2-12 7-15 7l-9 4a2692 2692 0 0 1-14 9c-4 3-11 8-15 13l-12 11-4 4-15 1c-13 0-17 0-26 2l-14 5c-5 1-8 2-6 0 1-1 16-7 23-8l14-7c6-4 7-7 2-5l-10 4a1677 1677 0 0 1-52 22c1 2 7 1 12-2 6-3 8-3 4 1-7 6-6 6-40 8-5 0-10 1-17 5l-17 8c0-1 5-5 7-5l4-2 9-5c6-2 14-9 10-9l-22 12-10 5c-2 0 6-6 14-10l9-6 21-10 19-11-1-1c-3-1 0-2 11-3a2239 2239 0 0 0 17-3l14-1 10-1 19-2c15 0 17-1 26-7l4-3-10 3c-7 2-12 2-27 3l-23 3h-9c-4-1-4-1-1-1l7-3c5-4 6-6 2-5-10 3-16 7-14 9l-3 1h-5c-1 0 6-6 8-6l1-1 4-3c4-1 5-3 3-3l-4 1-10 6c-5 2-10 4-11 6-3 2-6 3-7 1l5-3c5-3 9-6 9-8s-4 0-21 9l-11 5 2-2c3-3 16-11 32-19a2298 2298 0 0 0 35-16l10-2c6-2 7-2 20-1a110 110 0 0 1 20 3h4c0-3-2-4-6-4l-13-2h-28l7-5a1449 1449 0 0 1 48-17 315 315 0 0 1 93-17c5-2 30-4 28-2m-896 3 4 3c3 2 4 2 4 1 0-2-4-5-6-5l-2 1m532 1c-4 3-5 4-1 4 3 0 6-2 6-3 0-3-1-3-5-1m120 0-3 2a171 171 0 0 0-4 2c-2 0-2 0-1-2 2-3 7-5 8-2m-413 9c0 5 0 6 2 6l3-5c1-3 1-3 3-3 4 0 4 1 3 5-2 5 0 9 4 9 3 0 3-2-1 22l-3 19c0 7-5 7-7-1l-3-5c-1 0-4 5-4 8l-1 1c-1 0-1-3 1-5v-7l-2 3c-1 2-1 2-2 1v-10c2-7 2-10 1-17-1-9 0-24 2-27l3-1 1 7m234-2c-27 14-38 17-64 19a272 272 0 0 0-49 8 5434 5434 0 0 1 39-3c26-2 29-2 35-4l21-8 12-4c10-4 20-10 18-12 0-2-2-1-12 4m-95 0-6 3c-5 2-17 5-18 4-2-1 16-8 22-8 4 0 4 0 2 1m288 0c-2 1-2 1-1 2l3-1c2-2 1-2-2-1m-670 2c0 2 2 4 6 4l6 3 6 1 3-1c0-2-2-3-7-5-10-3-14-4-14-2m279 5 2 6c0 4 2 6 6 3 3-1 3-1 5 1l4 2c2 0 3 1 3 5l-2 9-3 15c0 7-2 12-2 12h-3c-3-1-3-2-3-5a1828 1828 0 0 0 4-24c-3 0-9 13-14 33-2 6-4 8-4 4l-3-5-2-2 2-14a502 502 0 0 0 8-43l2 3m424 1c-5 1-18 10-18 11h5a7525 7525 0 0 1 10-6c11-6 12-9 3-5m-184 3c-4 2-7 5-7 7l1 2 11-9h-5m-519 2c-1 2 2 4 6 5l8 2c6 3 12 4 12 2s-11-7-18-9h-8m178 1 6 4a10553 10553 0 0 1 25 11 883 883 0 0 1-31-15m181 1c-7 3-12 9-8 9l7-4 7-4 1-2c0-1-1-1-7 1m238 3-1 3c1 1 5-1 5-3h-4m88 7c-5 3-6 5-4 5 1 0 10-5 11-7 2-2-1-1-7 2m-675 0 13 6c3 0 2-3-1-4l-6-2h-6m315 3h-1c0-1 1-2 2-1l-1 1m10 1c-6 9-6 13-1 9 4-3 12-6 14-6 3 1 7 0 7-2s0-2-6-2l-7 3c-2 2-4 1-4-3-1-2-1-2-3 2m343 1v1l1-1v-1l-2 1m-81 1 2 1 2-1-2-1-2 1m-586 5c-1 3 6 5 18 7l8 1h3v-3l-5-1-9-2c-8-3-13-4-15-2m221 5-2 2v-3c1-3 3-1 2 1m500-2-6 3c-4 2-4 3 0 3l4 1h4v-1c-2-2-1-3 1-4l2-2h-4m-74 2c0 1-4 4-9 6l-9 6c0 3 2 2 7-1l6-3c4-2 2 2-3 5-5 4-16 9-17 9l7-14c2-4 4-6 5-5l6-2c5-3 7-4 7-1m58-1c-1 1 0 1 1 1l3-1-2-1-3 1m32 0v1l2-1-1-1-2 1m-218 2-9 1c-8 1-10 1-9 3l17-1 3-2-2-1m58 1c-6 1-8 2-8 3l10 1c11-1 15-2 16-4h-18m163 3a226 226 0 0 0-21 9c-7 2-13 5-13 6 0 2 3 1 10-2l11-4a229 229 0 0 0 23-9c2-1 3-4 1-4l-11 4m-50 1c-5 2-8 5-5 5l12-6c0-1-1-1-7 1m66-1-11 5c-10 4-12 6-8 7l5-1a217 217 0 0 1 15-8l5-3h-6m-750 2c1 3 4 5 10 5l6-1c2-2 1-3-6-5-8-2-10-1-10 1m197-1c-7 1-20 5-25 8-6 3-14 9-16 12l-2 3 2 2c4 4 9 5 22 3 11-2 18-4 22-7h-4c-6 0-7 0-7-2a71 71 0 0 1 13-19l-1-1-4 1m502 1c-2 0-2 1-1 1l3-2-2 1m10 1-3 2 1 1 4-2 3-2c0-1-2-1-5 1m-238 2-10 2-19 19c0 1 5 1 11-1 5-1 5-3 1-3-8 0 9-6 26-9a266 266 0 0 1 31-5c1-1-1-1-8-1-9 0-25 2-34 4-13 4-9 0 5-4l7-3c0-1-2-1-10 1m221 0h2v-1l-3 1m-17 2c-1 1 0 1 1 1l1-1-1-1-1 1m-488 1c3 2-2 7-10 8-4 1-6 3-6 4s5 1 9-1l2 1c0 2-3 3-10 3-5 0-6 0-6-2 1-3 7-8 15-12 4-2 4-2 6-1m481 1v3c2 0 5-2 5-3h-5m-117 1c-2 0-1 2 1 2 3 2 23 2 23 1v-2c-1-1-22-2-24-1m89 3c0 1-8 7-15 10l-11 7-7 4-6 4-8 5a166 166 0 0 0-22 15l-3 1 1-2 6-5 7-6 10-7a137 137 0 0 0 21-13l7-4a113 113 0 0 1 15-9h5m-149 4-3 2c0 2 13 2 15 1 2-2-8-4-12-3m-19 2c-9 1-12 2-11 3h6l11-1c8 0 10-1 7-3-2-1-2-1-13 1m66 2v2c2 1 18 3 20 2 3-1 0-3-6-3l-10-1h-4m-822 2c-1 3 2 7 7 11l7 4 2 2c2 2 9 5 12 5s4-1 4-4l-1-5v-5c1-5-1-6-11-6l-14-1c-5-2-6-2-6-1m970 5-5 3-6 3c-5 2-13 6-13 8s3 1 18-6l14-7c-1-2-5-2-8-1m-19 2-7 2-18 10-17 9 5-1a261 261 0 0 0 43-21l-6 1m-21 1-8 5a210 210 0 0 0-31 17l-14 8-8 5-5 3-5 4a745 745 0 0 0-4 2c-4 1 13-12 23-18 4-3 5-6 3-6s-20 11-27 17c-5 5-7 5-7 4 0-2 5-6 7-6l2-1a331 331 0 0 1 51-33l1 1c0 1-2 3-7 5-5 3-9 7-7 8l18-9 16-7 2 1m-121 2c-1 3 1 4 8 4l8-1c2-2 0-3-8-4l-8 1m-312 1-8 1c-7 1-15 3-13 4s16-1 20-2l5-3h-4m9 1c-2 8-9 17-16 25a471 471 0 0 0-39 48c-4 5-3 9 0 7l2-2 3-6 5-8 5-8 10-11c2-4 7-8 9-10 12-11 25-26 27-31l1-4c-1-3-6-2-7 0m-98 0c-4 2-11 6-9 7l15-6 2-2h-2l-5 1m117 4c-8 5-9 6-11 13l-6 24c-3 7-6 20-7 32l-2 13 2 4c1 0 3-9 4-19l5-23 7-23c4-13 5-16 8-16s8-3 10-5c2-4-1-4-10 0m-477 2c2 3-2 2-4-2-2-2-2-2 1-1l3 3m422-1h2c1-1 0-1-1-1l-1 1m-24 2a119 119 0 0 0-32 7c-1 2 3 3 9 1l14-2c8-1 26-6 26-7s-5-1-17 1m286 1c-8 1-12 3-12 6l3 2a993 993 0 0 1 34 6l1-1c-1-2-11-5-18-6-8 0-12-1-12-2 0-2 10-3 24-3 15 0 19-1 16-3-2-1-28-1-36 1m199 4-13 5c-3 1-5 3-3 4l6-1 5-3c3 0 17-7 17-9s-3-1-12 4m-876 0-1 1-4-4 5 3m350-3-15 6-11 5-5 2-23 13c-6 2-20 14-20 17 0 2 2 1 7-3l10-7 8-6 6-2 10-3 10-3a203 203 0 0 0 21-6c3-1 8-5 7-6l-14 4-7 2c-1-1-1-1 10-6l11-7h-5m155 7v6l-3-3c-2-4-4-5-4-2 0 1-3 1-3-1-3-5 1-9 6-7 3 2 4 2 4 7m324-3c-3 3-3 4 0 4s6-3 6-5-4-1-6 1m-170 8c-2 1 0 3 7 4l14 4c13 4 15 2 4-3s-22-7-25-5m-120 1 8 5c2 0-2-4-5-5h-3m-504 3 2 3c5 4 20 17 25 24l19 19c2 0 1-4-3-8-9-12-12-16-19-21l-12-11c-6-8-12-10-12-6m574 2c2 2 11 4 11 3 1-1-8-4-11-4v1m39 2c-1 2 4 5 12 6l12 3c7 2 9 2 9 1s-8-6-12-7a605 605 0 0 1-7-2c-6-2-13-2-14-1m-306 2c-6 3-8 7-3 7 2 0 12-7 12-8 0-2-4-1-9 1m18 0-2 2 7-4c0-1-4 0-5 2m265-1c-1 1 3 3 4 2v-2h-4m-258 7-6 5c-2 0-5 4-5 6s3 1 6-3l5-4c1 0 8-8 7-9 0-2-1-1-7 5m-16-1-6 5v3c2 0 4-1 7-4 5-5 4-7-1-4m287-1c-2 2 0 3 8 6l14 5c5 3 9 3 8 0-2-2-9-6-17-9s-12-4-13-2m-266 8c-6 6-9 10-9 13 0 4 8-2 15-11l4-7c0-2-4 0-10 5m-310-4 9 10a266 266 0 0 1 22 25c9 10 18 22 18 24s-1 1-4-2-5-3-5-1l10 11 1-2 1-2 9 9c8 8 11 11 11 8l-5-7a1729 1729 0 0 1-9-12 7215 7215 0 0 0-10-12c-5-6-9-13-8-14l12 13a372 372 0 0 0 26 31l10 13 4 3 4 1a229 229 0 0 0-28-37c-6-9-26-28-28-28l-1 2c0 2 0 2-4-1l-6-6c-1-3-18-21-22-24l-7-2m566 3-1 2 23 10c4 1 5 0 2-2a61 61 0 0 0-18-9c-1-1-5-2-6-1m-245 5c-10 12-12 14-12 16l1 2c1 1 6-3 11-9l6-8c2-3 2-6 0-6l-6 5m233 1 3 3 7 4 11 6c4 0-4-8-11-11-9-3-10-4-10-2m-225 7c-7 10-9 15-7 15 3 0 15-17 13-19-1-2-1-1-6 4m214-3 3 3 5 4c1 2 10 8 12 8 4 0-1-6-8-10l-7-4c-3-2-5-3-5-1m-80 3 4 6 4 6 1 1c1-1-1-5-4-12-2-3-5-4-5-1m11 0c-1 1-1 2 3 7l3 6c3 8 8 14 8 10 0-11-11-29-14-23m43 0c-1 1 10 14 12 14s1-3-4-9-7-7-8-5m15 0c0 2 9 10 9 9l-3-5c-5-5-6-6-6-4m-28 2c-1 0 0 3 2 5l6 7c4 4 6 5 6 2 0-2-2-5-6-9-6-6-7-7-8-5m-50 2c0 2 6 17 8 19 2 1 2 1 2-3-2-6-3-10-6-14-2-4-4-5-4-2m-94 3-2 6-3 6c-1 2-2 8 0 8 1 0 3-3 3-5l2-6c3-5 4-10 2-10l-2 1m134 0 2 3c2 3 3 1 1-2-1-2-3-3-3-1m-126 4c-2 4-5 18-5 21 0 6 5 4 5-1a4701 4701 0 0 1 2-21c-1-1-1-1-2 1m24 1-1 10c-1 7-1 8 1 9l3-1 3-19c-1-2-5-1-6 1m324 2c-1 2 1 5 7 14a102 102 0 0 1 11 21c3 4 8 24 9 33l2 13 1 26c-1 20-1 24 1 33l3 18a143 143 0 0 1-4 50c-1 6-1 7 2 14a484 484 0 0 0 28 59 312 312 0 0 0 18 37c1 4 3 5 4 2 1-2 0-6-2-6l-4-5a414 414 0 0 0-9-20 802 802 0 0 1-26-56c-4-11-4-12-4-20l1-16c2-13 2-34 1-42-3-17-4-37-4-55l-3-31-2-10c0-10-2-15-7-25a196 196 0 0 1-11-19l-4-8c-4-7-6-9-8-7m-217 2c0 2 3 7 4 5l-2-4c-2-3-2-3-2-1m-79 6c1 5 2 7 3 7v-5c0-6-1-7-2-7l-1 5m-77 1v4c2 0 4-4 3-5 0-2-1-1-3 1m-317 1c0 2 7 11 8 11 2-1 2-4 0-9-2-3-4-4-6-4l-2 2m0 11c0 2 4 7 6 7l1-1-3-7-2-1c-2 0-2 0-2 2m49 9 3 5 9 13 11 13c7 7 14 15 16 20 2 4 5 5 5 3 0-3-10-19-12-20l-5-6-7-9c-4-4-5-7-4-7 1-1 8 8 19 21a227 227 0 0 0 23 27c3-1 1-5-3-9l-7-8c-1-3-5-9-9-12-8-10-12-15-12-17 0-1-9-7-11-7l-1 2c0 2-1 2-7-4-5-6-8-7-8-5m264 6c-1 3 0 8 1 8 2-1 2-10 1-10l-2 2m21 12c-3 4-4 11-3 12 3 3 6-4 5-12v-2l-2 2m-12 1c0 2 0 5 2 6l1-2c2-3-1-7-3-4m-369 5c-4 3-5 22-2 50l2 13v2l-3-3-7-9-21-25-8-6c-13-9-16-8-10 5a188 188 0 0 1 11 21c2 2 4 11 3 11-2 0-5-2-8-5-2-2-3-2-4-1-2 1 0 4 7 10l11 11 14 14c13 13 20 22 21 25 0 1 2 5 5 7l4 5c0 2-7 0-10-2l-6-3-7-2a162 162 0 0 1-49-60l-4-8c-2-2 0-3 3-1l5 2c2 0 1-3-2-5a1174 1174 0 0 1-21-14c-1 1 1 13 4 18a108 108 0 0 1 5 10l6 10c0 2-2 1-4-1l-12-8-12-9c-4-5-11-3-9 3 1 5 12 28 16 33a175 175 0 0 0 50 42l4 3 1 1-2 1c-2 0-3 1-4 3l-3 35c0 12-1 21-4 32-4 13-5 21-4 24 0 2 2 4 3 5 5 2 6 9 5 23 0 9 0 12 2 19l2 12c1 4 3 7 5 6v-11c-2-6-5-33-4-34 2-1 2 1 3 14l2 15 2 6 3 8 5 11a54 54 0 0 0 7 14l5 7c4 5 6 7 8 7l3-1c0-2-5-13-7-13l-1-2-4-7a123 123 0 0 1-20-64c0-13-1-15-2-17-2-1-2-1-1-2l4-3 6-2c3 0 4 0 5-3 2-6 3-29 3-45 0-14-1-19-3-19l-1 14-1 18-2 11c0 8-1 12-4 16-4 6-5-1-2-11l2-10 2-10v-24l-1-8-1-5 3 3c4 4 5 4 5-1-1-4 0-6 6-6h4l-1 14a901 901 0 0 0-2 55c-1-3-3-2-3 1l-1 3c-2 2-1 5 5 10s8 9 8 18a190 190 0 0 0 15 78c1 3 3 8 5 9l4 9 3 8v9c-2 0-2 1-1 3 1 1 0 8-1 8s-4-4-5-8l-1-11c-1-7-4-19-6-22a191 191 0 0 1-15-42c-2-5-2-9-3-17 0-20-3-24-3-6 0 13 1 23 5 34l2 9 7 23 1 4c-1 2-1 3 2 6 4 4 9 20 6 20l-1-1-4-9-4-10c0-2-1-2-3-2s-2 1-2 4c0 1 1 5 3 7l3 5 2 3v2c-1 0-12-14-15-20l-4-6-3-5-2-4-4-8c-5-9-9-12-9-7 0 3 11 25 13 26s1 2-2 3c-2 0-3 1-3 2l4 3c6 2 13 11 17 20l4 8c2 3 5 2 6 0 1-3 3-2 6 4 2 4 5 5 9 3l3-1c2-1 2-2 2-7-1-6 0-8 5-5l3 3 1 1c2 0 1-7-1-8l-5-10c-2-6-5-10-8-13-7-7-5-10 5-6 6 2 8 1 7-3 0-4-3-7-4-7-10 1-15-2-18-13l-4-11-3-9-1-6-1-4-3-18c-1-2 0-5 1-11l1-14c0-6 1-7 3-8l3-3 2-9 2-8 2-4c2-3 2-4 2-7-1-5 0-10 1-9l1 5 2 14c2 11 2 12 0 12-1 0-2 2 0 3l1 11c0 4 3 13 5 16l3 14 2 19c3 21 4 25 6 52a1325 1325 0 0 1 5 147 15370 15370 0 0 1 2 104c-2 0-9-24-12-41a1095 1095 0 0 0-16-77l-7-12-7-11c-4-7-14-18-30-35-15-15-19-20-19-24l4-1c4 1 5 1 4-3-2-4-5-7-8-7-4 0-5 0-6-3-1-2-1-2 2-1 3 2 3 0 0-4-7-9-6-11 2-8 6 2 8 1 5-2s-3-3 2-3c3 0 4 1 7 5 5 5 10 13 10 15s0 2-3-1l-9-9c-2 0-1 2 1 6l3 4 3 4c5 5 3 5-2 0-4-3-5-3-5-2l3 8 7 16c3 8 4 11 6 12 3 1 3 1 7-1 2-1 4-3 4-5 2-5 7-10 11-11l12-3c6-2 11-3 17-3l9-1-1-3h-12l-6 2c-6 0-19 3-24 6l-8 5-5 3c-1 0-4-2-6-5-5-5-6-9-3-9 2 0 5 2 5 4 0 3 2 6 4 6s7-5 7-7c0-4-3-5-5-2-2 2-4 3-4 0l1-6v-5h5c4 1 5 0 6-1 3-3 2-6-3-12l-11-12c-3-6-7-9-10-10-4-2-6-5-12-14l-10-14-6-9c-4-8-6-9-5-3 1 3 1 4-1 4s-2 1-2 3c0 4 8 17 11 18 2 1 3-1 1-4l-2-5 14 18 5 7c2 2 3 4 1 4l-4-3-4-3-2 3-6 3c-2 0-3 1-4 3s-1 2-3 1l-4-4-5-9c-3-3-7-9-9-14l-7-13-4-9-2-7c-2-2-9-29-9-34l2-2c2 0 6-4 6-6h-3c-2 0-2 0-2-3l3-5h2l1 4 2 3c2 1 4 6 6 15l3 12 4 12c3 8 6 13 8 11 1-1 1-2-4-13-3-6-3-9-1-10h1l2 3c1 1 1 1 1-1l-4-10c-2-6-2-7-1-11l5-7c3-3 10-12 12-18 2-3 7-21 9-35 5-20-1-39-17-54l-9-7-3 2c-1 2-1 2 1 4l2 2-2 3c-5 7-5 11 1 31 2 9 2 21-1 26l-2 6c0 4-2 10-3 10l-1-10a107 107 0 0 0-10-38l-4-10-7-11c-4-9-8-14-12-14s-7 4-5 7v4c-2 6-1 11 4 19 3 5 5 10 6 17l4 12 1 18c0 13 0 15-2 22l-3 10-2 6-2 6a129 129 0 0 0 10 36 168 168 0 0 0 8 22c1 3 3 7 8 12 10 12 13 21 8 26-3 3-7 10-7 14 0 3 1 4 7 11l11 9 9 8 14 11a143 143 0 0 1 31 36c6 8 9 12 11 19 0 4 2 10 4 15a132 132 0 0 1 6 27l2 12 2 9 1 16a28289 28289 0 0 1 5 75 49621 49621 0 0 0 10 89c1 1 1 1 3-1 2-3 3-7 1-19a439 439 0 0 1-3-39 372 372 0 0 1 4 40l3 20v7h-3c-5 0-5 2-5 15a1445 1445 0 0 1 3 147c-2 2-1 18 2 23s2 6 0 12c-2 3-2 5-2 8a3094 3094 0 0 0 3 28 223 223 0 0 0 8 70l2 11c0 5 4 18 8 24l6 11c4 7 5 7 15 11 4 2 11 1 18-2l10-3 9-3 8-3 4-6c3-6 3-24 1-35l-4-21-3-13c-5-17-6-18-7-27a144 144 0 0 0-20-59c-2-4-3-6 0-11v-11a356 356 0 0 1-4-47l-3-25a1776 1776 0 0 1 23-325l3-9 3-11 13-35 5-6 8-10 9-11 7-6 17-12c5-3 10-9 11-14 0-3 0-4-3-7l-6-7c-1-3-3-5-7-8-8-4-10-4-10-1 0 2 2 5 7 10 7 5 8 7 8 10v5l-8 7-13 11c-5 5-5 5-8 4l-5-1-5-1-8-3-5-1c-2-2-18-4-29-4l-10-1 9-8c4-3 4-3 6-18l5-19 4-14 1-5 3-7 4-13c3-6 8-33 8-41v-29c-1-5-1-5 2-6 2 0 3 0 4 2 3 4 4 10 3 17a768 768 0 0 0-2 14c-1 11-3 17-6 26a5867 5867 0 0 0-24 82v15l8 2h13c3 3 8 0 9-7l5-10 4-8 1-1c1-1 9-16 10-21l4-9c1-2 3-8 4-17 3-14 5-20 5-15 0 9-6 34-11 47l-5 18-4 11-2 5c0 2 0 2-2 2-5-2-6-2-7 2s0 8 4 11c3 2 5 0 6-9 0-4 2-9 4-14l4-9 3-6a217 217 0 0 0 18-71l2-37c0-26 0-28 2-37 4-12 4-18 1-19h-2a897 897 0 0 0-10 46 97 97 0 0 0-1-10l-1-3c-2 0-2-1-2-6l-1-6a404 404 0 0 1-5 21c-3-13 2-39 9-44 3-3 3-5-1-5-5 0-12 10-14 22l-4 11c-2 3-2 6-2 11 0 6 0 7 3 11l4 7c2 4 2 4 6 4h4l-1 22a129 129 0 0 1-5 40l-7 27c-1 1-2 0-6-1-3-2-10-3-15-4-9-1-10-2-10-3l8-23 4-13 6-20c5-12 6-24 4-37a214 214 0 0 1-3-31c0-9 2-27 4-31 3-5 2-7-5-12l-9-7c-5-5-9-3-12 6s-7 40-6 48c2 13 4 17 10 24l4 5-1 10a254 254 0 0 1-14 74c-3 3-9 24-12 36l-2 8-6 1h-6l-1-11c-1-24-1-24 6-23 12 1 12 1 14-1 4-4 3-5-8-5l-9-1v-9c0-13 2-25 4-38a770 770 0 0 0 7-51 1027 1027 0 0 0 15-90c0-2-1-5-6-9-5-5-6-6-9-5-1 0-4 2-5 5-4 5-9 20-11 30-4 20-5 29-6 41-1 14 0 17 3 21 2 3 2 13 0 18a296 296 0 0 0-7 65l-1 18-1-1-3-1c-2 1-3 0-3-1-1-4-1-5 2-5 3 1 3 0 1-16l-2-17c0-8-1-10-3-7l-1 7v4l-1-4a375 375 0 0 1-8-49c0-1-3 0-4 2s0 7 3 11v5a900 900 0 0 1 12 119 591 591 0 0 1 4 79 1738 1738 0 0 1 2 137c-4 0-5 24-2 27l1 10 3 26c1 7 1 11-1 9l-5-21c-4-19-5-23-4-30a332 332 0 0 0 2-29l1-24-2-34a3758 3758 0 0 0-12-222 623 623 0 0 0-11-77c0-7 0-10-2-13-1-2-2-5-1-7l-5-22-2-10c0-3-1-5-3-7-5-5-5-7-1-9l4-1 1-8c0-9-2-15-5-16l-5-6a904 904 0 0 0-5-9c-2-3-3-12-3-42l-2-23c-1-9-1-25 1-26 2 0 7 5 8 10l4 14a589 589 0 0 1 10 84c-1 11-1 12 1 24l4 14h4c1-2 1-4-1-14-3-16-3-26-2-41v-20c-3-9-5-22-5-25 0-8-5-24-14-45-7-16-10-19-15-15m388 6c-2 7-2 9 1 9 2 0 2 0 3-8 0-9-2-9-4-1m-249-3 7 6-3-4c-2-3-4-4-4-2m-81 11 5 5-2-4c-3-3-5-4-3-1m92 2a407 407 0 0 1 6 10l1-1-7-11v2m252-1-1 2h1l1-2h-1m415 1c0 3 8 19 13 27l5 12c2 8 5 15 9 20 2 4 7 21 9 38a74 74 0 0 0 4 15c0 2 2 13 5 21l4 27a422 422 0 0 0 12 84c1 0 2-1 2-6l-2-15-5-37a2297 2297 0 0 0-9-64l-4-22a3766 3766 0 0 0-3-14l-5-17a391 391 0 0 1-18-45l-8-17c-3-6-5-9-8-9l-1 2m-408 1c-2 3-1 7 1 7 2 1 3 0 3-3 0-6-2-8-4-4m11 4c-3 4-2 6 1 6 2 1 3 0 3-3 0-6-1-7-4-3m10 1c-2 5-1 6 1 6s3-1 3-4c0-4-3-6-4-2m-465 9c9 7 10 9 12 12l8 14c7 10 8 12 6 12s-3 3-1 5c2 1 7 14 6 14l-6-5a4753 4753 0 0 0-10-9c-5-5-6-7-4-8 1-1 1-2-1-5l-4-8-6-12c-4-7-5-12-3-12l3 2m110 3 2 4c5 7 8 8 5 2-3-5-6-8-7-6m627 12c-1 0 3 9 8 17l7 11 6 11 7 12 4 7 10 16 3 7 4 7c0 2 2 4 4 6l4 6 2 4c3 3 0-5-10-23a515 515 0 0 0-49-82m-197 5-2 8-5 14c-2 9-5 12-4 5 3-18 7-28 10-28l1 1m-18 1c4 1 5 2 4 3l-6 20-1 4c-2 2-4 7-4 12l-11 28-6 15-4 10a177 177 0 0 1-9 23c-6 12-9 22-9 26l-2 8c-2 2-3 6-4 9-1 6-4 12-6 12l-1-14a486 486 0 0 0-10-61c-4-7-4-8-7-7h-2v-15a199 199 0 0 1 9-54c1-5 3-9 4-9l2 1 7 3 8-1c1-1 5-3 9-3l10-2 10-3 11-4c2-2 2-2 8-1m27 5c0 2 2 3 4 1h4a474 474 0 0 1-14 34v-4l2-11 1-8c-2-2-3 0-5 7-5 15-5 6 0-10l3-10c2-2 4-1 5 1m-420 3 7 12c3 3 2-2 0-6-3-5-7-8-7-6m432 13-6 15c-3 10-6 9-3-1 2-10 7-23 10-26 2-2 3-2 3 0l-4 12m-129-12-1 1-1-1v-1l2 1m7 1h-1l-1-1h1l1 1m58-1-1 3c0 2 1 4 4 6a234 234 0 0 1 12 10c3 0 2-3 0-4-2 0-10-11-12-14 0-2-2-3-3-1m78 0 1 2-9 14-2 4c-2 2-1-2 1-9 4-11 5-13 9-11m-129 1-1 1-1-1 1-1 1 1m-492 4 5 4 9 7 10 9 7 9c8 11 21 24 28 28l20 10c7 3 5 4-5 2a77 77 0 0 1-28-12c-2 0-18-11-19-13l-7-8a84 84 0 0 1-19-23l-7-17 6 4m639-3-2 3c-2 2-2 2-3 1 0-2-2-1-7 4l-6 4 8-11c2-2 3-2 6-2l4 1m-173 10c0 9 1 16 3 17h2v-13l1-11 1 6-1 6 1 5c0 2 0 3 2 2l1-4 2-10 1 4c0 4 0 6 2 5s2-2 2-5c0-4 1-7 3-7v54c0 15-2 21-6 22s-7 4-7 8l-1 4-1-1-3-4-3-4-2-15a334 334 0 0 1 3-59m-435 6-3-2h2l1 2m259 1c0 3 13 20 26 36 5 5 10 16 10 19s3 8 5 10l3 3 4 7 6 8 7 9c10 9 20 26 28 46 3 8 5 10 5 6 0-3-7-22-12-31-7-12-6-11-16-22a146 146 0 0 1-18-22c-3-4-5-9-6-15-1-7-1-7-13-21a609 609 0 0 1-29-33m168 4v-2c0-2 1-2 1-1l-1 3m-422 4h-2l-1-4 1 1 2 3m422 13-1 21c0 12 0 16-1 15s-1-41 1-45v-2l1 2v9m-413-1 10 11c7 7 4 6-5-3a55 55 0 0 1-10-12l-1-1v-2l6 7m519 15c-1 5-2 7-3 6l1-7a271 271 0 0 0 4-8l-2 9m21-1c-2 10-2 10-3 7-1-1 0-4 1-8 3-6 4-6 2 1m-9 2c-1 4-3 5-3 1 0-2 3-6 4-6l-1 5m20-2c0 3-4 7-4 6l5-9-1 3m-530 7-1 1-1-1v-1l2 1m525 3-6 15c-7 16-20 50-24 64a657 657 0 0 1-28 78 2330 2330 0 0 1-16 49l-3 8-3 4c-2 0-3 2-3 3l-2 4-1 5v7a2000 2000 0 0 0-3 14c0 5-2 11-3 13l-1 9-3 13c-2 6-2 11-3 23 0 16-1 27-5 41-3 13-4 22-5 33a497 497 0 0 1-9 66 2221 2221 0 0 1-7 49l-2 24v18l-4 2-5 4-4 4a1094 1094 0 0 0-14 43c-1 7-2 22 0 20l3-13a211 211 0 0 1 14-47c2-2 1 4-1 10-9 30-12 46-8 46l1-4 2-8 4-15c3-17 9-31 12-31 2 0 0 8-3 14l-2 6-2 9-3 13-3 10c-1 6 0 11 3 10v4l-2 8a236 236 0 0 0-19 66 13672 13672 0 0 1-8 57c0 8-1 10-7 16-4 5-8 5-12 2l-2-2 1-12a246 246 0 0 1 5-32l2-10 1-11a206 206 0 0 1 13-53l2-8 5-29c2-17 4-26 7-35 4-14 5-17 3-19-3-1-4-14-2-26l2-17 6-51a27782 27782 0 0 0 29-164c0-2 2-3 3-3l3-1 2-15 7-41c4-10 5-15 5-20s0-5 2-5c5 2 5 2 6-1l-3-7-3-4 2-2c2-1 2-2 1-4l-5-6c-4-4-4-5-1-9l4-8c1-7 4-16 11-31a315 315 0 0 0 22-59l3-9a553 553 0 0 1 24-58l-2 10c-3 7-2 10 0 6l7-13 5-10-1 4-6 15a398 398 0 0 1-9 29c2 1 4-2 11-19a193 193 0 0 1 8-18l8-15a390 390 0 0 1-19 50l-2 9c-3 8-2 10 1 3l4-11 3-6c0-3 5-15 10-26a698 698 0 0 0 12-22m-470 3c-3 9-4 12-3 14s3 2 3 0c0-3 2-4 4-4 2 1 2 2 1 4v2l2-1c2-2 2-2 4 0s6 15 7 22l3 9c2 10 3 45 0 37l-3-14a208 208 0 0 0-7-37c-1-5-4-10-6-10v13l5 11c3 4 4 8 5 15l1 12c2 5 0 14-3 17-2 3-3 6 0 7l1 16 2 18 2 4 1-3 1-17-1-14 3-1c5-2 5-5 5-27 0-18 0-20-2-25l-3-14-2-11-3-10c-2-7-10-17-13-17-1 0-3 1-4 4m58 4 5 5c0 2-2 17-5 26-2 7-5 19-6 32l-2 10-2-15-1-7c-2-1-2 0-3 3-1 4-1 15 2 41l-1 14-7 35a687 687 0 0 0-1 94c1 2 1 2 5-1 5-4 6-4 6-1s-1 5-5 6l-4 2c-3 2-4 1-5-2l-2-4c-2 0-3 3-2 10l1 6 16-1h20l11 3 10 4 4 3 2 3c1 2 1 2-3 6-10 9-18 23-23 41a1069 1069 0 0 1-12 41c-4 16-7 28-8 27v-13a542 542 0 0 0 3-19c2-2 2-2 1-3l-2-3h1c0 2 3 1 3-1a444 444 0 0 0 7-41 265 265 0 0 0 8-34c1-5 0-6-2-3l-3 6-2 8-1 5-1 5c-2 3-4 18-6 38l-2 13h-1v-11a534 534 0 0 0 3-31 824 824 0 0 0 8-35l-4 7a463 463 0 0 1-4 15l-3 11a407 407 0 0 1-4 32l-1 16a419 419 0 0 0-4 41l-1 3v-4c0-3-2-6-3-4a952 952 0 0 1 2-94l2-11c1-5-2-3-3 2-7 20-7 22-6 85a474 474 0 0 1-3-23 7517 7517 0 0 1-6-104l-2-14v-2l5 2 6 3a423 423 0 0 1 1-98c0-7 3-22 6-30 2-7 2-8 1-12-1-1-3-8-3-14-2-11-2-13-1-22l6-30c4-16 4-16 7-18l4-2 4 3m384 2-1 1v-2c1-2 2-1 1 1m87 5c11 11 25 25 30 27l9 9 8 12c3 2 6 7 7 9l8 10a7942 7942 0 0 1 26 27 148 148 0 0 0 33 31 193 193 0 0 0 22 19l16 8c1 0 8 8 8 10l3 1c3-1 3-1-2 3-6 3-8 6-5 7l8-1a407 407 0 0 1 24-9 228 228 0 0 1 32-13c5-3 16-7 24-9l12-3a261 261 0 0 1 94-2l-7 1a981 981 0 0 1-34 11 563 563 0 0 1-10 4l-6 3-5 2-13 8 7-1 13-5a439 439 0 0 1 70-19c10 0-1 3-14 5a640 640 0 0 0-59 21l19-4-23 10c-26 9-34 12-45 20l-13 8-10 7a455 455 0 0 1-45 32l-11 11-3 5c1 1 11-6 18-12l12-9 11-9 9-7 15-10 5-4 14-8c3-3 8-6 16-8l14-6a349 349 0 0 1 80-25l-17 12c-20 14-27 20-37 31-10 12-12 15-8 15 2 0 4-2 4-5s2-5 4-5a219 219 0 0 1 72-48c7-1 25-2 25 0l-8 1c-6 0-7 0-7 2 0 1 2 2 5 2l5 1 1 34a159 159 0 0 0 5 58l-3-3c-1-2-3-3-3-2l-2 16a349 349 0 0 0 11 97 189 189 0 0 1-17-73l-3-32-6-47a290 290 0 0 0-5-41c-2-8-6-8-5 0a1520 1520 0 0 0 10 75c1 13 4 39 7 50 1 6-5 4-15-6a84 84 0 0 1-14-29l-1-11a300 300 0 0 0-11-69c-2 0-2 5 0 7a2275 2275 0 0 0 10 79v2l-3-3c-3-2-4-3-8-3-3 0-4-1-8-4l-5-6-5-8c-3-5-6-11-6-15-1-6-7-20-10-20h-2c-1 1 0 4 3 11l4 10-8-2-9-3-5 4-5 5c-2 0-2 1-2 2h22c7 3 9 5 13 12 4 8 14 21 19 24l8 3c6 0 11 4 14 10 4 8 6 10 10 14 11 8 13 10 10 13v4l2 10 10 36c4 9 7 15 12 21l6 6v20c-1 16-1 22-3 29-2 6-2 11-2 21l-1 13-11-17c-5-7-6-13-4-25 5-25 5-29 2-55-1-12-2-14-3-14v15c1 5 2 10 1 12v15a115 115 0 0 1-3 28h-5v7c0 6 0 8 2 11l2 5 4 7c7 11 11 21 15 31 3 11 5 15 7 14 1 0 1-6-1-13-1-7 3-1 5 8 4 12 4 13 0 10-3-2-5-3-5-1l2 12c1 6 3 15 3 24 1 10 1 17 3 23 3 11 2 13-5 10-2-2-3-2-3-1-1 3-4-1-5-5l-4-8c-2-3-2-5-3-11a462 462 0 0 0-12-84 365 365 0 0 1-13-36 892 892 0 0 1-39-97 822 822 0 0 0-53-99c-2 0-8 4-8 5l3 5 3 6 5 16 5 17c0 2 14 46 16 48 3 5-1-17-6-34a388 388 0 0 1-11-35l-9-22h1a863 863 0 0 1 82 178c3 10 3 11 9 22l2 5c-1 1-6-4-6-5l-8-14-18-26c-4-5-12-19-12-22l2-1c2-1 1-3-5-20-9-21-10-24-9-27l2-4 1-3-16-30c-3-5-4 0-1 6l6 12 4 9-1 6c-2 5-2 6-1 11 2 5 2 6 1 6l-2-3c-1-4-4-7-4-6-1 1 2 9 5 18l5 17 9 23a378 378 0 0 1 22 54 614 614 0 0 1 29 77l4 11v5c-2 0-3-2-11-12a386 386 0 0 1-36-52l-7-11-3-5-4-6a531 531 0 0 0-21-37l-5-12-9-25c-7-24-16-44-26-57l-14-22-8-17-5-4c-4 0-5 6-2 11 2 1 5 6 7 10l8 13a159 159 0 0 1 13 18l5 8 6 10c2 3 6 14 10 30l4 14a838 838 0 0 1 19 53l8 18a731 731 0 0 1 31 66l9 19 4 11 6 13 7 15 2 5 3 9 3 12c1 3 2 8 4 10 4 7 5 9 6 19 1 15 0 19-2 22-2 2-2 4-2 13l1 14v17a555 555 0 0 0-3 63l-1 15 3 8c4 11 5 12 15 12 24-2 24-2 37-13s19-14 22-10c1 3 6 3 7 0 2-3 1-10-1-11s-3-4-1-10l4-48a645 645 0 0 1 5-76l1-11a271 271 0 0 1 4-49l3-21c1-7 2-10 1-12l-2-3v-2c4-4 6-13 9-32l1-10 2-14 6-25a662 662 0 0 1 41-135c4-7 6-15 6-18 0-4-3-14-5-16-2-3-10-6-16-7-5-1-7 0-12 1-9 3-20 9-31 16l-6 2c-3 0-6 3-5 7l-2 7a440 440 0 0 1-9 47 1496 1496 0 0 0-16 108c2 0 1 8-3 27l-1 2c-2 0-3 1-4 9l-1 7-1-11c1-12 0-14-5-21-4-5-4-7-2-25a425 425 0 0 0 4-38 208 208 0 0 0 5-29 1165 1165 0 0 1 21-80c-2 0-12 22-13 33l-5 12c-6 13-7 16-10 36l-2 19c-2 10-4 28-4 38 0 9-2 20-3 20l-3-1c-2-1-2-2-1-5 2-4 3-10 4-28l3-41c2-12 1-14-4-17-5-2-5-4-2-14 2-7 2-16 0-25-2-8-2-9 0-13l4-9 3-9c1-3 0-10-2-12-3-3-3-5 1-10 7-10 10-16 11-22 2-6 2-12 1-14s0-4 2-4l7-6c4-4 6-7 7-11l4-7 2-7c1-3 2-5 6-8 13-11 19-21 26-40l4-11 4-6c0-2 2-4 4-6 10-7 21-23 29-41 4-9 6-12 6-8a303 303 0 0 1-12 49l-1 6a299 299 0 0 0-10 29l-3 10-15 36a886 886 0 0 1-68 110c-3 11-3 12-2 21 2 10 3 12 2 3-1-16-1-16 1-18l2-4c0-2 7-13 12-18l4-6 10-13a130 130 0 0 0 15-21 867 867 0 0 0 29-53c1-5 4-15 6-17l4-11c7-18 8-19 11-19 1 1 5 0 11-3 10-5 14-9 15-14s2-6 8-8c14-7 15-7 19-13 3-4 5-4 11-3 7 2 6 2 10-1s9-4 25-6l18-5 10-4c3 0 2 3-1 4a155 155 0 0 1-23 9 202 202 0 0 0-25 8c-6 1-7 3-12 11l-5 7-4 5-5 6-7 5c-2 2-6 4-11 5-6 2-7 3-11 8a393 393 0 0 1-44 46l-4 8a218 218 0 0 0-22 36l-6 11-6 10c-3 4-4 8-2 8l7-9 4-5a1237 1237 0 0 0 47-51c7-4 16-14 17-17 0-2 3-4 6-4s12-6 20-13l23-18 12-8a269 269 0 0 1 30-23l21-14 8-6 24-26c6-6 6-7 6-10-1-9-7-10-16-4l-8 6-3 2-24 10c0 1-5 2-11 2-9 1-10 1-21 6l-13 6-4-2c-1-2-3-3-5-3-4 0-5 1-12 8a58 58 0 0 0-10 11c-2 2-3 2-7 2-4-1-5-1-6 1l-2 4-4 8c-3 6-4 7-10 9l-7 2 4-13 4-14 4-11a139 139 0 0 0 8-25l6-23c2-13 3-17 6-22 3-7 2-9-3-9-2 0-3 0-6 7l-8 13-12 21c-17 33-17 33-20 35l-8 6c-7 6-7 7-14 31l-4 11a776 776 0 0 0-6 8l-16 16c-6 4-8 7-10 16-2 8-7 19-9 19-5 0-6-57-2-82 3-16 4-32 3-36-1-3-1-3 1-5 1-1 2-4 2-9l2-9c1-2 3 1 3 4l2 7 4 15 3 12c2 3 4 28 4 43 1 16 1 18 4 14a151 151 0 0 0-2-69l-4-15c-5-22-7-26-12-29s-5-2-9 7l-4 13-4 36c-8 40-11 60-10 78 0 12 2 27 5 37 3 9 2 12-4 25-6 12-7 15-4 26 1 8 0 13-3 13h-1a409 409 0 0 1-4-47 1491 1491 0 0 0 4 7c0 2 2 1 4-2 1-2 1-3-1-10a123 123 0 0 1-6-26c-2-12-3-33-2-38 1-3 0-9-1-18v-24c2 0 3 5 3 17l1 14c1 2 4 3 4 0v-15l-2-12v-7h4c3 0 4-1 4-4l-4-7c-4-3-5-5-8-14-6-18-14-66-11-70 1-2 9 21 15 46a520 520 0 0 0 11 36c1 0 2-7 1-10l-3-14-5-18-4-16a294 294 0 0 0-19-56c-2-2-5 0-7 3v9l3 19a5591 5591 0 0 1 11 72c-1 2-3 2-11 1l-11-3-12-2-13-2a198 198 0 0 0-51-3c-15 0-18 0-51 8a347 347 0 0 0-77 26c0-2 0-3-3-4l-6-4a203 203 0 0 0-27-20 7781 7781 0 0 1-14-11l-12-9a549 549 0 0 1-70-75 277 277 0 0 0-46-43l4 6m-98-2-2 5c-1 5-3 7-3 4l4-10 1 1m-449 4h-1l-1-1h1l1 1m69 1c-2 5-2 13-1 13 1 1 4-5 5-11l-1-5-3 3m-115 14c1 16 1 23-2 31l-4 17c-3 17-3 17-4 15s0-23 2-29c2-5 2-22 1-30-1-7-1-8 1-12 3-8 4-7 6 8m435-6c-1 1-5-3-5-4s1-1 2 1l3 3m-405 0 3 4 1 1c2 0 7 5 7 8 3 14 3 16 2 17l-2 7-3 21c-2 4-3 4-2-1a333 333 0 0 0-3-48l-2 13-1 14a251 251 0 0 0-5 28 983 983 0 0 0-1-60c0-6 1-7 6-4m371 0c0 1-2 4-4 4-1 0-2-4 0-5 1-2 3-1 4 1m87 7-12 35a708 708 0 0 0-24 71l-2-1a533 533 0 0 0 25-77l2-6 3-9 2-6 1-5 2-4 2-4c1-2 1-2 2-1 1 0 1 3-1 7m-338 0 1 2c2-2 4-1 6 2v8l-3 10c-3 6-4 15-3 24l2 9-1 2-3-4c-2-5-2-5-4-4-2 0-2 1-2 2l1 8-5-11c-2-9-2-12-2-20l2-13 2-11c1-9 2-11 5-9l4 5m283-2 6 6c2 3 5 12 5 17l2 18c2 21 2 45-1 57 0 4-2 3-1-2l-1-3c-1 0-2 1-3 5l-2 9-2 4 1-19a293 293 0 0 0-6-69l-7-19c-3-6-3-7 1-7l8 3m-474 0-1 7c0 4 0 5-1 4v-12c2-2 3-1 2 1m-31 8 8 17c5 9 7 14 7 18a6761 6761 0 0 0 2 29c-2 8-2 9-3 4l-2-5-3 8c-3 9-5 11-4 4l2-13c1-8 1-20-1-29-2-7-6-19-11-26l-3-10 1-5c1-2 6 4 7 8m47 1 4 7 1 12c0 11 0 14-2 20l-4 10-1 4-4 8-4 9c0 2-8 11-10 11l-4-2c-2-2-3-3-3-6 0-5 2-7 7-6h4l6-12c4-9 4-11 4-17l-1-7c-1-2-1-1-4 9l-3 11-2 2v-2c3-12 4-21 4-50 0-4 0-5 3-7l3-1 6 7m444 4c7 6 6 5 9 27 2 21 2 74 0 74l-2-3c-1-3-1-3-2-1l1 7a388 388 0 0 1 2 7c1 4 2 5 5 5 1 0 3-1 5-5 1-3 3-5 4-5 2 0 1 3-3 12l-4 13c-3 8-6 6-6-5 0-4 0-5-3-7l-7-9a216 216 0 0 0-10-16c-2-3-2-3 0-5v-10l-3-8c-2-3-7-34-7-47 0-6 0-8 3-10l2-5c0-3 5-14 7-16 1-2 2-2 2 0l7 7m-308-4c-2 5-3 17-1 17 1-1 5-14 5-19 0-3-2-2-4 2m291 0c0 3-2 8-3 8v-9c2-2 3-1 3 1m-434 1-1 3 3 14-1-16-1-1m179 0c-3 4-5 18-3 18l4-13c1-6 1-7-1-5m349 0-2 5-4 10c-5 15-9 27-8 28l2-2a296 296 0 0 0 11-32c3-7 4-12 1-9m-103 14v42a134 134 0 0 1-3-35c1-14 1-17 3-15v8m-333 0 2 12c0 8 1 9 4 5 2-2 2-2 3-1 2 2 3 1 3-2-2-12-4-16-5-16v3l-1 3-1-2-1-3-2-3-1-2-1 6m261-3 2 1v-1l-2-2v2m-81 1 3 6 6 7c4 6 46 48 48 48 3 0-9-13-18-20l-4-4a254 254 0 0 0-29-30 6688 6688 0 0 1-6-7m256 8c-2 2-7 19-6 20 1 2 2 0 5-8 3-9 4-15 1-12m-354 2v13c2 1 2 0 3-7 0-7-1-10-3-6m-176 1 1 2v-3c-1-1-1-1-1 1m435 8 3 18-1-26-1-2-1 10m-36-3c-1 2 0 3 2 3l1-2c0-3-2-4-3-1m-92 1c0 2 2 3 2 3 2 0-1-4-3-5-1 0-1 1 1 2m-202 5v8c-1 2-1 2-2 1-1-2-6-3-6-1 0 3 4 6 9 6l5-1c0-4-5-15-6-13m418 10-1 2c1 1 2-1 2-2h-1m-11 7c-4 8-5 16-2 13l5-17-3 4m-180 5c10 11 20 19 24 22 6 4 8 6 8 9 0 1-1 1-4-1l-4-3-4-3-11-10a58 58 0 0 1-12-12c-4-4-5-7-2-7l5 5m-213-2-1 1-1-1 1-2 1 2m327 5c0 2 0 3 1 2v-4c-1-1-1 0-1 2m0 10c0 7 2 18 3 17v-3l-1-15c0-6-2-5-2 1m-418 1c1 4 0 12-1 10-2-3-3-9-2-12s3-3 3 2m192-1-2 1-3-1c-1-1 0-1 2-1l3 1m236 5c0 2 0 2 1 1v-4l-1 3m-121 2c0 1 3 4 6 5 2 0 2 0 0-3-3-3-6-4-6-2m-281 3v4l1-2c0-3 0-3-1-2m319 0 9 8c2 0 1-2-3-5-4-4-6-5-6-3m-146 8c0 3 0 3-1 2v-5l1 3m-265 11 1 11c1 10 1 10-1 8l-1-4v-1l-1-16 2 2m460 7 2 2 1-1-2-2-1 1m856 3-3 1 1-2c2-2 4-1 2 1m-1055 7-1 6c-1-1 0-8 1-11v5m186-4c2 1 2 2 1 2l-3-2c-3-3-1-3 2 0m20-1c0 2 5 8 6 7 2-1 1-3-2-5-3-3-4-4-4-2m497 0c-7 0-9 1-24 9-18 9-17 8-29 16-8 5-10 7-8 7l14-6c6-5 17-10 31-15l12-5 9-3 5-2c-1-2-1-2-10-1m15 3a660 660 0 0 1-27 10l-9 6a91 91 0 0 0-16 10c1 1 9-2 14-5a200 200 0 0 1 51-19c15-4 17-6 5-6-5 0-9 1-18 4m331-1a126 126 0 0 1-23 22c-14 11-17 14-26 19l-12 9c-11 9-18 15-20 15l-6 5-12 10a335 335 0 0 0-59 55c-1-1 3-9 8-16l9-13c4-7 7-11 14-15 5-3 25-24 28-29 3-4 5-6 7-6 3-1 14-7 18-11l5-3c4 0 18-14 18-18 2-5 5-9 9-9 15-3 24-6 34-13 5-3 8-4 8-2m-841 7 9 9 3 1c0-3-3-8-5-8l-3-1c-1-2-3-2-4-1m-49 6c5 3 7 6 5 6l-12-9c0-2 1-1 7 3m634-3-11 2c-6 1-4 0 3-2h8m-1048 10-1-1-1-2h1l1 3m461-2 8 7c9 6 7 6-3 0-9-5-12-9-8-9l3 2m529 3h-3l2-1c2 0 2 0 0 1m-984 8v4l-3-8c0-2 0-2 1-1l2 5m455-3c3 3 6 6 4 6s-10-6-10-7c0-3 0-2 6 1m-24 2c4 2 9 6 8 7 0 1-5-1-8-5-4-3-3-4 0-2m409 6v2l1-1c1-2 0-3-1-1m-8 7c-8 9-13 15-15 20-3 7-1 7 4 0a152 152 0 0 1 14-19c5-6 3-6-3-1m-380-4-1 2-1-1 1-1h1m374 2-6 6c-4 4-7 10-7 12s5-2 7-6l7-8 3-5c-1-2-3-1-4 1m38 2c-1 2 1 2 2 1v-2l-2 1m-399 2 7 7 5 4 4-1h15c2 0 2 0 2 4l-2 5c-2 2-4 9-5 20l-7 54c-2 10 0-20 2-38l4-26v-8h-3l-9-4-7-3-5-3c-4-3-4-4-4-8v-5l3 2m12 1c0 2-1 2-3 2l-1-2h4m-325 5 1 9c0 5 0 6-2 6l-3 3c-1 6-2 3-3-11v-11h3c3 0 4 1 4 4m649-2a299 299 0 0 0-35 52c-7 11-6 15 0 6l7-10a40242 40242 0 0 0 21-35l2-3c4-3 8-10 7-11 0-1-1-1-2 1m-790 2h-1l-1-1h1l1 1m191 3c0 3 2 3 9 4 6 1 8 1 9 3 2 2 2 2-1 7-3 6-3 8 0 5s3-1 0 7c-4 7-6 9-16 15-6 5-8 4-9-2-1-5-1-18 1-25 1-8 7-19 7-14m-187 0 1 4c1 2-1 3-3 0s-1-7 2-4m785 6-5 6-3 5-9 14 1 1 11-12a1272 1272 0 0 1 11-16c0-2-4-1-6 2m151 1-7 5a205 205 0 0 0-23 18l3-1 10-7c1-1 1-2 12-7 7-4 16-12 13-12l-8 4m-464-2 4 4-2-3-2-1m-9 8c1 2 2 3 3 2 3 0 3 2 2 14a1616 1616 0 0 0-2 20 155 155 0 0 1-4 24c1 5-4 35-5 35l1-15a941 941 0 0 1 5-74l-3-7c1-3 2-2 3 1m-252-1-1 2c-1 1-1 1-1-1l1-2 1 1m578 1c-2 3-3 7-2 8 2 2 5-1 6-5 0-4-1-6-4-3m-742 4 2 4 4 4 4 3 2 5 2 5c-1 1-10-8-13-11l-4-11 3 1m411 14a392 392 0 0 1-8 54 1540 1540 0 0 0 4-56c0-12 1-14 3-9l1 11m-445-9 3 3 6 10c-1 0-12-15-12-17l3 4m781 0-1 2c1 1 3-1 3-3s-2-1-2 1m-292 0-2 8a637 637 0 0 0 2-8m-491 7c6 6 13 17 13 20l-1 2-17-10c-6-3-7-6-6-12 1-4 2-6 4-6l7 6m478-3-2 5-2 4-6 28a285 285 0 0 1-2 20c1 1 1 0 2-5 2-10 3-14 5-17 1-1 3-5 4-12l3-16c2-6 2-8 0-8l-2 1m243 18c-5 7-9 18-4 12l8-15-4 3m154-2c-3 2-4 4-2 4l7-5c0-2-1-1-5 1m-775 0h1l1-1h-1l-1 1m615 28a189 189 0 0 0-10 21c-3 4-9 16-8 17h2l8-15c0-2 1-3 2-3l1-2 2-4 10-18 2-7c2-5 2-6 1-6l-10 17m-12-14c-5 1-8 4-8 7s1 3 4 0l4-2c2 0 5-3 5-5h-5m145 3c-3 2-3 3-1 3s7-3 8-5c0-2-2-1-7 2m49 1a75 75 0 0 0 7 23l5 13c4 11 12 32 14 41a1492 1492 0 0 0 25 73l-10-36a737 737 0 0 0-32-96l-9-18m-187 4-9 16-11 22c-5 9-5 11-3 11a231 231 0 0 0 19-37c4-6 8-15 7-15l-3 3m131-1-7 3c-6 2-8 5-4 5 3 0 14-6 14-8h-3m-690 3-2 7-4 11c-3 7-5 24-5 35l-1 17a464 464 0 0 0-1 44c2-1 3-14 5-43a394 394 0 0 1 9-71h-1m547 6-7 12-5 9c-7 11-11 19-10 20 1 2 4-2 11-15a583 583 0 0 1 11-26m258-2c-1 2 2 24 6 38a493 493 0 0 0 30 76c6 4 8-19 3-35l-2-22c0-23-2-36-4-36-3 0-3 3-2 10l3 24 3 24v14c-3 11-11-3-23-42a219 219 0 0 0-8-24l-2-5-1-11-1-11h-2m-477 3-1 1v-1l1-2v2m326 0-5 3c0 1 9 0 12-2 7-3 1-4-7-1m-117 0c-4 5-27 50-26 51s4-3 9-13a454 454 0 0 1 21-38h-4m-210 8c-1 1-1 0-1-1l1-1v2m196-1-1 2-7 13a384 384 0 0 0-15 24v-2c2-7 5-14 4-15s-3 3-6 11l-6 12-5 11c0 3-2 8-4 11-3 6-2 9 1 6l2-3 8-21c3-6 3-6 4-4l-1 5-1 10c1 0 4-4 8-15 5-13 11-26 13-27 2-2 9-19 8-19l-2 1m155 14a896 896 0 0 0-44 37l-10 5c-8 5-14 7-20 9a558 558 0 0 0-35 8l-6 2c-3 0-5 1-4 2l15-1c13-2 23-4 34-9l7-2 6-2 4-2 15-9 2-1 4-3 16-13 7-6 9-10 5-8-5 3m-171 0-2 6 3-1 2-6c0-3-1-3-3 1m-218 3c-1 5-1 5-1 1l1-4v3m205 6c-1 1-5 7-6 12l-3 6c-1 1-2 5 0 5 2-2 12-22 11-23h-2m-589 1 1 4-1-1-3-4 3 1m1100 4c4 4 6 10 4 13-3 6-17 13-29 15s-13 2-16 1-4-2-5-5c0-3 1-10 3-13l7-4 9-5c5-3 13-5 19-5 4 0 6 0 8 3m-717 1c-1 1-1 0-1-1l1-1v2m193 1-5 11a276 276 0 0 1-8 22l-6 15-3 7-4 10-3 9c0 2 0 2 2 0 3-3 8-12 11-24a197 197 0 0 1 10-25l2-4 7-20c0-2-1-3-3-1m-569 6c3 5 4 8 2 6l-6-11 4 5m629-2v3c1 1 3-2 3-4s-2-1-3 1m-74 8a325 325 0 0 0-12 31c0 3 2 2 4-2a205 205 0 0 1 7-17l4-8 3-9c0-4-3-2-6 5m207 2-4 7 9-9c2-4 0-4-5 2m-654 0-8 34c-3 8-5 18-7 35l-3 17-2 17-6 40a689 689 0 0 0-4 91l-1 8v21c-2 43-2 65-1 76a425 425 0 0 1 2 60l-1-1c-3 0-4 7-3 12l1 14a81 81 0 0 0 2 26v3l-3-2c-5-2-5-3-5-9 1-8-2-24-4-24v18c1 14 1 15-1 18-2 2-4 3-4 0l2-10c1-8 1-11-1-16-1-8-4-16-6-16l2 25c1 4 0 10-2 10l-1-13c-1-12-3-25-5-27-1-1-1-1-2 1v-6l-1-10c-1-2 0-3 1-4 2-2 2-11 0-30-1-8-2-16-1-21l-1-19a785 785 0 0 1-4-78 408 408 0 0 1-7-58l-1-14-2-14a2037 2037 0 0 1-8-98l-2-13v-5l1 6a952 952 0 0 0 10 54 961 961 0 0 1 14 74l3 18 5 35c0 10 1 11 6 11 7-1 7-1 7-28 0-33 2-61 8-87l6-33 8-32a114 114 0 0 0 5-18l5-15 4-14 2-7c1-4 3-6 3-2m435 0a908 908 0 0 1-42 102 248 248 0 0 0-14 27c1 1 5-2 8-7a206 206 0 0 0 36-71 494 494 0 0 1 16-51l-1-2-3 2m-166 17a246 246 0 0 1-5 32 3482 3482 0 0 0-18 111l3-20a266 266 0 0 0 4-30l2-12a2293 2293 0 0 1 6-48 2882 2882 0 0 1 6-48l1-3 1 4v14m-371-11h-1l-1-3c0-2 0-2 1-1l1 4m484-2 7 4c1 3 0 6-1 7-2 1-15-3-18-5-2-3-3-6 0-7 2-1 5-1 12 1m80 3v1h1c0-2-1-2-1-1m-558 12 4 18 3 17v14l-2-16a158 158 0 0 0-7-33l-2-8-1-3 2 3 3 8m1079-1-5 12c-2 8-6 22-7 20l-2-1v6a541 541 0 0 0-19 73l-1 7a174 174 0 0 1-9 37 276 276 0 0 1 7-42l2-9 7-29c0-2 0-3-4-3l-7-1a848 848 0 0 0-17 56l2-13 5-22a235 235 0 0 0 6-51c0-24 1-25 3-29 3-6 13-12 24-14l9-3c9-4 10-3 6 6m-565 1-15 44a355 355 0 0 1-25 55 448 448 0 0 0 44-108l-4 9m-53-4 4 3-1 2-1-1-2-2-1 3-2 7a385 385 0 0 1-35 48l8-15a183 183 0 0 0 19-28c2-1 4-6 4-10l1-7c3-2 2-2 6 0m573 0-2 5h-2l-1-2c0-2 2-5 4-5l1 2m-311 7c-11 5-14 7-15 10l-1 3 5-3 10-5c2 0 11-8 9-8l-8 3m305 29a728 728 0 0 1-11 56l-1 11-3 14a417 417 0 0 1-8 47v7c0 3 0 4 3 4 2 0 2 1 2 5 0 7-4 10-4 3l-1-3c-3 1-5 19-4 22 2 2 4 0 4-5 1-5 2-8 4-7l-1 8v9c2 3 9 7 10 6l4-24 1-9 2-8 1-7 1-6 3-14a1701 1701 0 0 0 4-20c3-13 3-17 6-25 3-9 3-3 0 8l-3 13-6 34-6 34-5 33-3 23c-1 18-5 43-6 45-2 1-6 2-7 1v-3c4-4 7-11 7-21v-10c-2 0-4 6-4 10l-2 6c-2 0-2-6-1-10s1-4-1-6c-1-2-2-2-4-1s-2 2-2 7l2 12 1 6c-1 0-3-1-5-4s-5-4-6-5c-3-2-19-17-19-19s2-1 4 1l7 4c4 1 4 1 6-1l1-7c-1-5-1-5 2-7l3-2v-22c1-22 1-27 4-31l3-11a288 288 0 0 1 6-37 683 683 0 0 1 8-50 1384 1384 0 0 1 14-69l2-4v4l-2 15m-364-16-9 1c-8 0-10 2-9 5 1 4 2 4 6 0 3-2 9-3 9-1l-12 11-8 5-5 5c-2 2-3 5-1 5 1 0 4-2 6-5a146 146 0 0 1 21-18c2 0 7-6 7-8s-2-2-5 0m213 8c9 18 9 19 7 19-1 0-12-24-12-27 0-2 1 0 5 8m190-6v7l2-9-2 2m-378 2-9 9a136 136 0 0 0-21 22c0 2 10-6 12-9 2-4 7-9 13-14 4-3 7-8 6-9l-1 1m-5 19a365 365 0 0 1-100 74c0-2 6-6 8-6l7-6 12-8 6-4 5-4 10-8a337 337 0 0 1 23-21c2-3-1-2-7 3a311 311 0 0 1-25 20 1466 1466 0 0 1-56 39c-9 7-12 9-12 11s2 1 11-5l11-7 1 2-9 8-10 6-1 2 3 1 14-8 11-8c8-4 14-8 18-12l10-7c5-2 13-8 27-19l13-10c7-6 16-14 29-28a981 981 0 0 1 21-25l-20 20m-158-17v3c1 1 3-2 3-4s-2-1-3 1m96 2-3 4c1 1 7-3 7-5s-1-1-4 1m11 1-2 3 7-4c0-2-3-1-5 1m-159 1c-1 2 0 2 1 0v-2l-1 2m151 5c-4 2-9 6-16 13l-10 8c-2 1-8 5-13 11l-16 13c-5 4-5 5-3 5l8-5 8-5 1-2 5-5 12-9a236 236 0 0 1 26-23l1-2-3 1m11 2-3 4 4-3c4-4 3-5-1-1m-30 3-6 6c0 2 2 1 6-2 8-6 8-9 0-4m-136 1-1 5-1 5 3-11-1 1m50 2v2l2-4-2 2m497 6-3 13a395 395 0 0 1-7 33 553 553 0 0 1 10-46m-396 0-4 4c-7 4-25 21-25 23 1 1 4-2 12-9l7-6 13-11v-2l-3 1m250 1 5 16a651 651 0 0 1 12 40 738 738 0 0 0 25 63c2 0-1-8-4-16l-14-37-5-15-4-12a641 641 0 0 0-15-39m160 8a914 914 0 0 1-11 60 316 316 0 0 0-9 53 2584 2584 0 0 1 20-113m-509-3a227 227 0 0 1-12 24c-2 3 1 2 3-1l5-10 7-16-3 3m169-2c-6 4-13 11-13 13l3-2 7-5c5-3 9-8 6-8l-3 2m-119 5c-7 5-12 10-12 11l2 1c2 0 17-13 17-15s-2-1-7 3m-562 10c0 5 0 6-1 4v-13l1 9m502-7c-2 3-2 5-1 5l4-7c0-2-2-1-3 2m55 12a113 113 0 0 1-14 12h3l6-4 17-16c0-2-3 0-12 8m-146-7-5 9a500 500 0 0 0-31 69c-3 0 1-17 4-21 2-1 4-4 4-7a227 227 0 0 1 28-50m542 0c-1 1 2 11 3 10v-10h-3m-902 7c-1 1-1 0-1-2l1-2v4m446-2-2 5-1 1-2 3-1 4-1 3c-1 1-1 1 0 0l7-11c3-7 4-11 0-5m546 0v1l1-1v-2l-1 2m-389 7-6 5c-2 2 2 1 6-1l6-4c2-1 2-3 1-4l-7 4m237 5 5 9 16 27 10 18c1 3 3 7 5 8l6 18 5 29c2 5 2 17 2 25 0 3-1 2-3-1l-2-5-1-4-2-4-5-12a826 826 0 0 0-21-60 978 978 0 0 0-16-41 1774 1774 0 0 1-3-9c-1-2 2-1 4 2m143 6c-1 1-1 1-1-2l1-5c0-1 1-1 1 2l-1 5m-988 1h-1l1-2v2m441 1c-3 2-4 6-3 6 1 1 5-6 5-7l-2 1m36 13c-6 4-8 7-4 7 2 0 12-8 12-9l-1-2c-1-1-3 0-7 4m-477 0c-1 1-1 0-1-1l1-1v2m413 6-4 7-1 2c-2 1-8 12-8 13l5-5c4-4 13-18 13-21 0-2-2-1-5 4m536 0c-1 8-2 10-2 3l2-7v4m-456 3c-5 4-8 7-7 8l13-8c3-4 0-4-6 0m336 4a745 745 0 0 1 11 30 14823 14823 0 0 0-11-30m-833 12v2h-1l-1-2 1-2 1 2m950 3-1 4h-1v-6c2-3 3-1 2 2m-518-2-16 9c-1-1 0-2 2-3l7-4c3-3 8-4 7-2m541 9a402 402 0 0 0-10 64l-1 4c-2 0 0-26 3-42l3-15c1-10 3-17 4-19 2-2 2 2 1 8m-481-1c-4 3-4 4 0 4 3 0 5-1 5-3 1-3-2-3-5-1m456 5-1 3-1-2 1-3 1 2m-50 0v6c3 5 5 2 3-4-2-3-2-3-3-2m-417 2-5 3c-4 3-6 5-4 5 5 0 14-6 14-8h-5m-78 3-19 13c-16 9-18 10-19 9s0-2 3-4a82 82 0 0 0 16-10l3-2 14-7 2 1m-30 3c-1 2-9 9-11 9l-1 1-6 4v-1l1-2 7-5c5-5 10-8 11-8l-1 2m53 0-1 1-1-1 1-1 1 1m-135 3-2 10-1 7c-1-1 1-16 2-19 0-2 1-1 1 2m626 3h-1v-1c0-1 1-1 1 1m-496 1c0 2-4 4-20 12l-8 5-3 1c-2 0 2-4 9-8 17-10 22-13 22-10m481 0 1 4c2 5 4 3 2-3 0-2-3-3-3-1m39 2-1 6v4l2-6c1-6 1-7-1-4m44-1-1 3c-1 1-1 1-1-1l1-3 1 1m-140 16 3 5-7-10c0-2 2 0 4 5m136 4-2 8v-6l2-8c2-6 2-2 0 6m-621-6c1 1-7 6-11 7-3 1-3 1-1-1 1-2 11-7 12-7v1m492 12 6 8 4 6 3 4 12 18 4 7 8 9a663 663 0 0 0 38 44l-7 1h-8l2 4 1 2c0 1-3 1-6-2l-4-1c-2 1-4-2-4-7 0-4-4-10-6-10l-4-4-6-13-10-18-17-33-10-19c0-1 3 1 4 4m125 17c-1 4-2 4-1 0l1-3v3m-979-2-1 4-1 2-1-2c-1-2-1-5 1-5l2 1m288 10c0 2 2 3 3 3 2 0 1 3-2 17l-4 19-2 8v-7c0-9 2-21 4-24 1-3 1-3-1-9-3-9-2-14 2-7m43 4-2 7c-2 2-3 6-3 8-1 2-1 2-2 0-1-3-2-3-4 0l-6 25c0 4-2 9-2 7-1-6 1-17 3-25l3-12c0-3 3-6 7-8 2 0 3-1 3-2l2-1 1 1m646 3c-1 1-2-1-1-3h1v3m-700 39a1314 1314 0 0 1-21 107c-4 20-6 42-6 55 1 9 0 12-2 11-1-1 0-40 1-44a494 494 0 0 0 13-64l1-6 4-15c0-2-1-3-3-1-1 1-1 1-1-1 0-5 3-19 6-26l6-16 2-11v11m-301-5c-1 1-1 0-1-1l1-1v2m0 13v1l-1-1v-1l1 1m996 2v15c1 3 1 3-1 2-2-2-2-3-2-10 1-9 2-11 3-7m-74 15 5 8c3 5 4 8 1 7-1 0-9-14-10-20-1-2-1-2 1 0l3 5m10-4-1 2c1 0 4-1 4-3s-3-1-3 1m2 14c0 1-2 0-2-2h1l1 2m26 8-1 1-1-3c0-2 0-2 1-1l1 3m-6 6-1 2c-1 1-2-2-2-5 0-2 0-2 2-1l1 4m-668 4-2 5 1-4c0-5 1-6 2-6l-1 5m709 4c0 2-2 4-4 4s-2-2-1-8v-4l3 4 2 4m-23 9c-1 12-3 8-2-5v-10l1 5 1 10m14-13c0 1 0 2-1 1l-1-2 1-1 1 2m-40 1c2 1 3 7 1 7l-3-3c-2-6-1-7 2-4m-662 10c-1 5-3 9-3 6l3-11v5m658 5-1 2c-2 0-4-7-3-8 1-2 4 3 4 6m21-3c0 3-1 5-2 5-2 0-2 0-2-4 1-4 2-5 3-5l1 4m29 2-2 11c-1 11-2 12-3 12l1-21c0-2 2-3 3-3l1 1m-712 12c-1 7-1 9-3 8 0-1 1-10 3-14v6m-277 1c-1 1-1 1-1-1 0-3 0-4 1-3v4m959 25c-1 17-2 24-1 33l-2 10c-2 5-2 7-2 13 1 12-1 20-5 16l-1-7 4-38c2-18 6-44 8-47 1-3 1 2-1 20m-7-13-1 7c-1 1-1 0-1-3l1-7 1-2v5m-25 10c0 8-1 9-2 8 0-1 1-17 2-16v8m-925 7-1 10-1-12c0-12 0-13 2-11v13m965-10v24l-1 21c0 10-1 15-2 18l-2 4c-2 0-3-6-3-10a4412 4412 0 0 1 2-13v-13l1-12 3-15 1-9 1 5m18-1c3 3 3 12 0 14v32c0 19-2 36-6 38l-8 10c-1 3-10 10-18 14l-5 3c-2 1-2 1-4-1-3-2-2-7 2-10l2-4c0-2 1-1 3 1 2 4 10 2 18-6 4-3 5-5 5-7l1-6 3-16 1-37 1-21 2-5c0-2 1-1 3 1m-11 6c-1 1-1 0-1-2l1-2v4m-43 30-3 31-3 28c0 10-1 12-2 10v-23c0-9 0-11-3-8-1 2-1 2-1 0l2-3 3-3 2-10a359 359 0 0 0 5-22m12-13-2 7 1-8 1-7v8m-3 23c-1 2-1 2-1-1l1-6 1-3v4l-1 6m-899 7a9603 9603 0 0 0-1 25l-3-4v-10l2-16c0-9 0-10 1-8l1 13m-33 9-1 9c-1 0-4-6-4-10l-1-7c-1-3 0-5 2-2 1 1 1 1 2-1v-2l1 2 1 11m962 7a440 440 0 0 0 0 0m-30-3c-1 2-3 3-3 1l1-5c1-2 1-2 2-1v5m-649 8c-5 5-6 5-9 5-7-1-6-2 3-5l8-5h2l-4 5m646 13c0 8-2 9-2 1l2-9v8m-18-2-1 6c-1 3-1 2-1-3l1-6 1 3m-912 3c1 2-1 8-2 8l-2-10c1-1 4 0 4 2m952-1-1 3-1-3 1-2 1 2m-914 1c3 2 4 4 4 8l3 10 5 13a1045 1045 0 0 0 9 36c2 5 2 6 1 9-2 2-1 15 1 24 2 7 2 12 1 12l-2-8-1-5-2-16-3-14v-2c2-3 2-3 0-7l-5-16c-3-13-7-24-13-32-3-5-5-10-4-12h6m-14 5 6 12c7 9 9 15 14 34l3 9c1 3 2 6 2 15s0 14 2 19a151 151 0 0 1 5 23l1 7c0 4-4 15-5 17l-20 3c-4-1-8-9-14-23-5-17-6-22-6-38a382 382 0 0 0-5-77c1-2 2-2 6-2 3 1 4 1 5-2 3-3 5-2 6 3m904 17c-1 1-2-1-1-2h1v2m53-1c-2 2-3 4 0 5 2 0 6-3 6-5 0-3-3-3-6 0m-980 1c1 2 0 14-1 13l-1-2-1-2-1 5-1 6-1-1c-1-12-1-12 1-14l2-4c0-3 1-4 3-1m922 0c0 1 0 2-1 1l-1-2 1-1 1 2m-921 23c1 7 0 5-1-2v-4l1 6m-2 14c0 4-2 1-2-4l-1-3 1 3 2 4m5-1c0 2 0 2-1 1l-1-4c0-2 0-2 1-1l1 4m-3 10h-1l-1-2h1l1 2m5 7-1 15c0 11-1 9-2-5-1-10-1-12 1-13l1-4c0-2 0-2 1-1v8m1 32 2 10c3 6 5 15 3 15l-3-10-1-2c-1-1-3-8-3-15 0-3 0-4 1-3l1 5m58-4 3 18v9l-3 6c-2 3-4 5-6 4l1-7 2-11c0-3 0-4 2-4 2-1 3-4 0-10v-7l1 2m-48 35-1 2-1-3 1-1 1 2m210 137-6 2c-2 1 1 4 3 4l4 3 1 28c0 26 0 30-4 30l-1 2 5 1h9c5 1 6-1 2-3-4-1-4-4-4-19l1-11 3-4c4-3 9-4 13-1 3 2 4 7 4 20-1 13-1 14-5 15-2 1-3 3 0 3l17 1c2-2 1-3-2-4l-2-2-1-15c-1-17-2-21-6-23-4-1-7-1-13 1-3 1-6 2-7 1l-1-14 1-14-3-1-3-1-5 1m617 1c-3 4-3 8 1 12 2 2 3 2 5 2 3-1 6-5 6-8 0-4-1-5-4-7s-5-1-8 1m228-1c-10 3-16 12-15 21 2 10 6 14 21 19 8 3 11 4 14 7s4 4 4 8c0 9-5 14-16 14-5 0-6-1-10-3-4-3-7-6-10-11-3-6-4-4-5 5 0 11 1 12 5 9 3-1 3-1 9 1 14 4 20 4 26-2 6-5 8-11 8-19-1-10-8-16-20-19l-11-3c-8-3-10-12-5-19 2-5 5-5 13-5 7 1 9 3 15 13l4 3 1-8-1-9-4 1c-3 1-4 1-8-1-5-3-11-3-15-2m-1087 3c-8 4-14 9-17 17-3 5-3 6-3 16 0 9 0 10 3 16 6 11 17 19 28 18h9a1217 1217 0 0 0 35-1c0-1-1-2-4-2l-6-2c-2-1-2-11-1-20v-9h6c7 0 11 2 12 9 1 4 2 5 3 5s2-2 2-13v-16c-1-3-3-2-4 3l-3 6c-3 3-4 3-9 3s-6 0-6-2c-2-3-1-24 0-26l10-1c10 1 12 2 19 9s10 5 7-6c-2-7 0-7-40-7h-35l-6 3m464-2-1 3c0 2 1 2 5 3 4 0 5 1 6 2v48c-1 7-2 8-7 9-4 0-5 1-5 3v3h27l31-1c3-1 5-4 7-12 3-12 0-13-8-4-6 8-10 11-16 12h-11c-8-2-8-2-7-31l1-27c1-2 3-3 9-3 3 0 3-1 3-3v-2l-17-1-17 1m338 0-7 2c-1 1 0 4 2 4l4 2a403 403 0 0 1 2 43c-1 13-2 13-4 15l-3 3 10 1c9 0 11-1 7-3-2-2-3-3-3-8 0-4 3-9 5-7 3 1 11 11 11 12l-2 2-2 2c1 3 21 4 22 2s0-3-4-5-5-3-12-11l-6-9c1-3 11-12 15-13l4-2-10-1c-10 0-12 1-8 3 2 0 3 2 3 3 0 2-14 15-15 14v-39c1-8 0-11-2-11l-7 1m-780 4 7 3c3 3 5 17 5 32-1 21-3 23-16 26-5 1-6 1-11-1-12-4-17-13-17-29 0-10 2-16 6-23 4-5 4-5 11-7 8-2 8-2 15-1m191 8-1 4c0 3-5 11-7 11l-1 2c-1 1 0 1 1 2 2 1 3 2 3 7v16l1 13c2 6 12 8 17 4s3-7-2-5c-3 1-3 1-5-1s-2-3-2-16c0-16 0-18 7-18 5 1 5-2 0-2-6-2-6-2-7-10 0-6 0-8-2-8l-2 1m-394 3c-2 3-3 3-11 3h-9l-1 13-2 16c0 6 1 6 7 7 4 1 6 2 10 6l5 4-1 7c0 7-1 11-6 14-4 2-7 1-13-2l-5-3-2 3c-2 1-2 2-1 4 3 8 16 8 26 1 9-6 13-20 9-30-3-9-7-12-17-13l-5-1-1-7c0-9 1-9 12-9l9-1c2-3 4-12 4-14-1-2-4-1-8 2m-63 2c-8 2-15 8-15 12 0 3 3 2 6-1 4-5 13-5 17 0 2 4 1 11-2 15l-3 4-6 2c-5 3-5 6 0 6 8 1 14 8 14 16 0 4-4 11-7 13-6 3-9 3-15-4l-6-5c-3 0-4 9-1 13 3 2 9 4 16 4s15-4 18-10c4-5 6-15 4-21-1-5-6-10-10-11-3-1-3-3 1-6 9-8 11-17 5-23-3-3-4-4-8-4h-8m94 1-1 3 3 3 3 1v29c-1 3-2 6-4 7-4 4-4 7-1 7l5 2h7l8-1c3 0 5-2 4-4 0-2-1-2-6-1l-6-1 3-4c3-4 3-4 3-19l1-15 3-1c4-1 5-3 3-6l-12-1-13 1m267 7-6 3c-2 3-4 3-4 0s-1-3-8-2c-5 0-6 1-6 2l3 3c2 1 3 2 3 10 1 12 0 24-2 25s-3 4 0 4l9 1c6 0 7 0 7-2l-1-2-3-2c-2-1-2-4-2-14 0-14 1-17 7-19 4-2 8-2 11 2 2 2 2 3 2 14 1 15 0 17-4 19l-2 2c1 2 13 3 16 3 3-1 4-3 2-5-3-1-4-5-4-18 0-15-1-18-6-22-3-3-6-4-12-2m51 0c-3 1-9 4-12 8-4 4-5 8-5 16 1 9 4 14 10 18s10 5 17 3c4-1 6-2 9-6l6-9c6-12-5-30-19-31l-6 1m141 1c-7 2-11 6-14 12-3 8-3 12-2 18 3 7 6 11 12 14 9 5 18 4 23-3 6-6 2-10-4-5-6 6-16 4-19-2-2-4-3-10-2-13 0-2 0-2 14-1h15v-2c2-6-5-17-12-19-5-1-7-1-11 1m300-1-7 3-4 3-2-3v-3h-6l-6 2c-2 1-1 3 2 4 4 1 4 4 4 21-1 11-1 12-3 14-3 2-1 3 8 3 8 0 11-1 7-3-4-1-5-5-5-18 1-13 1-14 5-16 5-3 9-3 12 1 2 2 2 3 2 16 0 14 0 17-4 17-2 0-4 2-2 3l12 1c7 0 10-1 10-2l-4-2c-2-1-3-2-3-5-1-4 0-27 1-27l4-2c4-3 8-2 11 1 2 2 3 3 3 15 0 14 0 17-4 18l-2 2c0 1 2 2 8 2 8 0 10-1 8-4-2-4-3-6-3-19 0-14 0-16-6-20-3-2-5-2-8-2-5 1-6 1-9 5l-3 3-4-3c-5-6-8-6-12-5m-217 1-7 4c-4 3-5 9-2 11s5 0 6-5c0-4 1-4 4-5 6-2 11 1 11 8v9c0 11-1 13-5 15-5 3-9 3-11 0-3-5 1-12 10-14 3-1 3-3-1-3-10 3-18 9-18 15 0 5 1 7 4 9 5 2 10 1 18-4 3-2 3-2 4 0 2 3 6 5 10 5 3 0 7-4 7-8s-2-4-5 0c-2 2-2 2-3 1-2-2-3-12-1-24 0-6-2-12-6-14h-15m155 0c-8 2-13 8-12 13l4 3c3 0 5-2 5-6s2-5 6-5c5 0 8 1 9 5 2 6 0 9-9 11-8 3-15 8-15 12 0 11 9 14 20 7l3-2 4 3c4 4 7 5 10 3s2-5-1-6c-4 0-4-2-4-18 0-15-1-15-3-18-2-2-4-2-9-3l-8 1m130 0-8 5c-4 5-5 9-2 11 2 2 2 2 5 1 2-1 3-2 3-6 0-5 0-5 4-5 4-1 8 1 9 4 3 6 0 11-6 11-5 0-12 4-15 8-5 7-2 15 6 16 2 1 4 0 9-2 6-5 7-5 9-2 4 8 14 7 16-2 0-4-2-6-4-3s-5 3-6-1v-14c1-15 0-18-5-21h-15m88 1c-16 8-20 29-8 40 3 3 5 4 10 5 6 1 11 0 14-2 7-5 9-9 5-11l-4 3c-4 4-8 6-13 5-4 0-10-7-10-13-2-8 1-17 5-21 5-5 10-4 14 3 2 4 4 6 7 4 2-1 3-8 0-10-4-5-15-6-20-3m94-1-6 2c-1 1-1 1 2 3l4 2v12c0 16-1 19-4 20-3 2-3 5 2 6 7 1 14 1 15-1s1-2-1-4c-3-3-4-3-4-12l1-18c1-9 0-11-3-11l-6 1m75 0c-5 0-5 0-5 2s1 3 3 3c4 1 4 2 4 16l-1 16-4 3c-2 1-3 3 0 4l10 1c8 0 9 0 9-2l-3-3c-2-1-3-1-3-6v-15c1-12 2-14 9-15 4 0 5 0 8 3l3 3v14l-2 15-3 1c-2 0-3 1-3 2 0 2 1 3 10 3 10 1 12 1 12-2s-2-4-7-3l-4 2c-2 0 0-6 2-10 4-9 3-24-3-30-2-3-3-3-8-3s-6 0-9 3-4 3-5 0c-2-3-2-3-10-2m-588 1-6 2 3 4c3 3 3 4 3 20 0 10-1 13-5 14-4 0-1 4 3 4l5 1c3 1 12-2 13-4l-3-3-4-2v-9c0-9 2-15 5-18h6c5 0 6-1 6-5 0-6-7-7-12-1l-4 4-1-3c-1-4-3-5-9-4m370 0c-2 0-1 3 1 6 2 2 2 3 2 16s0 14-2 17-2 3 0 3l15 1c4 0 4-3 0-4-3-2-4-3-4-14 0-12 4-19 10-18s9-3 5-6c-2-3-7-2-10 2-4 4-5 5-5 2 0-4-2-6-6-6l-6 1m178 0c-4 1-10 6-11 9v5l3 2c2 0 4-3 4-6 1-5 5-7 10-5 5 1 7 5 5 11v10c0 6 0 6-3 9-6 6-13 4-13-3 0-4 3-7 9-10 5-2 3-2-4 0-6 3-9 4-11 8-3 5-3 9 1 13 4 3 7 3 15-2l5-3 2 2c5 6 11 7 14 2 3-4 2-9-1-6-5 5-6 1-6-16 0-15-1-17-6-20h-13m101 1c-4 2-9 7-9 10 0 2 2 5 4 5s4-2 4-5c0-6 7-8 12-4 3 2 3 3 3 6-1 5 0 5-13 10-11 4-14 11-8 19 3 4 9 4 15 0 5-3 5-3 7-2 2 3 6 6 9 6l5-3c4-3 5-7 2-9-1-1-2-1-4 1-2 3-2 3-3 2-2-1-2-4-2-16l-1-16c-1-3-7-6-12-6l-9 2m146 0c-9 6-13 15-11 28 0 8 0 8 3 10l5 4c4 4 14 5 20 3 5-2 9-7 9-10s-3-4-8 0c-5 3-8 4-13 1-4-2-6-5-6-12l-1-6h13c17 0 16 1 16-3 0-3-4-11-6-13-5-5-14-5-21-2m57-1-4 4c-3 4-4 4-5 0-1-3-1-3-4-3-5 0-9 1-9 2l3 4c2 2 2 3 2 15 0 15 0 17-4 18l-2 2c0 2 5 3 14 3 7 0 8-1 8-3l-3-3-4-1v-9c0-8 0-11 2-15l3-5h6c5 0 6-1 6-3 1-6-3-9-9-6m-1017 4c3 4 5 10 5 18 0 14-8 22-18 17-5-2-8-6-9-13-2-9 2-21 7-24 4-2 12-1 15 2m137 0c3 2 4 4 4 7 0 2-1 2-11 2-6 0-7-1-5-5 2-5 7-6 12-4m836 2c2 2 3 3 3 5s-1 3-6 3c-10 0-12-3-8-8 4-3 8-3 11 0m-595 20-1 7c-2 3-10 6-12 5-2 0-4-4-4-6 0-3 5-8 9-10 7-3 7-2 8 4m130 0c0 6-1 9-6 11s-9 1-10-2c-2-4 1-8 7-11 7-4 8-4 9 2m319 2c0 6-2 9-7 10h-6c-3-3-3-7 0-10s8-5 11-5c2 0 2 1 2 5m-927-3-4 5c-3 5-5 7-11 8l-5 2c-2 2 1 3 11 3 9 0 9 0 10-3 2-3 3-15 1-15h-2m-184 6c-3 3-2 11 0 13 4 4 11 2 13-4 0-4-2-9-4-10-3-2-8-1-9 1m1324 2c-2 1-2 2-2 6 1 8 5 10 11 6 1-1 2-2 2-5 0-8-5-11-11-7m-633 81c-1 1-2 2-2 5 0 5 6 8 10 3 3-2 2-5 0-7s-4-2-8-1m-299 2c-7 3-13 9-16 15-4 8-4 19-1 25 4 11 12 17 22 19 13 3 29-8 33-23 2-6 1-15-1-20s-8-11-14-15c-6-3-18-4-23-1m148 0c-3 4 0 9 5 9a5 5 0 0 0 5-7c-2-4-8-5-10-2m-44 2c-7 2-7 4-3 7l4 4v24c0 22 0 24 2 24l3-1h6c9 2 16-1 20-8 4-9 3-17-3-24-4-4-5-4-9-4-5 1-5 3 0 4s7 5 7 13c0 7-1 11-4 13-4 3-8 3-12 1-3-2-4-5-3-16 0-6 1-7 4-10l2-3h-3c-2 0-2-1-2-13 0-14 0-13-9-11m275 1c0 2 1 3 3 3 8 1 7-1 7 15l-1 23c-1 10-1 11-6 11l-4 1c-1 2 2 3 7 3a275 275 0 0 1 43 0l5-16-1-2c-3-1-5 1-7 6-1 3-3 6-5 7-2 2-3 2-11 2l-10-2v-30l1-17h4l5-1c2-4 0-4-16-5h-14v2m-362 1c9 3 12 10 12 24 0 19-7 28-21 27-7-1-12-4-14-10-3-6-3-22-1-30 4-10 14-15 24-11m206 17-4 2c-1 2-4 1-4-1h-8c-2 2-2 2 0 5s2 4 2 14l-2 12c-3 3 2 6 8 4 4 0 5-2 2-3s-4-17-1-24c2-5 10-7 14-3 2 2 2 3 2 13s0 10-3 13c-4 4-3 5 5 4 8 0 9-1 7-4l-3-13-1-14c-2-4-9-6-14-5m-75 1c-4 1-4 3-1 5s3 3 3 13c0 8 0 11-2 13v4h11c1-1 1-1-1-4-2-2-2-3-2-17v-15h-2l-6 1m104 0c-3 1-4 2-1 4 3 1 3 1 3 13 0 13 0 13-3 14-4 2-2 3 6 4 8 0 10-1 6-3-2-1-3-2-3-5-1-5 1-19 2-22 4-4 14-3 16 2v13c0 10-1 10-3 12-5 2-3 3 5 3 7 0 10-2 6-3-2-1-2-2-2-13 0-12-1-17-6-19-3-2-8-1-12 1-3 2-6 2-6 0s-3-2-8-1m44 0c-3 2-2 4 0 5 3 1 3 2 4 8v12c-1 4-2 5-4 6l-2 3 1 2h7c9 0 12-2 7-5l-2-2v-30h-5l-6 1m28 1c-5 2-7 8-5 13 2 3 3 4 9 6 9 3 11 4 11 8s-1 5-6 6c-4 0-5 0-9-3l-5-4-1 4v4l6 1c16 1 15 1 18-3 3-3 3-4 3-7-1-6-5-9-13-12-5-1-10-5-10-7 0-5 7-6 13-3l6 3c3 1 4-1 1-5-1-2-2-2-8-3l-10 2m-147 1c-5 2-7 4-9 9-6 12 3 27 16 27 6 0 11-2 14-5 2-5-1-7-6-3-4 3-7 3-10 2-4-1-9-6-9-10-1-7-1-6 12-6h14l-2-7c-2-4-4-5-7-7-5-2-10-3-13 0m11 5 2 3c0 2-1 3-7 3-8 0-10-1-9-4 2-5 10-6 14-2m-137 20c-4 5-2 13 4 13 3 0 6-4 6-7 0-4-1-5-4-7-3-1-3-1-6 1m392 0-3 6c0 3 4 6 6 6 3 0 6-3 6-7s-5-7-9-5m138 73c-3 3-2 7 1 9s7 1 9-3v-6c-2-3-8-3-10 0m362-1c-3 0-2 4 1 5l2 2c0 2-3 5-11 13l-13 10c-1 0-2-2-2-6-2-14-1-19 3-20l1-2c-1-2-2-2-8-2-8 0-12 1-13 3-2 2-1 3 3 3l3 1 2 8v26c-2 5-6 10-8 10-3 0-5 1-5 4 0 1 2 2 13 2s12-1 12-3l-3-3-3-3c0-3 6-11 14-18a1490 1490 0 0 0 13-12c6-5 11-9 17-12 4-2 5-3 2-5-1-2-3-2-9-2l-11 1m-813 2c-2 1 0 3 3 3l3 1c1 3-3 13-9 22l-4 11-5 9c-2 3-3 4-6 4-4 0-6 2-5 4 1 1 49 0 51-1 3-1 8-10 6-11l-5 2c-7 5-13 7-22 7-8 0-11-1-11-4l4-11 5-9h6c7 0 8 1 8 7l1 3c2 0 10-19 10-21-1-2-3-1-4 2-2 4-6 6-12 6-4 0-5 0-6-2 0-1 6-15 9-18 1-2 2-2 9-2 7 1 7 1 11 5l5 4c2-1 2-2 1-5-1-8 0-7-22-7l-21 1m201 0-1 4c0 4 4 7 9 4 2-1 3-7 1-9-2-1-8-1-9 1m146-1c-2 1 0 4 2 4 4 0 4 2 2 7a357 357 0 0 0-14 31c-4 8-4 9-7 9s-5 3-3 4h21c3-1 1-4-2-4s-4-2 0-10c4-11 4-11 16-12 17-2 25-8 25-18 0-6-2-8-7-11h-33m29 6c5 4 5 6 2 12-2 4-5 6-11 8-5 1-12 1-14-1-1-1 9-22 11-22 5-2 8-1 12 3m211 14c-9 5-18 17-19 27 0 3 0 4 2 6 4 4 7 4 14 0 9-5 18-18 18-26 0-6-3-10-9-10l-6 3m75-2c-4 1-12 9-17 17-6 9-6 18 0 21 3 1 4 1 8-1 8-3 12-6 12-8 0-3-3-3-8 1-4 2-9 3-10 0-2-3 1-6 9-9 6-3 9-7 6-8l-4 2c-2 2-3 2-4 1s0-3 3-6c5-7 9-8 9-1 0 4 5 4 7 0s1-7-3-9h-8m44 0c-2 2-3 9-1 11l4 1c5 0 6-2 6-6 0-6-5-9-9-6m-619 2c-2 1-3 3-3 6 0 10-3 15-10 23-3 3-9 4-11 2-2-3 2-11 8-20l7-11c0-1-20-1-23 1s-5 8-4 11c2 4 5 2 6-2 0-3 1-3 5-3l6 1-6 8c-7 9-9 13-6 17 2 3 8 5 13 5l10-8c5-5 7-8 10-15 6-13 5-21-2-15m383 0c-3 1-11 8-11 9 0 2 2 1 5-1 4-3 7-4 7-2l-7 14-6 14 3 1c2 0 3-1 6-6 4-6 16-17 22-22 2-2 3-2 4-1l-13 23c-1 3-2 4-1 5 2 3 5 2 9-3l7-10 4-7 1-6c2-6 1-10-3-10s-7 3-14 11l-7 6c-1-1 0-3 1-5l2-8c0-3-1-4-3-4l-6 2m45-1c-3 2-9 6-11 10-2 3-2 6 0 3l9-7c2 0 1 4-3 9-7 11-8 16-6 20l3 2c3 0 10-5 13-8 4-3 1-4-4-1l-6 2c-1-1 2-6 8-15s6-11 5-14c-1-2-4-2-8-1m104 2c-5 4-5 9-1 18 4 8 5 10 3 12-3 2-6 0-8-4-3-4-7-4-8-1-1 6 5 10 13 10 5 0 9-2 10-7 2-4 1-8-3-14-5-7-5-10-1-11 2-1 2-1 6 2 3 4 6 5 7 2 1-4-1-7-5-8-6-3-9-2-13 1m-322 1-4 2-4-2c-5-3-9-3-14 1-8 5-11 10-9 19 0 2 0 3-2 4-5 3-6 5-3 7l2 3-7 5c-7 4-9 6-7 9 3 5 21 7 31 3 4-2 5-4 6-6 1-5-1-7-10-12l-9-5c-2-2-1-3 3-4 10-3 12-4 16-7l6-7c3-6 4-6 8-5 5 0 8-3 4-6-2-2-2-2-7 1m-172-1-7 3c-11 3-18 10-21 21-2 7 2 12 8 12s17-8 15-10l-6 1c-8 5-13 3-10-3 0-2 2-3 8-6 15-6 20-11 17-17-1-2-3-3-4-1m17 0c-3 2-9 10-9 12s0 2 2 1c2-2 9-4 9-2l-1 1-4 8a451 451 0 0 1-7 16c2 2 4 1 8-6l8-8 5-6c2-3 2-4 0-4l-1-5c1-7-3-10-10-7m50 1-9 8 4-1c8-5 7 0-3 15-3 6-4 11-1 15 1 2 7 3 7 1s6-7 10-9c1-1 2-5 0-5l-4 3c-4 2-7 3-7 1l6-12c6-11 7-15 5-17-2-1-3-1-8 1m28-1-11 11h3c1-2 6-4 8-4 1 1-1 5-8 18-4 7-5 11-3 11l4-3a352 352 0 0 1 16-21c-2 0-2 1 0-7l-1-4c-2-2-5-2-8-1m19 3c-5 4-5 5-1 5h3l-8 16c-5 6-4 12 1 12 3 0 16-10 16-11 0-2-3-1-4 1l-8 4c-2 0-1-2 4-10 8-14 8-15 7-18-1-4-5-4-10 1m185-3-6 5-5 5-3 2 1-4c0-5-1-8-4-8s-10 4-14 8c-7 5-5 7 2 2 4-3 9-4 9-2l-9 17c-5 7-6 10-3 11 2 1 2 1 10-9 4-5 9-12 13-14 5-5 6-5 9-4 4 0 8-2 7-6-1-3-3-4-7-3m17 1c-5 2-9 6-9 8s1 1 4-1 5-3 5-1c1 0-1 5-4 9-9 16-8 16-7 19 3 3 7 3 12-1 5-3 9-7 9-9s-2-1-6 2l-5 3c-2 0 0-6 5-15 7-11 8-15 2-16l-6 2m96 4-7 6c0 2 2 2 6-1 5-3 8-4 8-2l-7 13-6 13c0 2 3 3 4 2l20-24c3-3 5-3 8-3s5 0 6-2c4-3 1-9-3-8l-8 7-7 6v-5c-1-7-1-8-5-8-2 0-5 2-9 6m-372-3-6 5-3 4 4-1 4 1-5 9-5 12c0 3 0 4 2 5s3 1 6-1c4-1 11-8 10-9l-6 3-5 1c0-2 2-8 7-15s6-12 4-14-3-2-7 0m429 1c5 5-7 27-15 27-5 0-6-3-3-11 2-4 9-15 11-16h7m-310 2c3 2 2 6 0 10-4 6-9 6-12 2-2-2 0-9 3-12 3-2 7-3 9 0m-170 7c-3 3-5 4-5 2 0-1 5-5 7-5l-2 3m724 12c-3 3-3 10 0 13 5 5 13 0 13-7 0-8-8-12-13-6m-140 2c-3 3-3 5 0 8l2 2-4 4c-6 5-6 7-2 7 7 0 16-11 14-17-1-3-5-6-7-6l-3 2m-425 14 5 2 1 2c1 3-5 5-13 5s-9-1-9-5c0-2 2-3 5-5 5-3 5-3 11 1" fill-rule="evenodd"/></svg>