<svg viewBox="0 0 1560 2486" xmlns="http://www.w3.org/2000/svg"><path d="M858 71c-9 5-14 14-20 35l-7 19-3 15c0 9-4 11-11 6l-23-12-15-3-13-3-22-2c-4 0-10 3-14 7-6 6-8 14-8 30 0 14 0 15 5 25l7 7c2 0 1-3-3-8-3-5-3-6-2-9l1-6v-11l2-7c0-4 3-11 6-14a44 44 0 0 1 32-5l9 1 10 2c7 2 24 10 26 12l6 4c7 6 11 10 16 17l8 12 6 9c4 6 10 12 18 19 7 5 8 6 4 6l-3 1c-1 2-1 2 1 3 1 1 2 2 1 4 0 3 0 5 2 8l2 4h-5c-4 0-5 0-5 2l-3 3-16-2a1089 1089 0 0 0-38-8c0 1 2 2 11 4l18 7 21 3c10 1 12 2 7 4-4 3-22 3-30 0l-20-7c-6-2-17-4-27-4-9 0-11-1-11-5 0-3-3-5-8-6-6-2-9-4-16-11l-7-6c-3 0 2 6 17 20 3 2 5 5 5 6l-7 8c-9 9-12 13-10 19 0 3 1 5 2 5 3 0 5-2 4-4l-1-6c0-4 0-5 3-6l9-6c7-4 7-4 15-4l11 1 8 1 10 2 24 10c12 3 14 3 20 1l19-6c5-3 6-3 8-1 3 3 3 3-2 2-4 0-5 0-9 2l-6 3c-5 2-4 7 3 8h5v-5l5 2 8 1 5-1 6 7c6 8 9 10 15 8 3 0 4 0 5 2s2 2 5 1l5 1c2 2 3 7 1 7l-4 8c-1 3-11 7-20 8-6 1-12 1-33-1-3 0-4 2-2 5a140 140 0 0 0 50-2c5 0 7-1 12-11l5-6 2 8c0 7 0 7-4 11-2 3-7 6-15 10-11 5-12 5-19 5l-14-1c-6-1-6-1-4-2l12-1c9 0 17-2 20-5l1-2-6 1c-5 1-19 0-31-1-3-1-3 1-1 5l-3-2-7-7-8-5a69 69 0 0 0-42-21l-5-2c-4-2-13-3-28-3-11 0-14 0-16-2-3-2-7-1-8 2 0 3 4 5 14 7 5 1 9 3 11 5 5 3 12 7 16 7l9 4 8 3c2 0 10 5 12 7l3 2 5 2c7 3 21 9 28 10a115 115 0 0 0 57 0c1 1-1 24-6 52a2280 2280 0 0 0-12 65l-2 7-2 11-4 14-4 13a466 466 0 0 0-18 51l-7 17-12 28-5 12-2 5c0 2 0 2-3 1-2-1-7 1-12 5-2 2-2 2-1 4 2 2 4 8 2 10-1 2-2-1-2-4 0-4-2-4-4-1l-6 5c-6 3-8 5-13 14-3 7-6 14-9 26-2 7-2 28 0 32 3 6 3 25 0 37l-3 15c0 6-4 18-10 37a439 439 0 0 0-21 80 846 846 0 0 1-18 79l-3-12a541 541 0 0 0-9-36 332 332 0 0 0-9-50 205 205 0 0 0-5-25 618 618 0 0 0-12-56 443 443 0 0 0-23-81 790 790 0 0 1-19-70c-1-11-1-13-4-20-4-7-4-8-4-20-1-14 0-19 4-28s11-13 21-15c5-1 7 0 15 2 8 3 10 4 15 8l9 8a137 137 0 0 1 16 13l4 5c4 5 6 7 10 7l2-2c0-2 0-2 4 1 8 7 11 8 22 8h10v-3c0-3 0-3 16-2 26 3 37 0 33-8-1-2-1-3 2-6l15-8c3-2 3-3-1-5-2-1-2-1-1-4 0-4-2-5-7-3-4 2-4 5 0 8l3 4c0 1-9 4-14 3-6-1-31-14-32-17v-4c0-2 1-2 9-2l20 1c11 1 15 1 15-3h-15a22701 22701 0 0 0-57-4l-10-3c-4 0-5-2-1-3l11-6h-3s-3 2-7 2c-10 3-21 2-11-1 4-2 6-3 4-4l-6 2c-4 2-10 3-10 1l5-3 19-10-15 5-13 5c-6 2-6 2-9 0h-8c-5 1-6 0-4-2l14-6c13-6 18-10 15-10l-14 6c-10 5-25 10-28 10-2 0-1-2 3-3l3-3h-5l-6 2c-3 1-3 1-1-1l21-10 11-6c8-5 12-6 23-6a346 346 0 0 1 49 3 1592 1592 0 0 1 56 2c4-1 4-1 2-2l-40-3a536 536 0 0 1-67-7c0-2 6-7 13-12 5-3 6-5 8-10l10-24a196 196 0 0 0 21-59c1-8 5-15 7-14 4 1 10 1 15-1l11-2 6-1v5l1 6c1 0 4-5 4-9 0-3 0-4-2-5-3-1-7-1-21 2-8 1-7 1-8-5-1-5-3-9-5-9l-12 5c-17 7-17 7-4-16l6-8c2-3 3-5 1-7-2 0-4 2-9 13l-12 20c-4 6-4 7-1 8 2 1 4 1 7-1l18-8c2 0 2 0 1 5 0 6-5 22-9 28l-2 9a223 223 0 0 1-38 77l-10 7-12 8a200 200 0 0 1-25 14l-15 9a278 278 0 0 0-34 17l-5 3c-5 1-4-2 2-12a120 120 0 0 1 11-17l3-5c6-7 9-12 9-14 0-3-4 0-9 8l-6 10c-2 1-12 16-14 20-2 3-7 9-8 8-1-2 11-25 21-38l9-13 7-10 8-13a643 643 0 0 0-41 55c-3 0 2-10 9-23l4-7 5-7 3-4 4-6 2-5c-1 0-10 10-14 17l-7 8-2 5-3 5c-3 2-3-1 1-7l2-6 8-13 3-8-3 2c-3 3-3 3-3 1 0-3 2-7 3-7l3 1c1 1 2 0 5-2l6-4 4-1 1 2c-1 5 1 3 3-2 2-3 4-4 9-7 7-2 8-4 32-19l16-12c5-2 8-5 23-20 7-7 13-13 12-14h-4a114 114 0 0 1-31 30l-8 7-6 4-7 4-7 4-4 2c-1 2-5 3-8 4l-10 5-7 3c-2 0-2 0-1-5l-1-5-3 2c0 3-11 13-12 13l12-19c2-2 3-6 1-6-1 0-3 1-3 3l-8 8 5-10c5-10 5-12 3-11v-6h3c2 2 5 2 5 0l-5-12-3 2h-2c0-3-4-2-5 0l-8 30c-6 28-12 47-14 48l-2-6a491 491 0 0 1-46-111 375 375 0 0 1-13-76c-4 0-2 33 4 59 11 43 15 56 33 93a354 354 0 0 1 22 55l-1 13a201 201 0 0 0-6 33l-1 2v-11l-1-11-3 24-2 14-3-1a260 260 0 0 1-2-46v-26c-1 0-2 2-2 5l-1 17-1 21c0 12-1 14-3 13-1 0-2 0-2 2-1 5-6-33-6-41a508 508 0 0 0-3-50 1141 1141 0 0 1-2 33 266 266 0 0 0 3 52c-1 2-1 2-2 0-2-1-3-4-3-11-4-51-5-55-6-52l-1 16a5170 5170 0 0 1 1 30l1 8c-3 0-4-3-4-9l-1-8c-2-6-3-26-3-51-1-27-2-45-4-47s-3-1-3 4a397 397 0 0 1 3 46v8a379 379 0 0 0 4 52c-1 2-1 2-3 0l-1-8-1-12a950 950 0 0 1-9-115c-3-11-3-11-4-5-1 5 1 22 3 40a763 763 0 0 1 7 81c1 5 2 10 1 11 0 2-1 1-8-5l-7-9-6-8-6-7v-8l2-9 7-25c0-5 2-5 2-1a113 113 0 0 1 2 26l2 11 4 26h2v-17a321 321 0 0 1-5-53l-3-27a540 540 0 0 0-28-148l-8-18-7-13c0-1-5-5-7-5l-2 1 5 9a178 178 0 0 1 13 19l3 6a250 250 0 0 0 11 38 2127 2127 0 0 0 6 38l2 9-1 2-1-1c0-2-2-3-2-1 0 4 0 9 2 12l1 7c0 4 1 8 2 6 2-2 3-1 3 2a338 338 0 0 0 0 28c-1 0-4-7-5-13-2-11-3-14-4-14l-2 1c-1 1 4 33 6 36 1 3 2 3 3 3 2-1 2-1 2 7-2 17-4 30-7 35-3 7-5 8-7 5l-2-5-2-10a258 258 0 0 1-8-32l-3-16c-1-3-2-4-5-6-4-3-6-3-8 0-2 2-2 2-1 8a593 593 0 0 1 8 37l-7-18-3-13a131 131 0 0 1-6-25l-3-12c-1-6-3-10-4-10l-2-1 7 38c2 5 2 12 1 12-1-1-10-29-11-40-2-7-4-11-4-6 0 6-2 3-2-4a811 811 0 0 0 2-78v-32l-4-10-4-14c-1-3-4-5-7-5-2 0-2 1-1 3 8 13 9 17 10 29a701 701 0 0 1 1 94l-1 30c-2 7-5 8-8 3l-2-4-2-3a212 212 0 0 0-19-28l-5-8c-5-5-6-10-7-26 0-14-1-19-3-19l-2 12c0 13-1 17-4 15l-3-3-7-7c-23-20-23-19-20-27v-11c-3-11-4-18-7-23v-5l1-2c0-2 0-2 4 1l4 4c2 0 0-7-2-10l-2-4c0-2 3 1 6 7 3 5 6 8 8 7 0-1-4-16-7-21-2-4-4-4-20-4h-14c-3-1-4 3-1 4 1 2 0 2-5 2l-8 2 6 8 8 9c0 3 4 6 5 5l-2-6c-4-7-3-8 3-2l6 5-4-10-3-6 8 13 5 7c2 2 3 5 3 7l2 8 2 14-1 3-3-3-37-36c-7-8-14-13-18-14-2-1-2 0-3 3-3 5-2 7 1 10l8 7c5 5 8 7 9 5 1-1 0-3-4-6l-7-10 7 5 26 27c11 11 16 18 15 21-1 2-3 1-10-2-11-6-24-9-25-6 0 1 4 3 8 3l7 2a758 758 0 0 0 11 7c4 3 4 3 12 2 6-1 8-1 11 1a218 218 0 0 1 48 54l6 7c2 1 1 3-1 4l-6-1-5-2a63 63 0 0 1-20-8 322 322 0 0 1-103-58c-2 1 1 6 4 7 2 0 4 3 7 5l5 4c2 0 10 7 9 8-1 0-13-3-17-6-4-1-6 0-5 3 1 2 7 5 15 6l27 8 14 8 24 12c8 2 23 9 33 16 7 5 13 7 21 9 4 1 6 2 9 5a101 101 0 0 1 18 23l3 6 2 5 6 11 8 11 6 8 6 7 2 4c-2 1-12-1-17-3-7-3-11-5-14-5-5-1-19-7-35-15l-15-7-28-15-10-6a200 200 0 0 1-24-14l-15-12c-27-22-37-29-42-29-2 0 2 5 9 10l8 5 8 6 7 5 1 2 1 2c0 2-2 3-12 1l-8-1 2 3c2 3 9 4 21 4 5 1 6 1 10 4 5 4 18 11 20 11l11 6 9 5 9 5 10 6a315 315 0 0 1 22 12 449 449 0 0 0 43 20l7 2 6 1 6 2 7 3 5 1 4 1 3 1c2 0 3 1 3 4 1 3 4 9 8 13l9 13a184 184 0 0 0 14 20l5 6 4 5 4 5a923 923 0 0 1 38 45c-1 1-4 1-8-2l-25-9a350 350 0 0 1-58-23 152 152 0 0 0-26-11l-14-6a296 296 0 0 1-31-14v-3c2-4 1-6-3-8l-9-10a241 241 0 0 0-66-63 1108 1108 0 0 1-17-10l14 12c6 3 11 7 19 15l11 9a166 166 0 0 1 34 36c6 7 8 14 7 17v1l-21-4c-17-5-37-13-41-17l-1-3c0-3-4-9-6-9l-14-10a271 271 0 0 0-39-29l-23-13a550 550 0 0 1-24-11l-5-2 2-3 10-4c16-4 16-4 17-7l-2-4c-3-2-3-3 2-5l15-1h14c3-1 3-4-1-6l-19-12c-3-3-9-15-9-18l5-1c6 0 6-2 3-8-3-4-4-9-1-11l5-1c10 2 12 2 13 1l1-2-18-23c-4-4-5-6-5-8 0-6 1-7 5-6h4v-7l-6-1c-8 0-11 2-10 9 0 5 1 7 4 13l7 10 8 8c0 1-7 2-10 1-5 0-6 1-5 7 2 7 1 10-4 10-2 0-4 1-5 3s0 3 3 10l8 13 5 6 6 5 2 2-13 1c-14 0-18 1-18 5l3 4c4 2 4 4-1 6l-10 4c-3 2-8 4-11 4-8 1-10 3-10 7 1 3 7 10 12 13 4 3 5 1 2-2-2-2-2-4-2-7s3-6 3-3l19 11a194 194 0 0 1 23 12c1 0 10 5 16 10l8 5 21 17c11 9 13 11 13 13l3 5 1 2-24-6a309 309 0 0 0-82-7c-1 2 2 3 13 3a371 371 0 0 1 82 11l6 3 4 1 8 3 7 2c1 2-2 4-5 5l-4 1-13 4-18 6c-16 5-24 7-32 7l-10 2-15 1-20 1c-8 1-9 1-14-1-8-4-9-10-3-18 3-5 3-6-4-6-5 0-14-2-14-4l2-5c1-4 2-5 7-9l7-5c0-2-3-5-6-5-4 0-9-3-10-5-2-3 0-5 5-6 7-2 13-5 13-7s-2-4-4-4l-12-6c0-1 3-3 7-4 5-3 6-3 18-3l16 1c4 2 11 1 12-1l-1-1-7-4c-7-5-8-5-8-2-1 2-1 2-9 2-13-1-36 4-40 8-2 3 0 6 8 10 4 1 7 3 7 4l-7 4c-13 7-12 15 3 18l5 1-8 9c-7 7-8 9-8 11 0 3 1 4 8 6l10 3c2 0 2 0 1 4-2 4-3 14-2 17 1 2 2 2 8 2l17 2-3 3c-3 3-3 7 2 8h12l-3-2-3-2c0-3 5-8 9-9l24-2a285 285 0 0 0 81-20l5-1 9-3c5 0 7 0 13 3l9 3a325 325 0 0 1 52 17c3 1 6 5 5 7-1 3-24 10-40 13l-11 2-19 5-45 8c-16 2-18 4-5 4a272 272 0 0 0 76-15 157 157 0 0 1 30-5l28-6c4-1 8-1 18 4l19 8a341 341 0 0 1 65 28c1 1 0 1-4 1l-6-1c0-1-10-1-26 1l-23 3c-33 4-46 8-61 15l-13 4c-14 4-16 5-22 12l-19 19c-10 9-22 23-21 24s34-31 34-33c0-1 9-8 12-8h4l14-11 6-2 8-3 16-5 16-3c3-1 3 0 0 2-2 2-5 7-7 13-8 18-11 25-14 26l-5 5c-2 5-8 13-20 25-4 4-5 6-4 7 2 2 19-15 29-30l3-6 2-4a91 91 0 0 0 13-21l2-5c2-4 4-6 14-12l6-4 17-1 20-2c4 0 4 1 0 7-2 3-2 4-1 5s3 0 8-6l8-7 4 2 5 1 3 1c1 1 0 5-3 9l-3 3-9 20c-3 4-5 10-5 11 1 1 4-2 6-7l4-7 13-23c2-5 5-8 6-6l1 6c1 8 6 15 6 9 0-3 0-3 3-3l8 6 6 6 3 12 5 17a997 997 0 0 1 36 126 727 727 0 0 0 16 64 638 638 0 0 0 15 62l2 12a155 155 0 0 0 7 27l-2 2c-4 1-5 6-6 15 0 6 0 10 3 22l12 34c2 5 2 6 1 11v10l4 20a1226 1226 0 0 0 2 29v13a1260 1260 0 0 1-1 119c2 7 1 22-2 45l-3 16c0 8 0 8 2 10 4 3 4 3 1 7l-4 10a130 130 0 0 0 1 42l2 5a2985 2985 0 0 0 10 162l2 17c2 15 3 24 5 28v7c-1 3 0 4 1 5l1 3c0 2 0 2 3 2 4-1 4-1 5 1l-1 9-3-3c-2-3-3-3-4-3-2 1-3 0-5-3l-5-3-8-7c-6-6-6-6-8-5l-1 17c0 15 0 15 6 29a1371 1371 0 0 1 15 32l7 9c3 4 4 6 4 10l4 21a538 538 0 0 0 46 135c6 6 2 8-8 4-8-3-10-3-12 0v9c0 6 0 6-2 6l-4 1-6 1-15-1c-8 0-10-1-12-2-1-1-3-3-5-3-3 0-4-1-4-3s-5-7-7-7l-3-4-7-9-7-8c-2-3-20-12-23-12l-1 5 1 8c2 4 2 4-3 5-3 1-4 0-8-4l-8-6-5-5-5-3-14-12c-6-6-7-9-5-13l1-4h-3l-2 2-4-9-4-10-1-3-1-3-4-9-6-13-8-11c-6-10-17-21-21-22-4 0-10-6-10-10 0-6-6-23-12-33a155 155 0 0 0-40-43l-6-3c-4 0-9-3-9-6 0-2-1-2-3-2-5 0-7 3-7 10l-2 8-1 14c1 12 2 15 3 15l1-8c0-7 0-9 2-11l2-2 1 6 2 8 2 9c2 4 3 10 3 15l3 12 3 12c1 7 3 13 13 30l7 11 6 8 8 10 5 7 2 2 5 3 7 7 4 4-2 3c-2 3-2 4-2 11 0 9 3 16 12 26l4 6 9 7 9 8 15 8 14 7 8 3 4 1-1-3c0-2 0-2 4-2 7 0 9 0 12 3 4 3 4 4 0 4l-3 1c0 2 2 4 5 4l4 1 19 7 13 6 4 1 4 1c2 2 15 5 18 4 2 0 4 0 6 2l6 2 5 1c5 3 12 4 15 4l5-1c10 1 28-1 30-3 2-1 2-1 5 1 2 2 4 2 7 2 6-1 17 4 19 9l2 3c1-1 3 0 5 1 3 3 5 4 15 5 8 1 10 2 10 7 0 2 1 3 6 7l9 5 7 6 7 4 6 2c4 3 9 2 13-1l3-3 20 7 8 4c6 2 14 7 14 9l7 5c6 3 6 4 3 6-7 5 2 9 18 9 8 0 10-1 14-3 5-3 13-10 17-16l4-4c3 0 5-8 3-12l-1-3c-1-2-5-3-7 0l-5 1h-6c-3 1-3 1-3-3 0-6-1-7-10-12l-8-5-6-3c-4-3-6-3-12-3-7 1-9 0-12-5l-3-4v-4c0-3-2-5-7-7h-6c-4 2-8 1-14-5-5-4-6-6-5-8 0-1 0-3-2-5-3-2-6-3-8 0h-5l-4-4c0-2-3-3-5-1 0 1-3-1-9-7l-9-10-2-2-4-4-3-6-4-6-4-12-3-7-6-12-5-7c-6-10-6-9-11-9-5 1-7 2-8 6l-1 3a153 153 0 0 1-19-51l-4-18c-4-11-5-24-5-45 0-17 0-18-2-22l-3-8-1-11a2507 2507 0 0 1-15-104l-3-57a436 436 0 0 1 5-94 5233 5233 0 0 0 9-41l5-13 2-9 3-7 3-7 3-6c3-8 5-13 8-17l3-5 4-6 9-16 4-7c2-2 4-4 4-6l12-17a825 825 0 0 0 29-37c7-9 29-30 31-30l3 2 4 2 4 1c3 1 10 10 12 16 2 5 3 6 5 7l4 1 10 10c6 7 9 10 11 10l2-2 2-5c0-4 4-4 7 0a2069 2069 0 0 1 15 17c2 0 4-5 4-11s0-8 2-10l3-3 14 13 13 13c3 1 6-2 6-7 1-6 8-9 10-5l14 14c6 6 9 4 7-4-2-7-1-8 3-8l5 3 4 2c1-1-9-16-12-20-4-3-5-2-2 3 2 4 2 6-1 6-5 0-6 4-3 10 3 7 0 7-6 0l-24-24c-11-9-23-22-23-24l2-1c3 0 2-2-2-2l-17-5 8-1 7-1c0-1-3-2-7-2-5 0-18-3-19-4-2-1 27-1 36 1 10 2 14 4 10 5-1 1-2 2-2 5v3h-5c-8 0-3 2 7 2 6 1 9 1 10 3 3 2 6 3 6 1l-4-5-4-5 17-1c19 0 24 2 29 7l8 5c2 1 5 3 5 5 3 5 12 13 14 13l2-1c0-2-22-24-24-24l-1-2-4-3c-8-2 3-4 11-2 4 1 4 1 3-1 0-3 6-8 16-12l12-6 13-4c5 0 11-2 14-3 7-3 13-3 13-2 0 2-3 5-5 5l-2 1c-1 1 1 1 6-1l6-5c3-4 6-5 7-1l4 6 3 5c0 3 0 3-6 2-6 0-7 0-10 2s-4 3-1 8c2 6 3 9 1 12l-1 4c0 3 10 2 10-1l-1-8-2-5v-4l5 1c5 0 7 0 9-2 4-1 4-2 4-5l-7-12c-10-13-9-16 4-16l9-1c0-2-6-12-13-20-8-10-8-10 5-10 11 1 11 1 6-7l-2-9v-3l8-2c15-3 17-5 15-11l-1-6-2-3c-4-2-12 2-9 4l5 7c0 2-6 4-13 5-8 0-8 0-10 5-2 2-2 4-1 6v6c-1 1-2 1-7-2l-18-6-19-4c0-2 13-6 21-6l5-1h-19l-5 3a41 41 0 0 1-23 6c-7 0-10 1-9 3h23c24 1 23 1 37 7l7 4-4 3c-3 4-3 4-8 4l-7-2-2 1 6 3c6 2 11 5 19 13 7 7 7 7 5 8h-5c-5-2-7-1-9 3-2 5-3 5-5 2-2-2-2-2-6 0l-12 4c-13 4-14 5-2 4 15-2 20-2 20 0s-4 3-13 4c-26 3-38 8-55 21-5 3-6 3-15 4l-15 2c-9 2-27 1-29-2-1 0 1-2 6-4l10-6 4-3 2-1 7-4 12-7a227 227 0 0 1 39-21c3-2 9-3 13-4h8c2 2 2 2-12 7-15 5-16 6-17 7h5c5-3 17-7 21-8 8-2 12-3 12-5l-2-1c-4 2-5 2-4-2l-1-3a497 497 0 0 0-50 12c-7 0-18 1-24 3h-2l2 1h13l12-1c1 1-1 4-5 6l-8 5-33 20-11 5h-20l-4-4-4-4-6 3c-7 3-10 4-12 2-2-1 0-3 6-4l6-3-2-1c-2 1-24 3-25 2s4-3 10-5l9-2h-9l-26 6-1-1 14-7c1-1 2-1 1-2l-11 3c-12 5-14 5-9 1l5-6a1228 1228 0 0 0 15-15c8-6 10-7 16-5h10l9-2-6-1-8-1c-5-4-2-7 16-19 11-8 14-9 19-7h9a346 346 0 0 1 55-6l3-2h-8a757 757 0 0 1-54 2c0-3 13-12 22-16l13-8c10-7 19-10 37-13l7-3v-1c-3 0-2-3 1-5a858 858 0 0 0 22-12c8-4 11-5 20-7a593 593 0 0 0 40-7h-13c-11 2-21 2-24 2-2 0-1-3 1-4l4-2c2-2 7-3 13-4l7-4c20-16 26-21 31-23 8-3 9-3 7 1l-3 10a38 38 0 0 1-3 13c0 2 6 8 8 8s2 2-2 7l-6 8-3 4-1 4 3 3c5 2 8 5 9 10l2 3 3-2c4-2 6-5 6-8-1-3-1-3-9-6-7-3-8-5-4-10l7-7c5-4 6-4 4-8-2-3-3-4-6-4-4 0-5-2-3-7l2-6 2-10c3-11 3-11-4-11-5-1-7-1-10-3l-9-4c-9 0-15-1-17-2s-3-5 0-8v-4c0-3-7-2-13 2l-8 2c-2 0-2-1-2-5 0-5-1-6-11-6-11 1-26 5-26 8l10-1c10-3 18-2 19 1 0 2-3 6-5 6l-1 2c0 2 6 1 12-1 12-4 15-4 16 3 0 2 1 3 8 4 9 1 21 5 24 7s3 3-2 6c-22 14-27 18-29 18v-2c2-2 1-3-2-2l-3-1 3-4c7-8 0-9-7-2l-16 13-5 4-6 4-4 3-4 3c-4 2-6 3-5 4l6-3 7-3 8-5 13-11c2 0 1 3-1 5l-2 5c0 2 0 3-5 5a1591 1591 0 0 0-48 29l-14 7-11 1h-11c-4 1-3-3 1-12l4-9h-1a6003 6003 0 0 1-12 20c-4 7-4 7-13 11l-36 21c-10 6-35 19-36 18l2-3 4-7 8-14c10-14 17-31 14-31l-3 5c-1 3-3 5-4 5-2 0-8-13-7-16l-3-14-2 1c-1 1 1 15 2 15 0 1 2 4 2 9l3 9c1 3-1 10-4 14l-3 5-11 15-9 12-5 6c-3 1-12 10-22 18-2 3-6 5-7 5-2 0-7 4-7 6 0 1 1 2 4 2s5-1 11-6a256 256 0 0 1 58-41l17-10a211 211 0 0 1 48-25c7-3 15-4 13-2 0 1-10 7-17 9l-8 5a382 382 0 0 1-34 21 699 699 0 0 0-57 37c-3 0-6 3-6 5s-6 11-8 13l-11 7a101 101 0 0 0-19 11l-12 11-9 9c-1-2 14-25 16-25l5-3 6-8c2-6 1-26-1-35l-1-12c0-4 0-5 3-7s7-12 10-25a1735 1735 0 0 1 5-29v-13c1-9 0-12-1-8-2 5-3 16-3 27-1 10-3 23-5 27l-1 6c-1 4-4 9-5 9l-1-8-3-10-3-7c0-2-1-3-2-3-3-1-4-5-1-7 2-2 2-3 2-19 0-24-3-47-7-45-1 1-1 4 1 11l3 17v12c1 4 0 7-2 10-3 2-3 3-3 8s-1 10-3 10l-4-2-7-4-4-2c-2-1-15-7-25-9a100 100 0 0 1-17-6c-5 0 18 11 24 12 5 0 13 4 18 9l6 3 4 2 3 4c5 5 8 15 9 33 1 7 0 9-4 8l-4-2c-3-3-27-10-37-11a200 200 0 0 1-31-5c-6 0-6 0-6 2l4 2a922 922 0 0 1 19 3l10 1 8 3a226 226 0 0 1 33 9c3 0 6 3 6 6l3 3c2 1 2 2 2 4l1 6c1 7 0 12-1 10-3-2-18-3-22-2-6 2-4 3 5 4 7 0 13 1 13 3h-31c-3-1-10-2-25-2l-22-1-3-4c-1-2-3-4-7-5-6-4-10-8-10-12v-2l8 1c7 0 8 0 8-2l-9-6c-11-5-18-9-21-12-6-6 1-11 8-8 3 2 9 3 9 2l-2-4c-3-3-3-3-5-2l-8 1c-6-1-8-1-9 1l-2 2c0 3 8 14 11 15l7 5c2 2 2 2 1 3-3 3-2 7 2 10l4 5c1 1 3 3 5 3 4 2 4 4 0 8-4 3-4 9 0 13 2 2 4 3 5 2 3-1 3 0 1-4-4-3-4-4-1-5l24-1c12 1 15 2 20 4 6 2 6 2 16 1h12l5 2 4 1c1 1 1 1-1 2l-5 1-7 2c-8 3-21 6-29 7s-12 3-5 3c4 0 15-1 19-3l3 1-15 5h-27c-3-1-3-6 0-10 2-2 2-3 1-4l-5-2c-3 0-4 1-1 2 2 1 1 3-1 6-3 4-2 7 3 10 6 3 18 4 33 2 11-2 15-3 19-6 2-2 7-3 8-1 1 1-7 9-12 12-3 2-14 14-16 18-1 3-11 13-16 18a129 129 0 0 0-25 35 195 195 0 0 0-9 15l-10 17-11 20-8 13-5-10-4-10v-33a975 975 0 0 1 8-169c0-14 0-18 2-22l2-6 3-7 8-23 2-8c2-6 4-20 4-32 0-11 0-12-2-12s-6 3-7 6c-1 2-1 3 2 5 3 3 3 3 3 11-2 18-3 22-6 26-3 5-3 6-7 20-2 12-3 8-3-12 1-22 2-32 7-40 2-5 3-7 2-8l-2-2-1-2-2-2c-3 0-6 13-8 32a1031 1031 0 0 1-8 64c-1 2-3 3-3 1l-2-1c-1 0-2 1-2 3 0 3-2 3-3 0-1-2 0-8 2-8s4-6 4-9l2-6 2-5c1-3 1-5-1-8-3-6-4-6-1-10 2-3 4-9 5-24l4-25 2-21-2 2-3 7 5-26c1-4 3-6 3-2 0 2 2 4 3 2l1-7 6-25 5-23c-1 0-5 10-5 13s-4 16-5 14a1283 1283 0 0 0 17-81 131 131 0 0 1 8-25l4-12c2-1 2-1 2 4l1 5 3-8 5-9c2-2 2-2 1 4-1 9 1 8 7-5 5-11 8-15 7-10l-3 7a250 250 0 0 0-9 24 154 154 0 0 0-10 30l-2 9c-1 1-2 4-4 4l-2 5-2 11c-1 3-3 11-3 17l-3 14v4l3-8a600 600 0 0 1 53-142 163 163 0 0 1 25-41l9-13 17-19 15-14a488 488 0 0 1 55-53 1017 1017 0 0 1 145-109l8-9 5-7a198 198 0 0 0 34-58c-2-1-3-1-5 3-3 3-18 14-21 14l-4-5-3-5c-1 0-10 6-12 9l-5 3-4 3c0 1-3 2-5 1v-13c3-10 2-10-9 0a1252 1252 0 0 1-8 10c1-2 10-8 12-8v2l-1 8c0 6-1 8-9 17-5 6-6 7-5 9l2 2c2 0 9-9 9-11 0-1 2-4 5-6l7-5 8-6c4-1 7-3 7-4l3-1 1 6c0 6 0 6-3 8l-4 3-4 4c-2 3-3 4-2 7l1 4 5-4c4-3 5-5 5-7 0-3 1-4 4-7 3-4 19-14 20-14l-1 6a166 166 0 0 1-30 40l-3 5-3 4-3 2a319 319 0 0 1-47 33l-15 11-15 10c-2 0 2-5 5-9l7-4c5-3 7-5 9-9l6-8c6-7 6-7 5-9-1-1-1-2 2-4l3-7c0-4 5-13 9-16l2-3c-1-1-14 13-23 23l-8 9c-3 3-5 7-5 11l-2 9c-3 4-7 8-15 12l-4 2-11 5 9-8 8-9-4 1-4 2-5 3c-6 5-6 2 1-9l12-22a253 253 0 0 1 19-34l7-12c1-2 2-3 1-4 0-2-3 0-3 4l-5 8-4 6-3 5c-4 4-9 14-10 18l-8 12a1854 1854 0 0 0-15 25c-1 1-3 5-3 12-1 5-2 6-5 9l-7 5-3 2v-4c0-6 3-20 5-29a4378 4378 0 0 0 23-42 207 207 0 0 1 23-30c0-2-4-1-5 1-3 3-4 2-2-3s3-7 8-7l7-4c15-11 18-13 19-12l1 11c-1 4 1 7 5 6 3-2 4-5 2-8-2-4-2-6-1-11 2-4 2-7-1-7l-7 4-10 8c-6 3-7 2-7-5 0-5-2-9-4-9l-7 5c-6 7-7 10-1 8l4-1v5l1 5-4 2c-4 1-5 2-10 13l-6 14c0 2-7 13-8 12l4-15c1-4 1-5-1-3-1 1-7 13-9 20-1 3-1 4 1 4l1 2-7 12v-11a603 603 0 0 0 5-25 97 97 0 0 0-11 33c-2 11-3 12-4 0v-11l2-10c0-3 4-18 8-25l3-6 2 4 3 8c1 2 1 2 4-2l5-8 4-6-4 3-5 3c-2 0-4-5-4-9l-1-5c-1-2-1-2-4 2l-3 6c0 2-6 18-8 20-2 4-4 4-4 1s-6-12-8-13l-2 4-5 7-5 8-4 10c-2 5-3 6-7 6-6 0-9 3-11 12l-6 18c-2 9-2 10-3 36l1 32c1 4 1 4-1 7-2 1-4 6-6 10-4 6-6 9-26 28a1212 1212 0 0 0-54 55l-2-3c0-3 4-13 13-27l6-14 3-9 3-7 9-19a272 272 0 0 0 18-48 5747 5747 0 0 0 40-169c2-3 23 2 32 7l5 1c4 0 4-2 0-11-4-11-1-13 11-6 17 12 28 14 53 13 14-1 16-1 26-4 33-12 38-15 46-24 7-8 18-19 20-19 4 0 16-19 15-23a511 511 0 0 1-6-18l-5-8c-3-6-10-12-17-16-8-5-14-6-20-5l-14-2 2-5c3-3 6-8 5-9l-6 2c-4 2-13 4-13 3 0-2 6-6 21-14 12-6 16-9 19-14 2-5 4-20 4-36l-3-6-7-9c-3-5-6-9-17-19l-9-10-6-6c-3-1-3-1-6 1l-5 1c-4-1-21 2-24 4l-7 4-8 4c-4 3-12 4-23 4l-9 2-4 1h-8c-6 1-8 2-10 5-5 5-11 8-11 5l-5-10-5 4-4 4-3-3-4-4-10-12-18-17c-5-6-15-15-18-16l-10-4c-4-2-8-2-17-3-12 0-13 0-18 3m28 7 5 1 9 4c8 3 10 5 25 20a203 203 0 0 1 21 23c3 3 4 4 3 6l2 7c2 4 2 5 1 24-1 22-1 21-9 23l-7 4c-2 3-2 3-3 2l-4-2c-5-2-6-5-5-18 0-12 0-12 3-12 2 0 3-2 1-8l-3-8c0-5-3-10-4-9v6l-1 8c-2 2-2 5-1 13 1 15 0 28-3 30-1 2-7 0-9-4l-8-44-3-11-1-6-1-5c-2 0-7-23-5-25l-7-3c-2 1 0 10 6 32l3 13 3 14 10 40-3 9-8-9-2-5-9-22c-1-4-3-8-5-9l-2-4-3-9a1725 1725 0 0 1-7-19c-2-10-4-12-6-8-1 1-1 4 1 9l2 9 2 7c2 2 4 8 5 13l4 10 7 14 10 17 4 6-3 3-3 3-2-2-4-9c-1-5-3-9-5-11-4-3-7-4-7-1 0 2 7 13 11 19 4 4 5 8 3 9-1 1-5-2-7-4l-6-6-8-8c-1-2-3-6-5-7l-5-8-7-9c-5-4-6-7-9-18-3-7-3-9-3-15 1-8 5-21 6-23l5-10 6-13c4-10 14-15 29-16l6 2m-14 17c-2 2 1 14 4 21l2 7 3 9c4 7 5 2 3-7-3-7-5-18-6-22 0-7-1-9-3-9l-3 1m21 8a1715 1715 0 0 1 12 37l1-5-8-30c-2-2-5-3-5-2m-27 3c-2 2 0 10 5 22a231 231 0 0 1 6 16v-5l-2-9a203 203 0 0 0-5-23c-1-3-2-4-4-1m211 0 4 2 7 5 9 5c2 1 3 2 4 5s5 10 10 15c3 4 6 10 8 18 1 7 1 7-1 14l-3 10c-1 6-1 6-10 11a439 439 0 0 0-38 23c-4 2-17 9-30 18-6 4-28 12-30 12s-3-1-3-5c0-3 0-4 4-7 2-2 7-5 11-6l12-7a378 378 0 0 0 48-50c3-3 4-6 2-6s-4 3-9 8a251 251 0 0 1-23 26c0 2-11 13-15 16-4 2-7 3-7 1 1-2 19-18 21-18l1-3c0-6-2-6-6-1l-12 13c-9 9-10 10-8 11 3 1-12 9-17 9-4 0-5-10-2-14l10-9c15-13 28-27 34-36 2-4 6-6 6-4l-4 6-2 3c0 2 3 1 5-3l8-10 6-7 2-2c3-1 6-6 4-7l-2 1c-2 1-4 1-4-2s-4 0-8 6l-4 3-1 1c0 2-8 13-10 15l-7 8-13 13a474 474 0 0 0-21 17l-8 5c-4 3-4 3-4-1 0-3-1-4-4-5s-3-2-3-4c2-6 7-14 18-26l4-7c2-7 5-12 8-13l3-2 7-9c6-7 7-10 4-10s-13 11-19 19l-5 7-3 5-4 8-7 8-10 11c-6 7-6 7-8 5-1-2-3-2-5-2l-4-1c-1-2 0-24 1-31 2-11 5-15 13-23l12-9 10-3c8-3 18-4 25-3 5 1 10 1 13-1l32-17c5-1 5-1 8 1m-171 8 2 10c3 13 3 13 2 16v3l3 4c2 4 6 2 4-3l-1-9c0-6-2-14-4-19-2-3-5-4-6-2m163 3-2 4-3 6a529 529 0 0 0-14 18l-9 11c-2 3-3 5 0 5 1 0 13-11 13-14l3-3 7-7 7-10c3-2 3-3 3-7-1-5-2-6-5-3m-152 8c0 3 2 7 4 8v-7c-1-5-4-5-4-1m-63 9c-1 2 0 5 3 11l4 9 7 22 2-1c2-1 2-2 0-6l-6-16c-7-22-9-26-10-19m179 6c-10 9-18 23-14 23l7-7a453 453 0 0 1 18-23c0-3-4 0-11 7m-70-1-1 8-1 5-1-6-1-8c-1-3-1-3 1-3l3 4m83-1-2 4c0 2 0 2 3-1l2-4c0-2-2-1-3 1m21 9-11 12c-2 0-1-3 2-5l3-4 2-2c1-2 4-3 4-1m-281 1 5 3c8 4 23 14 25 17s9 7 10 7c2 0 1-3-1-5-4-5-21-18-28-21-6-2-11-3-11-1m254 0-1 1h1l1-1h-1m33 4-4 6-4 5-5 6c-1 2-2 5-4 6-2 3-2 5 0 5s23-24 23-26l-3-6-3 4m-292-2v2l3 3c9 4 13 7 20 13 10 7 13 9 15 9 3 0-1-4-12-12a192 192 0 0 0-21-14c-1-2-5-3-5-1m-340 1-3 8c-2 8-3 9-11 8h-16c-2 1-2 2-2 7l1 5-5-2-6-2-4-1-3-2-8-3c-11-5-13-4-11 4v5c0 1-9 0-17-2-12-2-13-2-11 6l2 6-11 1c-21 1-24 2-25 9 0 4 0 4 3 8 4 3 5 4 6 11l2 10c0 3-2 3-7 1l-8-1c-2 1-2 1-2 5l11 25h3c1-1 1-2-2-9l-2-10c1-2 5-3 6-1l3 1c2 0 2-1 3-9 1-4 0-10-3-17-1-5-1-11 2-13 4-4 12-5 24-4h9c0-2 0-3-2-4s-3-6-1-8c2-1 10 0 16 1 6 2 6 2 8 0 3-2 5-6 5-9s2-3 6 0l3 2 4 2c2 3 15 9 18 9s3-2 3-9c0-8 1-8 13-7 12 2 12 1 12-6l1-4 11 8c3 3 15 10 18 10l4-4 4-3 3 6c1 3 3 7 7 11a38 38 0 0 1 8 15l9 23 2 5h8c5-1 7-2 7-3 0-3-3-4-5-2-2 1-6 0-8-2l-6-19 1-3 1 2 1 2 7 14c0 2 1 3 2 3 2 0 2-3-2-12-2-6-4-9-6-9-2-1-2-2-2-4l-1-5 1-6 1-7 1-4 7 5a191 191 0 0 0 28 19l4-3 2-3 4 5c5 10 12 18 14 18l4-2c2-4 3-3 6 4 4 9 5 12 7 12l11-11c12-14 14-15 22-12l7 3c2 0 5-3 15-11 9-8 12-8 15-2 1 4 7 8 11 8 3 0 10-5 11-7l5-4c5-2 6-2 6 3 0 4 2 4 12 1 11-3 12-4 15-1 2 1 2 2 1 5-1 4-1 5 5 8 3 3 5 3 6 2l5-1c3 0 4-1 5-2 1-2 0-2-4-4-2-1-5-2-6-1l-5-2c-3-1-5-5-5-10 0-4-2-5-10-2-12 4-11 4-15-1l-4-5c-2-1-10 5-12 9s-6 5-11 5c-3-1-5-2-9-7-5-6-6-6-13 0l-7 6-6 4-3 3-3-3c-2-4-2-4-6-4s-5 1-14 7c-8 5-12 10-15 16l-3 4-9-19c-2-6-5-6-8-2l-3 4c-2 0-5-6-10-15-3-7-5-8-8-8-2 0-3 1-3 4-2 4-4 5-8 1l-9-6-16-14c-10-10-13-8-12 9v10c-2 0-8-7-14-17l-7-9c-3-2-5-1-7 2-1 5-2 5-7 4-6-2-19-12-19-14l-2-4c-2-3-4-4-5-2m492 2 2 8 2 4v-5l-3-8-1-2v3m-158 3c-1 2 1 4 12 10l9 6c7 5 9 6 9 4l-4-4-8-7-16-10-2 1m255 4-2 4c0 3 3 2 4-2 3-6 2-7-2-2m-259 5c0 2 7 7 9 7l8 5 8 4c3 0-1-3-11-10s-14-8-14-6m166 3c0 4 5 14 6 13 1 0 0-6-2-8 0 0-2-2-2-5l-2-3v3m-169 7 5 5c5 4 20 11 22 11s1-3-1-3l-2-2-2-2-6-3c-14-9-16-10-16-6m-443 4c-1 1-1 1 1 1s4-2 2-2l-3 1m753 2c-2 3-4 8-3 9l7-8c-1-2-3-2-4-1m-310 5c0 1 2 3 5 4l5 4 6 3 9 3c5 3 8 4 8 3l-5-4-19-11c-7-4-9-5-9-2m-320 7c-1 1 6 14 7 15 2 1 2-1 0-8-2-6-3-8-6-8l-1 1m9 0c-1 1 12 28 14 27v-1l-3-9c-5-14-7-18-9-18l-2 1m-16 2c-1 4 0 7 3 12l4 9c0 2 1 3 3 3 3 0 3-1-2-13-4-11-8-15-8-11m36 0c-2 1-1 5 1 7l5 8 4 6c2 0 1-3-3-12-3-8-5-11-7-9m592 1 1 1 1-1-1-1-1 1m-636 3 4 11c4 9 6 16 6 28 1 10 4 25 6 27 3 4 4-6 0-21a351 351 0 0 1-6-32l-2-8-2-4c-2-3-6-4-6-1m338-1c1 3 14 11 25 15a330 330 0 0 1 28 12 3388 3388 0 0 1 18 4l-22-9c-6-2-10-5-10-8 0-2 0-3-2-3l-3 2-2 1c-3 0-16-7-20-10l-6-3-4-2-2 1m-348 1c-2 0-1 3 1 7l5 10c3 6 5 8 7 6v-3l-4-10c-4-11-5-12-9-10m312 0c0 2 4 8 6 9 3 1 3 0 1-4l-3-4c-1-2-4-3-4-1m192 1 1 2c-1 1-4-1-4-2 0-2 1-2 3 0m41 3c-1 1-4-2-3-3h2l1 3m-56-1 4 4c1 3 1 3-1 5-2 4-2 4-6 1-2-3-3-8-1-10h4m49 5-1 2c-1 1-3 3-3 5-2 2-2 3-4 2l-3-1c-3 1-3-1-1-4l3-6v-4l3 3 6 3m-17-2c3 2 3 5 0 5l-4-2c-2-3-2-3-1-4 1-2 2-2 5 1m-426 0c-1 1 2 7 4 8l2 4c2 8 7 16 11 16 2 0 1-5-1-7l-4-6-4-6-3-5c-1-4-4-6-5-4m-156 2c-1 2-1 2 5 8a412 412 0 0 0 28 23c2-3-2-8-6-10-4-1-10-6-10-8l-1-2-5-7c-5-6-7-7-11-4m620 0c2 3 2 3 1 5-1 3-5 4-7 2-2-3-1-9 2-9l4 2m-52 5c3 4 4 5 5 11 2 9 0 11-3 4l-5-10c-5-9-4-10 3-5m-523 0-1 1-1-2 1-1 1 2m495 2c3 3 3 5 0 7-1 1-2 1-5-2-3-1-4-3-4-5l1-3c1-2 5-1 8 3m-445-1 2 3c1 1 1 1 1-1-1-4-3-5-3-2m322-1c1 2 4 2 4 1l-2-2-2 1m188 7c0 1 0 3-2 4l-4 5c-2 3-4 2-2-2l1-4c0-2 3-6 5-6l2 3m110-2c2 2-2 7-5 8l-12 3c-11 3-15 4-9 1l8-6c7-6 17-9 18-6m-185 4 2 4c-1 1-6-4-6-6 0-3 1-2 4 2m48-3-1 1-1-1v-1l2 1m-224 2-3 4-2 20c1 0 6-10 6-13l2-5 2-4v3l-1 8c-3 7-6 19-7 27-2 8-9 30-12 35-4 8-4 7-15-35-3-11-3-17-4-28l-1-11c-2 0-3 5-3 16 0 9 0 13 2 18a202 202 0 0 1 8 30c4 11 6 24 6 27a762 762 0 0 1-13 54c-2 0-8-7-11-13l-6-11-4-9c-1-2-2-5-4-6a151 151 0 0 1-21-79c0-11-1-16-2-16a130 130 0 0 0 5 65 380 380 0 0 0 29 59 90 90 0 0 0 14 21c2 0 3-5 2-7-1-3-1-3 6-2 4 1 8 0 10-1a269 269 0 0 0 57-33c3-2 3-4 1-4l-15 10a359 359 0 0 1-41 24c-5 1-5 1-10-2-5-2-5-2-4-5l2-4 5-18c9-31 9-30 19-36l13-8 14-11c4-2 6-4 6-6 0-3-2-2-6 2l-6 5c-2 0-5 2-8 5-8 6-10 8-15 8l-4-1c0-4 3-13 4-14l2-6 3-8c7-20 13-42 11-44l-4-1h-7m210 4c2 6 2 9 1 10-2 1-7-13-5-14 1-2 2 0 4 4m-8 7 5 11c0 2-3-1-5-4l-6-6c-2-3-3-4-3-8 1-7 3-5 9 7m169-11-1 2-1-1 1-1h1m-746 3c0 1 2 4 6 7l9 8c2 2 4 2 4-1l-2-2-2-3c-1-2-12-11-14-11l-1 2m360-1c-3 8-4 22-2 22l1-3a1570 1570 0 0 1 1-19m278 2c1 4 1 4-1 9l-1 6 3-3c1-3 6-8 7-7 1 0 1 5-1 9v5c1 3 0 4-3 6-4 2-4 3 2 3l6 2c1 2 1 2-2 5-4 4-6 4-11 1-4-2-5-3-5-7l1-7v-13a227 227 0 0 0 3-12l2 3m-239 0-1 2c1 1 2-1 2-2h-1m147 0v5h-4c-3-2-4-4-2-5h6m108 4v5c-2 2-3-1-3-6s2-5 3 1m-23-1c0 4-2 8-5 10l-2 4-1 5-1 7c-1 3-1 4 3 5l3 4c0 3 0 3-3 3-6 0-9-4-9-11 0-5 12-30 14-30l1 3m-18-1c1 1-3 16-3 17h-2v-17h5m-10 1v12c0 9-1 11-2 12-3 1-6-8-2-11 1-2 1-5-1-5l1-4c1-5 3-6 4-4m166 1c8 1 11 2 23 13 8 8 11 14 14 26 1 7 1 7-1 12-4 9-9 12-18 14a1024 1024 0 0 0-33 7c-2 0-8 3-13 7-5 2-18 15-20 18s1 3 4-1l9-6 10-7 7-5c4-1 14-3 23-3l7-1-3 3-14 9a234 234 0 0 1-40 18c-8 2-12 3-14 1h-11c-12 1-16 0-23-4l-6-3c-3-1-15-10-17-13l-8-7a306 306 0 0 1-17-13c-1-1 0-2 7-2 8-1 14-3 14-5 0-1-6-4-9-4l-2 1c0 2-4 5-6 5l-7-3 5-1c4-1 5-2 3-4s1-2 13-2c13 1 15 1 36 12l13 6c2 0-7-7-10-9l-7-4c-5-3-17-8-24-9-12-2-5-6 10-6l13 1 20 6 9 3 10 2 28 9c5 2 8 3 8 1s-2-4-9-5l-8-2-11-4-12-5-17-5a330 330 0 0 1-28-8l-6-2c2-2 14-3 31-3 18-1 22-2 22-4s-10-2-28 0h-21c-3-3 1-5 13-7 7 0 19-4 29-8 7-4 18-7 22-7l10-2h30m-441 3v10c2 0 3-3 2-8 0-5-2-6-2-2m59 3c-3 6-1 18 2 12l1-16-3 4m177 0c8 9 9 12 3 6l-3-1c-1 0 0 2 3 4 4 5 5 6 2 6-2 0-6-4-14-12-3-3-3-4-2-5 3-2 8-1 11 2m-569-1 16 15c3 2 6 3 6 1s-4-6-5-6l-2-1-7-6c-5-4-8-5-8-3m309 0-1 15c-1 6 0 10 1 10 2 0 4-5 3-8a150 150 0 0 1-1-18l-2 1m92 2v4l2-6-2 2m-118 12c0 9 1 14 2 15 2 2 2-2 1-15 0-9-1-12-2-13l-1 13m37-9c0 5 1 8 3 8l1-2v-5c0-5-3-5-4-1m414 0-13 3 31 2 4-1-5-2c-5-2-12-3-17-2m-176 4c2 3 3 8 0 8-3 2-8-4-7-9 1-2 5-1 7 1m-206 0v4c2 0 2-3 1-4h-1m193 2c0 2 0 2-1 1-2-3-2-4-1-4l2 3m50 0 5 12c2 0 1 4 0 4l-2-2c-1-3-5-4-8-4-3 1-3 0 1-4 2-1 2-3 2-5-1-2 0-4 1-4l1 3m68 5v6c-1 1-3-2-5-6s-2-4 0-6c2-1 3 0 3 2l2 4m-394-4c-1 2 1 22 2 26l3 4v-13l-1-11c0-6-1-8-2-8l-2 2m-272 1c0 2 1 3 13 12 6 5 10 7 12 6 1-2-2-5-8-10-12-10-17-12-17-8m399 4c-1 3 0 5 2 2v-5l-2 3m347-1c-2 1-3 3-1 3l22 2c7 0 9 0 6-3s-21-4-27-2m-370 1 1 1 1-1-1-1-1 1m-347 4c-1 2 2 4 3 2 1-1 1-3-1-3l-2 1m542 1 4 1-3 2c-2 0-3 2-3 3 0 2-2 1-5-1-2-2-3-5-1-6 1-1 4-1 8 1m-571 2c-1 2 1 6 4 8l14 10h6c1-2-1-5-6-8l-6-3-3-3c-3-3-8-5-9-4m617 1c4 2 1 10-3 8-7-1-9-5-5-8 2-2 5-3 8 0m125 1c0 1 2 2 6 2l13 3c12 3 15 3 16 1 0-4-4-6-22-7l-13 1m-145 2c3 4 2 10-2 10-3 0-7-4-7-7 0-5 5-7 9-3m-570 1c-1 2 0 6 1 6 2 0 4-2 4-4s-4-3-5-2m554 1c3 2 2 5 0 6-3 3-4 2-4-1l-2-4-1-2c1-2 5-1 7 1m72 3 3 1-3 1-5 1-1 1-3 1-6 3c-5 3-7 4-9 2 0-1 1-3 6-4 2-1 6-2 7-4 4-3 5-3 11-2m92 1a409 409 0 0 1 20 9c4 1 7 1 8-1l-4-3a803 803 0 0 1-24-5m-219 3-26 2a295 295 0 0 1-40-3l-17 2c0 1 13 3 18 2l7 1 19 2h27c16-2 24-5 22-7 0-1-6-1-10 1m206 0c-2 0-1 3 1 4l11 3 15 5c4 2 6 2 7 1 2-1 0-3-5-4l-9-3-17-6h-3m-127 2-2 6v-7c1-2 2-1 2 1m19-1-2 4-3 2v-2c0-3 2-5 4-5l1 1m-11 2c0 3-2 7-3 7v-7h3m-74 6-29 2c-3 0-2 2 2 4h14c13-2 27-4 28-6h-15m26 4c-1 2-2 2-5 2h-5c-2 2-15 4-26 4-7 0-8 0-8 2s3 3 11 2a301 301 0 0 0 41-7c3 0 5-1 4-3l-6-1-6 1m-84 4 10 3c6 0 20 6 30 12l7 4c2 2 8 11 7 12s-16-5-29-11l-18-8-25-8c-6-3-10-6-9-7l10-1c8 1 11 1 17 4m250 0c0 2 5 5 15 8 4 2 5 2 7 1 2-2 0-3-11-7-12-4-11-3-11-2m-143 1-4 2-8 3-9 2-21 1-18 1 3 3c2 3 3 3 6 3l15-2c20-1 30-3 38-8 5-3 5-3 3-5h-5m35 5 5 5c3 2 3 3 3 5-1 2 2 10 4 11l3-1c2-1 2-2 1-3l-1-1c0-2 4-1 9 1l3 1-2 2c-4 3-4 8-2 18 1 3 1 3-1 3-3 0-5-3-4-7 0-5-1-5-4-1-3 3-3 3-8 3-4 0-14-3-19-5-1-1-2-2-2-6 1-5 1-6 4-10 4-4 6-8 6-12l2-6 3 3m92-1c-2 1-1 2 3 3l13 4c10 4 12 4 12 1 0-1-4-3-16-6-9-3-11-3-12-2m-10 5c0 2 24 14 27 14l4-2c1-2 1-3-1-4l-4-2-19-5c-2-1-6-2-7-1m-254 8c-5 5-6 7-2 7l6-5c4-4 5-5 4-6-2-2-3-1-8 4m223-4 9 6c1-1-3-5-6-6h-3m-13 4c0 1 12 9 22 13 10 6 25 8 24 5l-7-4c-7-2-11-4-10-5l13 3c12 4 15 5 15 3l-10-5-4-1-14-5c-1 0-3 0-4 2l-2 2-8-4c-9-4-15-6-15-4m40 1 6 4 12 5c5 2 9 2 8 0a1872 1872 0 0 1-26-9m-80 1 2 7c2 7 7 7 8 0 1-3 1-3-1-3l-4-2c-1-3-4-4-5-2m-8 7c0 1 2 6 4 6v-6c-1-2-3-3-4 0m-174 3c-4 4-1 6 3 2l2-3c-1-1-2-1-5 1m284 11-3 3c-1 1-1 1 1 1 4-1 6-3 6-4h-4m-550 39 1 4c0 2-3-1-5-6-2-3-2-5-1-11v-7l2 9 3 11m428-5a2468 2468 0 0 1-10 61 319 319 0 0 0-9 32l-5 18c-4 14-10 32-12 34-4 4-4 0-1-10a432 432 0 0 0 10-38 832 832 0 0 1 15-55 397 397 0 0 0 12-47v5m-382 1c-1 3 0 6 2 21 4 19 7 29 9 29s1-4-2-16c-2-6-4-16-4-22-2-11-3-15-5-12m295 2-4 10-4 10-3 4a210 210 0 0 1-31 44l-9 7-7 6h13l8 2c13 2 16 2 16 1s-6-4-9-4l-12-4 4-6c14-17 31-42 32-47l6-5c3-2 5-2 9-2 6 1 10 3 11 6 2 3-5 13-15 23-5 5-9 9-8 10l5 1c5-1 18 1 20 3v3c-2 3-7 7-10 8-2 0-3 1-3 2 1 2 1 2 13 6 11 4 13 6 9 12-3 4-5 5-12 6-5 1-1 5 5 5l2 1 3 7c2 5 2 7 1 9l-3 2-2 2c0 2-6 6-10 6-3 0-5 4-3 7l2 2 8 6c6 6 8 10 8 14 0 1-3 5-8 7-3 1-8 6-8 7l5-2 6-2c2-1 4-2 5-6 4-6 4-7 2-13-1-6-3-8-6-8s-4-1-5-5c-1-2 0-3 5-8 6-5 11-14 11-18 0-1-1-3-4-5l-3-4 2-5 3-7c2-2 2-4 2-7 0-1-8-5-13-6-4-1-5-3-1-6 4-5 8-11 8-13 0-3-9-5-14-4s-11 0-12-1l3-3 12-13 5-8c3-4 3-5 3-8l-2-5-22-2c-4 0-4-1-4-3l1-5c1-4 1-6-1-4m-312 13 4 11 5 27 3 14c0 3-1 3-3-4l-5-13-7-23-2-11c-1-7 1-8 5-1m13 5a2451 2451 0 0 0 8 43c0 4 1 6 3 6 2-1 3-4 1-6l-3-8-2-11a1136 1136 0 0 1-7-24m-202-1 2 2 17 9c3 0 0-3-8-7-8-5-11-6-11-4m686 5v2l3-3c0-2-2-1-3 1m54 13-3 4c1 0 3-1 5-4 3-4 1-4-2 0m-36 1-6 8c-2 4-4 8-6 9l-3 7-2 3-1 2h2c0-2 2-3 3-5l5-7 7-10c4-5 5-8 3-8l-2 1m22 1c-2 3 0 4 2 0v-2l-2 2m61 0c-1 4-15 18-21 23-3 2-4 4-4 6l1 3c2 0 16-16 20-22l4-6 3-4c1-3-2-3-3 0m-24 2-2 4c2 0 5-3 5-5-1-1-2-1-3 1m-29 4c-1 1-1 1 0 0l2-1c0-1-1-1-2 1m34 1-2 3c0 2 2 1 4-2l1-2-3 1m-512 8 2 17c0 12 1 16 3 13l-2-34-2-2-1 6m387-4 3 5c0 2 2 3 2 3 2 0 2 0 0 9-3 11-3 30-1 35 2 3 2 3 0 9l-3 7c-1 2-8-26-8-30 1-7 0-18-1-18s-2 1-2 3c-4 6 0 37 5 52 3 9 4 12 1 18-2 2-3 6-3 7l-4 13v-6c1-5 0-7-2-4l-3 6v4l-1-3c-2-7-1-13 2-16 2-3 3-9 1-11a150 150 0 0 1-9-35c-1-6-2-3-3 4v19c1 11 2 13 4 16 3 2 3 3 2 5l-3 3-1 7c0 8-1 11-2 11-2 0-4-3-5-7s-3-6-4-4c-1 1-1 1-1-1l-2-8-1-22c1-13 1-17 4-24 3-12 6-16 7-11 1 4 6 3 6-1 0-2 1-4 3-5l3-7 5-14 4-7c2-4 3-4 7-2m83 2-2 4c0 2 2 1 4-2 4-5 2-7-2-2m22 2-1 3 4-4c0-2-2-1-3 1m-9 2-1 3c2 0 4-2 4-4 0-1-1-1-3 1m-31 3-3 4-3 5c-4 5-4 6-2 6l3-3 5-8 5-6c2-4-2-2-5 2m32 2v1h2c1-1 0-2-2-1m-795 4a613 613 0 0 1 31 3c1-2-4-3-18-3h-13m797 7-11 10c0 2 3 0 8-5 6-6 8-8 3-5m-806 4v2c2 1 12 2 15 1l6-1c3 0 4-1 1-2h-22m813 4-4 4-2 1-8 6-7 5c-2 0-8 5-7 6l3-1a494 494 0 0 1 22-16l7-6c0-1-1-1-4 1m-525 2c-1 3-1 6 1 14l2 9c0 4 0 4 2 4 1 1 1 0 1-10-1-16-3-22-6-17m-42 1 2 2c2 1 2 1 2-1-1-2-4-3-4-1m311 2c-2 1 0 4 3 4 4 0 7-2 5-4h-8m-316 4c0 1 3 4 6 4l7 5c6 4 7 4 8 2 0-1-2-3-6-4l-7-5c-3-2-8-3-8-2m-244 7c-1 2 2 3 13 3 13 1 17 0 18-2 0-2-1-2-15-2l-16 1m416 0v2l2-3-2 1m-71 7c-1 1 0 4 1 3v-4l-1 1m-93 1c-2 2 21 17 24 16 2-1-1-5-5-7l-6-3c-2-3-13-7-13-6m-235 3c-9 1-11 2-11 3s1 2 11 2c12 0 18-2 18-4s-1-2-18-1m328 7v9l1-4c1-4 0-7-1-5m64 6a272 272 0 0 0-21 28l1 1c2 0 8-5 8-6l13-19 7-10c0-2-2 0-8 6m16-3-8 9-7 8c2 1 8-4 10-7l5-7c4-3 5-6 3-6l-3 3m-408 1c-5 1-7 1-6 3 1 1 26 0 29-1 6-2 2-3-8-3l-15 1m244 3c0 1 12 9 19 12 9 4 6-1-4-6l-3-2-11-5-1 1m98 1v6c1 0 2-2 2-5 0-2-1-2-2-1m119 2c-3 2-3 4 1 3l4-2 3-1 1-1c0-2-6-1-9 1m-134 4c0 3 1 5 3 3l-2-6-1 3m149-2c-2 0-5 3-5 4 0 2 2 1 5-1 3-3 3-4 0-3m-481 1-1 2c0 2 0 2 14 2 13-1 18-2 18-4h-31m439 4v1l3-1-1-1-2 1m-183 4c0 2 4 4 9 6 3 0 6 2 8 3 6 5 13 8 13 6l-8-6-6-3-15-7-1 1m173 1v1l2-1-1-1-1 1m-96 8c-1 3 0 5 1 4v-7l-1 3m-299 0c-5 0-9 1-9 2h14c10 0 13-1 13-2 0-2-7-2-18 0m688 1-16 11c0-1 3-6 8-11 3-3 3-3 5-2l3 2m-475 0 11 5c1-1-1-4-4-5h-7m-200 6c-4 0-7 1-7 2-1 1 1 1 10 1 14-1 16-2 16-4 0-1-11-1-19 1m351-1c1 1-1 2-6 4-6 2-20 10-21 12-2 3-7 26-7 29l-1 3c-3 1-2 3 0 11 3 7 2 9-2 9-3 0-7-4-12-14-4-8-4-9-1-6 4 2 5 0 3-3l-2-4h6c2 2 3 0 3-4-1-4 3-15 8-20 6-6 18-15 22-17h10m-131 1c-1 1 1 5 2 5l5 2a148 148 0 0 0 22 9l4 2c3 0 2-2-3-5a966 966 0 0 0-30-13m144 1c0 2 2 3 6 1s8-1 7 1c0 2 0 2 4 1 8-2 9-2 9-1l-3 3c-5 4-2 4 5 2 4-2 8-2 9-2 4 0 2 3-4 5l-5 4c0 2 3 1 10-2l7-3 9 1a255 255 0 0 1 22 4c16 3 17 3 22 8l10 6c29 12 28 11 27 14v6c0 3-1 4-4 5-3 2-5 2-14 2-7 0-11-1-12-2l-5-1h-10l-7-1v3c-1 3-2 4-6 2l-5-2c-2 0-8-5-14-13-4-5-7-7-10-5-5 2-14-4-24-14-8-8-9-9-19-13l-14-5c-4 0-3-2 2-4 6-2 7-2 7 0m-352 4c-5 1-7 2-5 4 2 1 20-2 20-4h-15m-54 2 3 4c3 2 3 3-1 7-3 3-3 3-2 5l4 4c9 4 12 5 22 6l10 1-1 3c-2 4-2 6 0 7s12 0 21-2c10-3 13-3 13 0l-4 13-3 11 2 5c2 5 4 6 7 4 2-3 4-2 4 0a1507 1507 0 0 1 3 21c3 7 6 8 8 5l2-2 1 11c0 13 1 16 7 19 5 3 7 5 9 13 2 9 4 10 15 5a102 102 0 0 1 17-5h8v7c-1 10 2 11 12 4l12-6c1 0 2 2 3 12 1 12 2 13 11 8l9-6 9-7 5-5 2 6c2 8 3 8 11 5l10-7 5-6c1 0 4 5 5 10 1 3 3 2 7-2 10-11 13-16 5-9-5 4-9 4-11 0-2-6-5-5-13 3-6 5-8 6-11 6-4 0-5-2-6-10 0-6-2-9-4-6l-13 17-8 2c-4 0-5 0-7-2l-2-7c0-4-2-7-4-7l-9 4-8 4c-3 0-4-2-4-6 0-5-2-7-8-6l-13 3c-9 2-9 2-13 0-3-1-5-3-7-6-4-8-6-11-11-13s-6-5-5-15c2-13 1-15-4-14-2 0-3-1-5-3-3-2-3-5-5-15l-3-11h-3c-3 0-4-1-4-4l1-7c3-7 4-11 3-14l-1-5-7 2c-14 4-22 5-23 2l2-4 3-5-14-1c-16 1-21-1-23-5-2-3-1-4 2-5 6-3 5-8-2-10-8-2-11-2-11-1m599-1a1156 1156 0 0 1-48 123c-1 7-3 11-5 10s-3-7-2-12a98 98 0 0 1 16-30 434 434 0 0 0 18-44l4-10 3-7a185 185 0 0 1 14-30m-266 7c0 3 0 3-1 1s0-5 1-5v4m-125-2c-3 1-4 3-1 5 1 2 7 1 11-2 2-1 2-1 0-3h-10m20 8h-7l-6 1c-1 2 1 4 4 4l8-2 6-3h-5m449 8-11 10a1636 1636 0 0 0-87 89l2-6c3-5 5-11 3-11-1 0-5 5-6 9-1 3-4 9-10 17-1 3-3 4-4 4-4 0-12 17-13 25-1 9-2 11-5 15l-3 6c-1 3-3 3-3-1-1-4-2-4-4 0l-3 4-1-5c0-5-1-6-3-6l-3 4-2 4v-5l-2-7c-2-1-4-5-5-7-4-8-4-15 1-26l3-9c0-2-3-1-4 1-3 5-3 2 0-5 3-9 7-12 11-8 2 2 4 1 4-3l1-3c2 0 3 5 3 11l1 13c1 5 2 10 1 13l2 22 4-3c4-4 5-10 3-15-3-4-2-6 2-8s11-10 11-12 11-18 16-22l7-10 7-6 7-7a1578 1578 0 0 1 75-66l8-1c4-2 3-1-3 5m-434-2-7 2-6 2h11c6 0 8-1 8-4 0-1-5-2-6 0m414 2-6 7c-2 0-1-2 1-6 2-3 6-4 5-1m-401 4-9 1c-5 0-7 2-5 4s22-2 22-5h-8m409 1 1 1 2-1-1-1-2 1m-410 7c-8 2-6 4 3 3 6-1 9-4 4-4l-7 1m-160 1 10 1-6-2c-4 0-5 0-4 1m-2 8c-2 1-1 4 2 4 6 2 22 4 24 3 5-2-6-7-17-7h-9m232 3v5c-1 0-3-3-3-5h3m12 3c6 4 11 11 13 18l2 6c-1 0-1 1-5-6l-10-11c-3-3-5-5-5-7s2-3 5 0m-243 5c0 2 4 3 10 3l9 2-11 5c-3 1-2 3 0 3l8-2 8-2h14c9 3 24 2 19-1l-5-1-6-1-14-3-17-3h-15m181 4-7 9a14841 14841 0 0 1-45 57c-4 5-5 6-2 6a3417 3417 0 0 1 15-15l25-33a197 197 0 0 1 17-24h-3m-157 9c-2 0-4 2-5 3-2 2-2 3-1 3 2 0 11-4 10-6h-4m246 5 1 9 5 18a205 205 0 0 1 10 35l3 12a254 254 0 0 1 10 40l4 11 1 6c1 3 3 2 3 0-2-8-2-9-1-9l2 5a4334 4334 0 0 0 13 54l3 12 5 23 5 20c0 4-2 5-3 2h-2c-1 2-2 1-3-3-1-3-3-4-2 0 1 6 1 8 3 8s3 1 3 2c0 2 0 2-1 1h-2c-1 1 1 10 2 12s3 0 2-3c0-3 0-3 1-1 2 4 5 22 5 24l-1-2-5-15-1 1 1 7c0 9-2 4-4-9a104 104 0 0 0-5-18l-1-5a377 377 0 0 1-8-30 1138 1138 0 0 0-27-101 607 607 0 0 0-28-97c-1-4-1-6 3-4 3 3 4 2 3-3v-7h3l3 5m-242 3c-7 4-15 12-13 12l6-3a567 567 0 0 1 14-12c0-2-1-1-7 3m205-1-1 3c0 3-3 3-8-1-5-3-8-2-7 4 0 4 2 8 3 6l5 1c5 1 9 1 11-1v-7c-1-5-2-7-3-5m-98 2v2l1-1c1-2 0-3-1-1m-98 2-21 21c-3 3-3 4-2 5s3-1 11-9a397 397 0 0 1 18-18c0-2-3-1-6 1m-31 1v4l2-2c1-1 0-3-2-2m61 0a80 80 0 0 0-15 22l-4 5-17 18 2 1 14-14 10-10c5-6 8-10 11-17 1-5 1-6-1-5m3 12-5 8a109 109 0 0 1-16 20l-4 3c-2 3-3 4-1 4l3-2c1-2 6-8 12-13 15-16 17-19 15-20h-4m15 0-7 9-12 14c-8 8-9 10-9 11l28-28c4-5 4-9 0-6m370 1-1 2c-1 2-2 1-2-1 1-2 3-3 3-1m-339 3-10 16c-1 2-1 2 1 1s15-16 15-18-4-1-6 1m59 4c-7 10-8 12-7 13 0 1 1 1 2-1l11-17c0-2-2 0-6 5m-85 2c-4 4-5 6-3 6l9-10c0-2-2-1-6 4m37-3-5 6-5 5-3 4-1 3-2 2a9200 9200 0 0 1 20-22l-4 2m33 0a186 186 0 0 1-20 28c1 2 6-2 8-6l3-4c2-1 8-11 8-13l2-2c1-1 2-4 0-4l-1 1m-24 3-3 4-14 17c-5 7-1 6 6-1 6-6 15-19 15-21s-3-1-4 1m69 0-2 8c-1 5-9 21-11 21-4 0-9-5-9-9 0-5-3-4-10 3l-6 7c0 2 3 1 6-2l5-3 3 6c3 5 6 7 9 7 2-1 4-3 8-10l7-15c2-7 4-8 7-4l4 3c3 0 7-4 7-8 0-5-1-6-3-3l-2 3-5-3c-6-4-7-4-8-1m-167 4v2l3-2v-2l-3 2m43 5c-3 3-2 5 1 3l3-5-4 2m77 1-4 7c0 2 3 1 5-3l3-4h-4m-130 5-3 4h1l4-4c4-5 3-5-2 0m72 3-3 3-2 3c-2 3-1 2 3-2 6-6 7-8 5-8l-3 4m-26 0-1 2c1 0 4-1 4-3 0-1-1-1-3 1m33 3-5 5c-2 3-2 3 0 3l5-5c4-5 4-6 0-3m325 7c-4 7-4 10-5 18 0 8 0 9 2 13l5 7c3 2 3 2 4 1 3-2 2-5-2-7l-5-5 2-12 1 1c-1 3 0 8 1 8 2-1 3-4 4-18 1-11 1-14-2-14l-5 8m38-5c-2 1-3 9-1 9 1 0 4-4 4-7 1-3 0-4-3-2m-52 15-2 7-1-2 2-4c0-4 2-8 3-8l-2 7m-112 73c0 2 0 3 2 3l1-2-1-3c-2-1-2-1-2 2m3 12 1 2 1-1-1-1h-1m-239 29-5 3c-3 2-4 3-5 7-2 7-2 9 0 14 3 7 2 10-3 10-4 0-13 3-16 5l-5 3-8 7-11 8c-2 2-6 5-6 7l-6 2c-5 0-14 3-24 9l-7 4-6 3-3 2-4-4a78 78 0 0 1-17-21c0-4-3-12-4-13-2 0-12 10-14 15l-2 4 2 2 7 6 10 10c5 6 6 7 6 14v9c-2 2-1 17 1 18l6 5 5 3c2 0 2-2-1-6-4-3-6-8-5-11 0-3 1-2 4 4 3 4 4 5 8 2 1-1 3-2 4-1 2 0 2 0 2-2-1-3 1-7 3-8l1 1c0 4 3 0 5-4v-11h-3c0 2-2 3-2 1l-3-5c-3-4-2-6 2-8 10-5 21-7 39-7 16 0 28 2 38 7l8 3 10 8 5 5c2 1 2 1-2 6l-9 12a125 125 0 0 0-24 50c-2 8-2 11 1 11s3-1 4-14c2-11 2-12 7-23a109 109 0 0 1 11-18c6-11 28-27 50-35l14-7c5-3 7-3 13-4 7 0 8 0 10 2 3 3 3 3 11 3s9 1 9 5c-1 3 0 4 4 4h7l7 2c4 4 13 7 14 5h4l17 16 5 8a77 77 0 0 1 18 27c3 5 5 9 11 26l4 8-7-23a403 403 0 0 0-18-34c0-2-7-11-15-18a105 105 0 0 0-32-24l-7-2c-5-2-12-8-12-12l-6-16-3-11c-2-12-1-15 4-19 4-3 8-9 6-11-1-1-2-1-5 1-6 2-14 10-18 19-3 7-3 5 2 24 1 4 2 8 1 9 0 3-6 3-9 0-5-5-12-10-13-9-1 0 2 7 4 9 4 4 2 6-6 9l-10 4c-1 2-5 3-7 3-3 1-7 2-10 5l-8 4-6 1h-7l-4-2-5-2-5-3-4-2c-4-3-16-9-23-10-11-2-16-3-17-5 0-2 6-5 9-5h2l-1-1-3-2c-1-1-1-1 1-3s2-3 1-4c-2-2 1-5 13-10 6-4 9-4 9-1 0 2 0 2 2 3l8-2 10-3 7-1 2-1 3-1c0-2 1-2 7 0 12 3 16 6 26 12l6 3-4-6c-5-4-12-8-18-10l-3-1-8-2-16-4c-2-2-1-6 1-9 2-1 2-2 1-3v-5c1-4-1-13-2-14-2-1-4-1-5 1m1 18-1 2-1 3c-1 3-2 2-3-4-1-3-1-4 2-7l4-3v4l-1 5m252 16 2 3 1-2-2-3-1 2m-167 7c-1 4-1 6 3 12l5 9c2 2 2 7 1 11 0 3-2 3-5 0-1-2-2-3-1-5 0-3-2-14-4-16v-16l1 5m170 4 3 9 1-4c-1-5-3-9-4-9v4m-229 0c-1 1 3 3 4 3l-3-4-1 1m21 14 1 1 1-1-1-1-1 1m-178 7c2 3 3 5 1 4l-5-7 4 3m17 18c6 5 14 16 14 18 0 4-2 6-5 6s-3 0-5-8a46 46 0 0 0-9-17l-5-5c-5-7-5-9 0-4l10 10m448-6v3l1-2c0-2-1-3-1-1m-409 9-1 6-1 7c-1 1-1 1-1-1 0-3-3-9-5-9-1 0-3 11-3 20 0 6 0 7 2 7l3-5c2-6 4-8 4-3 0 6 2 6 4 1 2-6 3-14 1-20l-3-3m-55 3-2 6c-2 4-4 5-8 6-3 1-6 2-8 1-5-1-36 6-47 10-7 2-19 9-22 13l-6 3c-4 0-9-4-9-9-1-4-1-4-4-4-2 0-3-1-5-4-4-6-8-8-12-8-6 0-8 1-9 5l-1 7c-1 3-1 3 4 19 2 5 2 6 7 7 7 1 8 2 9 5 1 2 0 7-3 12-2 3-7 22-7 26l-1 14c0 5 0 9 2 14 3 10 3 13 0 14l-6 4-13 6c-8 4-8 4-8 7 1 3 0 4-5 10-6 6-7 9-4 10 2 0 1 2-1 6l-3 4-2 6-2 5-2 6c-1 4-2 26 0 26l1-2 1-4 3-6a215 215 0 0 1 12-40l11-16a2630 2630 0 0 0-8 15 138 138 0 0 0-12 45 178 178 0 0 0 48 121l6 7c0 2-7-4-11-7a1023 1023 0 0 1-23-29l-8-18c-7-13-11-25-13-40-2-8-5-14-6-12-3 4-3 9-1 20a175 175 0 0 0 37 76c3 2 4 4 3 4-3 0-9-7-11-11l-5-8c-9-9-18-29-22-44-1-8-5-15-7-15-3 1-4 17-1 23 1 3 2 5 1 8 0 5 1 7 12 25 5 7 10 17 13 25l6 7 17 14c5 4 9 6 11 5l7-1c4 0 5 0 6-2 2-2 3-2 7-2l6-1c2-1 3-1 5 2 1 2 1 3-1 6l-3 3c-3 0-4 3-4 8 1 6 2 8 6 8 3 0 5-4 6-10 0-4 1-6 2-6 1-1 6 4 8 7 1 2 18 11 20 11 3 0 3 2 0 2l-14 1c-15-1-15 0-9 9l5 8-3-1c-3-1-3-1-3 1l2 3 7 5 7 5 6 3 9 5 17 10 13 7 5-2h10c4 2 7 6 7 10l6 9c6 8 16 13 32 16l10 3 18 2 14 2a92 92 0 0 0 52-21l7-5 3 3c1 3 2 3 5 3l7-4 9-5a394 394 0 0 0 67-30c4-2 6-4 8-7l6-6c3-2 4-3 2-5-1 0-3 1-5 4l-7 6a156 156 0 0 1-42 24c-5 3-16 6-25 7-4 0-8 2-12 4l-7 3c-3 0-7-7-7-11l-2-8c-3-4-3-5-2-10 2-8 3-11 10-16l6-6 2-2c1-1 1 0 1 2l-2 7c-2 3-1 4 1 4 2-1 4-8 6-14 0-3 0-3-2-4-2 0-2 0 0-7 1-4 4-8 7-12l4-6-10 6-6 3c-2 0-5 1-8 4-5 4-6 5-3 6 2 1 1 2-3 8l-5 7-7 8-8 5c-8 6-20 13-23 13l-18 5c-11 4-22 6-34 6l-12 1c-18 1-19 1-23-1-3-3-8-5-14-6-7-2-26-11-33-16a95 95 0 0 0-25-16l-3-2-3-5-2-3 14-2c18-3 21-3 34-10 11-5 15-8 19-12l3-2c3 0 12-4 16-9l7-3 36-9 34-5 14-2 9-3 13-5c6-3 7-2 4 2-3 3-3 4 3 4h4l-4 4c-3 2-3 3-2 4h4c5-2 5-1 1 4-3 4-2 5 2 3 5-3 5-2 5 1-1 3-1 3 1 3l3-1h3c2 1 3 1 6-1 4-1 5-3 5-8 0-2 1-3 3-4 2-2 2-2 1-4-2-1-2-1-6 2-4 4-5 4-9 3-3 0-3 0-2-2 4-4 0-11-5-11-2 0-3-3 0-5 1-2 1-5-1-3l-4-2c-4-3-5-3-8 1-3 2-4 3-9 3s-5 0-5 2c0 3-2 5-7 5s-5-1-1-2l2-2-4 1a125 125 0 0 1-101-27l-9-7a146 146 0 0 1-32-37 158 158 0 0 1-21-40l-2-7c0-5-2-16-5-23l-2-7 6 1c4 2 7 3 9 6l4 4 15-3a473 473 0 0 1 39-8c5-1 24 0 31 2l11 4 9 3 10 7 11 9 10 10a2798 2798 0 0 0 36 43c4 6 6 8 12 11l5 3 3 3 6 7c4 6 7 8 6 3-1-4-4-7-6-8l-4-5-6-15a258 258 0 0 1-14-131c2-9 11-27 15-30l7-6a172 172 0 0 0 16-21l6-10c3-6 3-8 3-17 1-17 4-20 10-10a399 399 0 0 0 13 25l2 3v-3c0-4-3-13-5-18l-2-5c2 0 10 11 14 20l4 3v-4l-1-4c3-1 10 7 12 13l8 15a122 122 0 0 1 9 13c7 8 13 21 19 40 2 9 4 21 3 22l2 8c1 8 1 20-1 27l-1 11-2 14a187 187 0 0 0-9 28c-2 7-3 9-2 11 2 3 3 2 7-1l7-7 5-3c1-2 12-6 14-6a76 76 0 0 0 54-37c8-11 8-14 8-25v-9c1 0 7 9 9 15a92 92 0 0 1-6 73c-7 12-13 27-15 32a134 134 0 0 1-23 38l-9 9-15 10-9 3-8 2-8 2c-5 0-6 4-3 8l6 7c3 2 3 3 2 5v14l-7-12-6-10-4-6-6-11-10-20c-6-11-6-13-2-21 2-4 2-4 1-9l-5-9c-4-6-5-10-5-18 0-7 0-8 2-10l4-3 3 5c2 4 2 5 1 10-4 13-3 17 1 17l11-11c0-1-2-1-5 1-4 2-4 0-2-9 2-12 1-13-8-14l-9-3c-3-2-3-2-5-1-1 1-1 2 1 3 2 2 3 3 4 16 1 12 1 13 3 15 2 1 2 4 0 4l-2 1-4 2c-3 1-3 1-3 11-1 3 0 3-7 2-3-1-4 1-2 5 2 3 2 4-4 1-6-2-9 0-9 4 0 3 0 4-3 5-4 1-5 4-2 6 1 1 1 1-4 3s-7 5-3 5c3 1 3 2-2 4-4 2-8 8-11 15l-3 6c-3 3-4 5-2 5l4-2 5-2 1 2c0 3 2 2 9-2 6-4 8-7 4-7-3 0-4-2-2-4h7l7-1c1-1 4 1 11 6l12 9a319 319 0 0 0 16 19l4 7 3 7c1 4 2 8 6 14l2 8 2 9 3 8 5 18 5 14v13c0 18 3 29 8 34h10l16-8c4-1 6-6 6-10-1-5-3-5-5-1l-2 3v-4c1-2 1-3-1-6l-2-9c0-7-2-18-7-32a339 339 0 0 1-10-31l-3-7-9-21 2-1 1-3 2-7c2-6 2-8-3-14-2-2-2-3-1-4l10-3c9-2 23-9 30-14a95 95 0 0 0 26-39l6-15 6-15c7-16 12-26 15-38 3-10 3-11 3-23-1-20-6-38-13-47s-9-19-5-26c1-3 2-4 7-4 7-2 16-6 16-8s-5-4-10-4l-14 4-9 3-4-3-4-5c-1-2-17-13-21-14l-9-1c-6 0-5-1 1-2 4-1 5-2 2-4-2-2-4-2-6-1 0 1-2 2-5 2-3 1-4 1-7-1s-7-2-14 2c-4 2-4 3-13-2l-7-7-11-13-6-8-4-7-2-4c0-1-10-13-17-19-15-13-26-21-31-21-4 0-8 10-10 26-3 17-6 24-12 32a16349 16349 0 0 0-26 29l6-12c2-2 2-3 1-4v-4c0-3 0-3-2-2-4 0-4-2 0-5 3-3 3-4-2-3h-4l5-6c5-5 6-7 2-5l-4 1-3 1 2-3 6-7c6-5 6-8 0-5-4 3-5 2-1-2 6-7 6-7 3-6-4 0-4-1 1-5l10-11-7 3-2 1c-2 0 2-5 9-10 3-2 5-4 5-6s2-3 6-5a12236 12236 0 0 1 44-11h-21c-5 1-9 2-17 6l-3 1-8 4-13 5c-6 2-9 4-9 7h3c2 0 2 0-1 3l-9 7-5 5h4c1-2 3-2 3-1l-9 13c-3 2-2 3 0 3s2 0 1 2l-5 7c-4 4-5 6-2 6 3-1 3 1 0 5s-4 6-1 6c2 0 2 0 1 3l-4 2c-5 0-3 2 9 9 4 3 4 5 3 11-1 5 0 6 4 6 2 0 2 0 2 2l-3 8c-3 5-3 6-2 14 0 10-1 12-5 8-2-3-3-3-5-2l-2 2-3 12-3 12c0 3-2 6-5 6l-2 2c0 2-3 2-7 0-8-5-6-2 3 6 8 6 9 8 7 8l-8-4-13-7c0 1 4 5 10 9 5 4 12 11 9 10l-18-13c-10-6-11-7-9-1 1 3 1 3 3 3 3 0 4 1 21 16 4 4 3 4-2 1l-8-5c-5-4-8-4-4 0 3 4-1 2-9-4l-12-8c-3-2-5-3-5-6 0-4-1-5-8-6-6-1-8-2-4-3l2-3-4-3-7-1-3-1 2-1c4-2 4-4 0-5-5-2-5-3-2-5 2-2 2-2 1-3-1-2-18-6-19-5l2 3c4 3 3 5-1 5-3 0-3 3 1 4 4 2 4 2 0 4-5 1-5 3 0 5l4 2c0 1-10 2-11 1-2-2-3-10-2-19 1-11 1-11 5-16l6-8c2-4 2-5 1-7-1-1 0-2 5-7 7-7 10-9 13-7s7 8 7 10l3 6 2 6-2 8c-2 9-2 15 0 16s6-1 9-4l6-5 24-17c13-10 15-15 3-8-5 3-5 3-13 2-9-1-14-3-17-8-5-8-5-9 4-13 6-4 8-5 7-6 0-3 5-4 9-2h3c0-1 1-2 3-2 2-1 2-2-6-2s-9 0-20 6l-7 3-5-8c-4-10-7-16-9-16s-4 1-6 4v21c1 3 1 3-1 5l-6 4c-10 6-25 24-33 39-3 6-7 21-8 28l-3 5c-2 2-11 6-18 6-4 1-6 1-9-1l-7-3-7-2c-4-2-5-3-6-7l-1-7v-3l3 3c4 4 6 4 6 0 0-3 0-3 4-3 3 0 3-1 4-6s2-5 4-3c2 1 2 1 2-1v-6c0-5 1-5 4-2 2 2 2 2 3 1v-6c0-5 1-6 3-2l3 3c1 1 3-2 2-4l-1-4h-2c-1 1-2 0-6-4-7-7-8-7-5 1l1 6-5-3c-5-4-6-4-6-1-1 3-4 3-7 0s-4-1-3 3c1 3 1 3-1 3l-5-4-4-4 2-3 5-4 3-2 8-3c7-3 10-3 48-5h22l4-4c6-4 6-5 3-7l-8-6-7-5c-5 1-5-1-1-3 2-1 3 0 10 4s9 4 9 2l-3-2a82 82 0 0 1-22-22l-2-3 7 5 15 10-7-8c-7-8-12-14-10-14l7 5c6 5 15 10 16 9 1-2-3-6-6-8-9-4-21-17-20-21l6 4c7 7 15 12 16 11 1-2-1-6-6-8-6-3-9-7-13-13l-4-4-1-2c0-2-5-6-7-6-1 0-1 3 1 11 1 4-2 4-4 0-1-4-2-5-3-3-1 1 2 11 4 15 3 5 5 11 4 11-1 1-8-9-10-14-1-5-2-6-3-3-2 3 3 15 9 22 7 10 8 11 11 11l3 1c0 3-8 4-11 2l-2-2 1 2 3 4 2 4c3 3 1 5-2 3l-6-4-4-3c-2 0-1 3 6 9 7 8 8 10 3 10-3 0-8-4-13-13-4-6-6-7-6-4l1 1 1 3 3 5 5 6 3 4-2 2c-2 1-10 2-14 1-2 0-1-2 2-2 3-1 4-3 3-5h-4l-3 1v-6c1-7-2-17-6-18l-2-2-1-6-2-4-1 3-2 4 1-5c1-11 2-18 5-20l3-7 4-3c1 0 1 2-1 4-1 2-2 9 0 9l3-5 8-12c14-19 18-26 18-30 0-7-4-12-6-7m462-1-1 3v3l1-3v-3m-14 4-1 5-1 1c-1 0-1-3 1-8 1-3 2-2 1 2m-263 1c-12 4-22 9-24 12l-2 2 12-5a262 262 0 0 1 30-11l-4-1-12 3m514 1c-3 4 3 13 11 19 4 3 6 4 7 3 2 0 8-12 7-13l-4 3c-4 5-6 5-8 1-2-6-6-10-9-12-2-2-3-2-4-1m36 1-5 3c-4 1-4 3-1 3 4 0 5 2 6 11 2 12 3 14 8 10l4-4c3-1 2-3-1-1h-4l-2-19c-1-5-2-6-5-3m-276 3-3 10-3 10-1 7-2 7 1 2c2 0 3-1 4-7a306 306 0 0 1 6-31c0-2-1-2-2 2m-242-1h2c1-1 0-1-1-1s-2 0-1 1m6 0 2 1 1-1-1-1-2 1m176 13-3-9 2 3 1 6m371-10-8 7-2 2 6-3 6-3 1 5c0 4 0 4 2 4l4-1v-11h-9m-102 3c-3 4-7 14-9 26-6 23-6 25-8 26s-3 1-3-9c-1-8-3-14-7-16l-4-2c-3-3-4-3-6-1l-2 3c0 2 0 2 2 1 5-3 9 0 11 7l3 18c0 8 1 9 4 9 5 0 7-2 7-11l2-14c7-26 7-28 10-28 0 0 2 1 2 3 2 2 3 2 6 2 5 0 6-1 11-7 4-5 4-7 0-4-4 4-7 4-9 0-4-7-5-8-10-3m-469 2-10 1c-4 1-6 2-5 3l9-1a217 217 0 0 1 37-2h3l-3-1h-31m34 1 13 1-2-1h-11m-258 3 3 1 3 1c1 1 0 3-4 6l-7 4-7 3c-6 3-8 4-8 2l-3-4c-3-3-5-4-5-1 0 2 7 12 8 12l7-3c11-5 12-5 8 3l-2 6-1 4c-2 2-5 12-6 19a245 245 0 0 0-1 37l2 1c0 2-2 3-7 5l-7 3c-2 3-4 2-5-1 0-2-6-10-12-18l-26-32c-2-3-5-4-5-2l3 6 6 10 5 7a273 273 0 0 1 18 22c4 4 5 6 2 6s-7-4-18-17a230 230 0 0 0-14-19c-2-3-7-7-8-6-1 2 1 6 8 14l9 12c1 3 4 6 8 9 6 5 5 7-2 2l-7-3c-4-2-5-3-5-5l-4-7a423 423 0 0 1-10-9c-1 1 0 5 4 10l3 4c0 2-3 1-5-1-3-2-5-3-5-1l4 7 4 8c0 2 2 4 9 8 4 4 7 7 7 9l-8 1c-8-1-9-1-9-3s-2-4-4-6c-6-4-7-6-7-16-1-12 1-27 5-38l1-4c0-4 3-10 4-11l-1 4-3 15v3l3-3 1-3 3-8 4-8 3-7 6-6 5-3 3-1 6-3 7-5 10-3c10-5 12-6 20-7l8-2c1-1 5 0 6 2m275 8h2c1-1 0-1-1-1s-2 0-1 1m268 0c-2 1-3 9-2 11l1 10-9-1c-9-2-11-2-12 2-2 3-1 6 2 10 5 5 6 10 5 12-2 3-5 4-15 4h-9v5c0 5 0 7 2 9l2 3-2 2-3 2c-2 0-8 6-9 9-2 5-1 8 1 13s2 5-4 7c-2 0-4 1-6 4-3 5-3 8 0 13 2 3 6 5 4 2l-2-2c-2 0-1-6 1-10 3-3 9-5 13-3h3v-3l-3-3c-1 0-4-8-4-13 0-6 1-8 8-9 6-1 8-2 8-7 0-3-1-5-3-8l-3-5c1-2 12-4 18-3 3 0 4 0 8-3l4-2-2-2-6-8c-4-5-4-6-4-9l3-4c2-2 8-1 13 1 3 2 4 2 6 1 3-1 3-2 3-5s0-4-4-10v-3l4 2c2 2 11 4 11 3l-2-2-6-5c-4-4-8-6-10-5m-630 5 9 12c0 2-2 1-5-2l-7-8c-4-4-5-7-3-7 1 0 4 2 6 5m69-4c0 1 2 2 4 1 2 0 1-2-1-2l-3 1m304 0c1 2 7 3 7 1 0-1-2-2-5-2l-2 1m289 1c-1 3-1 6 1 9 2 4 1 9-1 10-2 0-2 0 0 3 6 4 8 2 7-10l1-8c3-1 2-2-1-4-5-2-6-3-7 0m134 1c0 2 1 3 2 1v-1h-2m-749 3 3 6 9 15c8 11 10 13 11 11l-4-8c-15-25-15-25-17-25l-2 1m92 4v2c1 1 4-1 4-2 0-2-3-2-4 0m567 0-3 4-4 5c-2 1-2 1-1 3 2 1 3 1 8-1 2-1 5-2 6-1l1-3c-1-4-3-8-5-8l-2 1m167 2c-3 4-4 9-1 8l5-10c0-2-2-1-4 2m-836-1c-2 1-1 3 4 9l8 13c5 8 15 19 17 19l1-1-16-24-10-14c-1-3-3-4-4-2m828 1c-8 13-10 16-11 24l-4 14c-2 6-2 8 0 7l3-9 5-12 3-9 2-4 2-5 2-6c2-3-1-2-2 0m-873 7c0 1-1 1-6-3-4-4-2-5 2-2l4 5m803-4-1 6-1 7-2 8-6 17-3 10-5 11c-1 2-2 4-1 5s5-5 7-10l6-15a63 63 0 0 0 7-29l1-3v-8c-1-1-1-1-2 1m17-1c-2 0-4 5-6 14-2 13-5 9-3-5 1-7 1-9-2-7l-1 13v11h4c7 0 8-1 8-9l2-12c1-4 1-6-2-5m76 8c-8 8-15 17-15 20 0 2 2 1 6-5 5-8 14-17 16-17s2 0 1 4l-7 9-5 7 6-4c5-6 5-6 5-3l-4 19c-2 6-5 10-10 12l-10 6-7 3-6 2-9 4c-3 1-4 3-4 4l1 2 9-5 11-6c28-14 30-15 29-18-1-5 12-21 24-30l7-5c2-3-1-3-6 1l-8 6-7 5-3 2 2-3 11-14-2 2-2 2-4 3c-3 2-6 3-6 1l2-3c4-5 4-7 1-9-5-2-6-1-16 8m-238-6 3 1v-1l-3-2v2m138 1c-2 5-3 19-1 19s4-6 4-14c1-9-1-10-3-5m31 3-3 8-2 5v4h7l4-21-1-2c-1 0-3 2-5 6m58 1-8 11c-1 2-1 2-2 1l1-4c1-3 1-5-1-5s-5 7-5 14c-1 4-1 5 1 6 3 1 5 0 5-3 1-3 6-11 12-18 7-8 7-9 6-9l-9 7m-95-3c-3 8-5 31-3 31s3-2 3-7l1-9a80 80 0 0 0 2-15c1-3-2-3-3 0m52-2c-1 0-8 14-8 18 0 2 2 4 4 2l3-5 2-9c2-5 2-7-1-6m-284 2-1 1v-2c1-2 2-1 1 1m-523-1 13 23a190 190 0 0 1 14 20l4 6 7 8 4 5v-4l-3-7a210 210 0 0 1-21-30c-4-4-6-8-6-9l-2-3-5-5-4-4h-1m711 3-7 16-3 4c-2 1-2 1-5-1l-5-9c-5-13-7-9-2 4 3 9 5 13 9 15 3 1 5 1 5-2a337 337 0 0 1 8-23c2-4 2-7 0-4m105 1c-3 2-7 11-7 14 0 2 3 4 3 2l2-6 3-7c2-4 1-6-1-3m-474 0 12 5c7 1 6-1-1-3-9-3-11-3-11-2m561 4v1l1-1v-1l-1 1m-80 2-1 2c1 1 4-1 4-2 0-3-3-2-3 0m-830 1 3 6 8 13 26 35c4 4 7 5 7 3l-5-7a907 907 0 0 1-32-45c-4-7-7-9-7-5m292 3 4 12c1 0 1-2-1-9-1-4-3-6-3-3m326 0c-2 1-1 4 2 6 4 3 5 4 5 1 0-2-6-8-7-7m8 1 2 6 2 6c-1 3 1 7 4 11l3 4c0 3 12 20 13 19l-11-28-6-14c-2-3-4-6-6-6l-1 2m-546 3 1 2v-3c-1-1-1-1-1 1m410 1c2 0 6 5 9 10l10 25c1 4 4 9 7 13 2 2 2 3 1 5v12c1 2 1 3-1 5l-6 5c-4 4-5 5-5 2l-2-7a260 260 0 0 1-11-30l-9-28v-8c2-7 2-8 4-6l3 2m404 2c-3 2-1 3 1 0 2-1 3-3 2-3l-3 3m-812 2c0 2 4 7 4 6l-1-4c-1-3-3-4-3-2m535 1c-2 1-1 2 5 8 6 8 11 11 11 9l-4-5-7-8c-3-5-4-6-5-4m-553 6 1 3 1-4-1-2-1 3m223-1 1 10c2 13 2 13 3 8 2-10-1-21-4-18m647 2c-7 2-8 3-7 4l16-3c2 0 1-3-1-3l-8 2m-862 0c-1 1 0 3 1 5 2 4 3 2 1-3-1-3-2-3-2-2m16 1 1 3c2 1 2-1 1-3h-2m522 0c-1 2 5 8 13 12 7 4 9 5 9 3l-5-4-10-8c-5-4-6-5-7-3m-646 4-1 4-1 5-1 6c-1 4-1 5 1 6 3 1 4-2 4-12 0-9 0-11-2-9m638 2c-1 1-1 1 2 3 3 4 18 11 22 11s2-2-5-5l-16-8c-1-1-2-2-3-1m-463 5c0 4-1 7-2 6v-7c0-3 2-1 2 1m144-2c-1 1 0 15 1 15v-15h-1m-160 0 2 1h1l-1-1h-2m808 6c-15 0-14 3 1 3 10 0 11-1 11-2 0-2-1-2-3-2l-9 1m-606 5c0 6 3 15 4 15 2 0-1-15-4-19v4m275-4c-1 1 3 4 10 7 8 2 10 3 10 1l-20-8m-455 4c2 7 6 15 8 18 3 4 4 7 3 7-3 0-15-23-14-27 1-3 2-2 3 2m167 1 1 1 1-1-1-2-1 2m100 3-1 3-2 2c-3 3 2 5 7 3 2-2 2-2 0-6-2-6-3-6-4-2m522-2-4 2h5c5 1 7 1 7-2h-8m-659 4c-1 3-1 7 1 8h1l1-5c0-4-1-6-3-3m-161 3c3 1 2 3-1 1-2-1-3-3-1-3l2 2m153 6v6c1 1 2-2 2-6 1-8-2-7-2 0m651-5 3 1 10 2c6 1 8 1 7-1s-2-2-5-2l-10-1-5 1m-611 3c0 2 1 4 3 4l3 3c0 2 4 4 4 3 1-1-1-5-3-5l-1-2c0-3-2-6-4-6s-2 1-2 3m290 0c4 3 16 7 18 6 3-1 2-2-3-4a196 196 0 0 1-16-5c-2 0-2 0 1 3m-262-1-1 8c0 5 1 7 2 7 2 0 2-1 2-6l-1-8c0-2-2-3-2-1m249 1 1 2c3 0 3 0 1-2h-2m314 1-8 1c-1 2 5 2 13 2 6-1 7-1 9 1s5 2 13 2h10c0-1-9-4-17-5l-9-1h-11m-307 3c0 2 4 5 12 7l8 2c0-1-2-3-5-4l-8-4c-5-2-7-3-7-1m-204 2-4 3c-5 2-3 3 8 4l16 2c8 2 9 2 9 1-1-2-7-4-13-5-5-2-6-2-3-3s10 0 16 3 8 5 6 7-2 2 3 6c9 8 14 19 11 26-1 2-1 5 1 13l2 12c-1 2-3 1-6-4l-3-6c-2 0-2 4 1 12 2 6 2 8 1 10-1 3-3 4-3 2l-2-5-2-6-2-2c-1 1-2 4-2 13 0 11-1 15-2 12-5-16-7-19-7-6 0 12-3 16-4 7-2-8-5-6-5 2 0 3-6 17-7 17-2 0-1-5 1-6 2-2 2-3 1-8-1-10-3-10-4 0-1 9-8 18-8 11l2-4v-7c-1-1-3-1-3 1l-5 10-1-5-1-7-3 1c-2 1-3 4-4 8-2 7-5 12-7 12s0-13 4-20c10-20 11-50 1-77-5-16-5-18 1-18l5-1-3-1c-5 0-6-2-2-3 7-3 17-4 17-1m-404 1c-3 2 5 12 10 12 4 0 5-2 3-3l-8-6-5-3m23 5c4 2 10 9 10 11l4 7c2 4 4 6 7 7 3 2 3 2 2 5-1 7-2 8-4 7l-1-2-12-24-8-8c-9-6-7-8 2-3m251-1v26c2 2 3-2 3-15l-1-13-2 2m330 0 10 5a679 679 0 0 1-4-4c-5-2-8-3-6-1m-244 2-1 5c0 5 1 9 2 9l1-7-1-8-1 1m566 1c-2 2 1 3 6 2l9 1c5 1 10 0 8-2-1-2-21-2-23-1m-768 2 2 4c3 3 4 2 2-3-1-3-4-4-4-1m822-1 1 1 2-1-1-1-2 1m-801 2c2 2 2 3 1 4-1 2-1 2-2 1l-2-4c-1-4 1-4 3-1m105-1c-2 1-1 4 1 4l1-2c0-3-1-4-2-2m17 2c0 3 1 5 2 5l2-3c0-3-3-4-4-2m300 0c2 3 13 6 17 6 5 1 5-1-1-3l-8-2-7-2c-2 0-2 0-1 1m-470 5-6 9-3 4c0-2 5-12 8-14 3-3 4-1 1 1m559 0c1 4 2 5 3 1l-2-3c-1-1-1-1-1 2m-494-1-3 3-4 3-9 6c-1-2 11-13 14-13l2 1m132 0c0 1 6 8 8 8s1-3-1-6c-3-2-6-3-7-2m149 2c1 2 0 2-6 3s-9 0-6-3h12m447 0 2 1 2-1-3-1c-1 0-2 0-1 1m11 0c0 1 7 3 9 2l2-1c-1-2-11-3-11-1m-790 4c1 2 4 4 5 3l-1-3h-4m460 1c5 4 18 5 15 2l-17-4 2 2m-601 1c1 1-3 8-7 15a205 205 0 0 0-20 44c-2 9-2 13-2 27-1 19 0 21 4 37l2 6 2 7 5 10c4 14 19 39 23 41l2-1c1-3-2-10-7-16l-5-7-7-14-4-12a267 267 0 0 0-7-26c0-5 1-6 3-4l5 18a165 165 0 0 0 18 43l4 3c3 2 3 3 2 6-1 4 1 14 4 20l1 9c-1 6-1 7-3 5a78 78 0 0 1-21-20l-3-4c-1 0-10-12-10-14l-8-17c-9-17-11-23-16-41-2-8-2-11-2-24 0-18 1-26 8-46 6-17 9-24 16-30 7-7 7-5-1 8l-4 7-3 7c-3 6-6 14-9 26-7 29-3 53 16 93a102 102 0 0 0 18 31c7 9 16 18 18 18v-5c0-3-7-12-14-18-4-4-16-24-16-28l-7-14-2-7a12123 12123 0 0 0-7-42v-16a197 197 0 0 1 28-73c2-3 5-4 6-2m288 1c0 5 8 10 10 6 0-1-7-8-9-8l-1 2m74-1v22c2 0 3-22 1-23l-1 1m-192 5c0 3 0 3-1 2v-5l1 3m763-3c-1 1 0 1 1 1l2-1-1-1-2 1m-253 2c2 2 3 8 1 8s-4-5-4-8c0-2 1-2 3 0m-656 1 3 7c3 7 4 11 2 13-3 2-2 5 2 12 4 8 8 8 8 0 0-4 1-4 4 1l3 4-3 2-2 3 1 5c4 9 4 8-1 6l-5-4c-3-3-7-12-9-17l-3-6-2-7a467 467 0 0 0-3-7c-3 0-2 3 0 14 2 10 10 24 21 41 2 2 3 6 2 6l-4-2a174 174 0 0 1-25-51c-3 0-3 1 4 24l8 18 13 23c0 2-3 1-5-3l-8-14a611 611 0 0 0-9-18c0-5-7-19-8-20-5-1-3 8 8 34a228 228 0 0 0 11 21c5 6 4 11 0 8-3-2-12-16-12-18l-3-10a1503 1503 0 0 1-8-19l-1 4c-1 4 1 10 6 23l3 6 5 10c4 8 5 11 4 14 0 2 0 2-2 0-3-2-5-7-7-12-2-7-7-17-7-14a165 165 0 0 0 8 30l-2-2a405 405 0 0 0-8-24c-4-10-4-11-4-22a83 83 0 0 1 7-37l5-9c7-14 11-18 13-13m-16 0-3 7-4 8-2 6c-3 5-4 8-6 20-2 10-3 13-4 10-1-2-2-1-4 6l-5 30c0 3 0 4-1 3a114 114 0 0 1 4-43 103 103 0 0 1 21-44c2-4 4-5 4-3m127 0 2 3c4 2 8 3 10 1 1-2-11-6-12-4m459 1c-1 1 5 3 12 3 8 1 8-1 1-2a314 314 0 0 1-13-1m-274 1 2 5 6 5c5 5 8 6 6 2 0-2-11-13-12-13l-2 1m223 6c2 5 2 31-1 41-2 9-3 15-4 55a402 402 0 0 1-1 38c0 17-2 37-3 37l-2-4c0-3-1-4-3-6-2-1-2-2-2-7 1-7-1-38-1-39-2-1-2 2-3 11l-1 22v-32l3-7c2-1 2-2 2-4l1-17 2-31c1-21 4-46 5-46l2 2 1 2 2-6c-1-1 0-12 1-12l2 3m-593 0 2 1 1-1-1-1-2 1m339 7c1 2 5 4 7 3 1-1-3-5-5-5s-2 1-2 2m-34 0c-1 3-1 26 1 26l1-17c0-9 0-12-2-9m436 2c-1 5-1 5 2 1l1-4-3 3m-96 1 7 4c4 1 3-2-1-3-4-2-6-2-6-1m-315 2c-1 2 0 3 2 3s2-1 2-2c-1-2-3-3-4-1m-389 2-4 2-4 1c-3 0-3 0-4 4 0 3 0 4 3 9 2 5 3 6 7 6l7-1c3-2 7-1 9 3s8 9 13 12c2 1 3 1 4-1 2-2 2-4 2-8l3-3c4-1 4-4 0-5l-3-2-3-1-3-2c-1-3-4-6-7-6-3-2-3-4 2-4 4 0 4-2 0-4h-22m476 4-2 7 1 2 2-5c2-7 2-8 0-9l-1 5m-46-3 12 12c2 0 0-3-4-8-5-4-8-6-8-4m306 1 2 1c2 0 3-1 1-1h-3m-340 2c-1 1 4 6 5 5 1 0 1-3-1-4-1-2-4-2-4-1m586 1-23 7c-4 1-11 5-11 6a347 347 0 0 1 44-13h-10m-39 3-19 4-5 2 2 1 9-2c7-1 19-4 22-6 2-1-3-1-9 1m-175 1 3 1 1-1c0-1-1-2-3-2s-2 0-1 2m-751 3 1 2-6 1c-8-2-9-3-4-5l6 1 3 1m724-1 1 1v-1l-1-1v1m6 0c0 1 3 2 8 2l9 1c7 2 8 0 1-1-7-2-18-3-18-2m-359 2c0 2 8 10 10 10l1-3c0-2-1-3-4-6-4-3-7-4-7-1m605-1-4 2 2 1 5-2 3-1h-6m-742 2c7 1 6 2-2 2h-15c-9 1-10 0-3-2 4-2 10-2 20 0m387 3c-1 4-2 3-2-1l1-3 1 4m-6 0-1 3-1-1-1-4 1-1 2 3m267-1-9 2-9 2c-1 2 1 2 8 1s14-4 15-6c0-1-2-1-5 1m-572 4c-1 2-4 0-4-2v-2l2 2 2 2m644-3c-5 2-6 3-5 4h5l4-1 4-3c2-1 2-1-1-1l-7 1m-540 1 10 9c1-1-3-7-6-9h-4m370 4 1 1 1-2-1-1-1 2m-437 6c0 5 1 10 3 10v-9c-2-5-3-5-3-1m21-2c-1 2 1 5 5 10 4 3 8 4 8 1l-11-12-2 1m375 0 8 2a320 320 0 0 1 14 1c-1-2-5-3-15-4-6 0-8 0-7 1m262 1-6 1-9 3-13 5c-6 2-10 4-8 5l7-2 17-5c13-4 20-6 20-8 0-1-4-1-8 1m-463 2c0 2-2 1-2-1v-1l2 2m74 3v8c-1 5-1 5-2 3s-2-8-1-15c0-2 1 0 3 4m-394-1c0 2 3 4 5 4v-2c-1-3-5-4-5-2m-139 11a81 81 0 0 0 3 20c1 3 0 4-1 3l-2 2c0 3-2 4-2 1-2-4 0-37 1-37l1 11m329-9c0 2 9 11 11 11 3 0 2-4-3-8-5-5-8-6-8-3m490 0-14 5-9 4c-2 0-5 1-7 3s-3 2-3 0c-1-2-5-1-7 1l-5 8 5-3c5-3 5-3 5-1-1 2-1 2 1 2l3-1 8-5a975 975 0 0 0 22-9l12-4 2-2h-2l-11 2m-697 2-1 1c0 2 6 7 8 7 3 0 2-4 0-5l-4-3h-3m327 2c1 3 1 5-1 5s-2-1-2-4c0-5 2-5 3-1m22 0c-2 6-5 12-8 14-3 4-4 6-1 6l3-4 3-4 3-4c1-5 3-6 3-3 0 4-2 9-7 19l-5 9c0 4 10-9 13-19 4-9 4-12-1-15-2-1-2-1-3 1m-364 0c-3 2 10 13 14 13 2 0 1-3-3-8-5-4-9-6-11-5m52 3 8 7-2-4c-4-4-6-5-6-3m124 0c-1 2 1 5 5 8 8 6 9 3 2-4-5-5-6-6-7-4m470 2c-13 4-12 6 1 2 6-2 8-4 7-4l-8 2m-656-1c0 3 13 14 16 14 2 0 1-2-5-9-7-6-11-8-11-5m806 1v1l1-1v-1l-1 1m-815 3c-5 3-4 9 0 12 2 0 6 4 10 8 7 6 10 8 11 5l-7-8-6-7 8 4 8 4-5-6c-15-14-16-14-19-12m-153 5c-2 4-2 21 0 30l4 10-1-41c0-3-2-2-3 1m395-1c0 2 7 8 9 8 3-1 2-4-2-7-5-3-7-4-7-1m110 0-1 3c-1 2-3 0-2-2 0-2 3-3 3-1m-297 2c-5 2-2 3 8 4 11 0 13-1 5-3-7-2-10-2-13-1m47 2c0 3 1 5 2 5 2 0 1-4 0-5h-2m722 3-2 2 3-1 6-2c2-1 2-1-1-1l-6 2m-684 3 1 4c-1 0-5-5-5-7s2 0 4 3m201 0c0 2-1 3-3 1 0-1 1-5 2-4l1 3m-225 2c0 5 1 7 4 5 2-2 1-5-1-7-3-3-3-2-3 2m79 0c0 3 8 9 10 7 1-1-2-6-6-8-4-1-4-1-4 1m47-1 3 4c2 2 2 2 3 1s1-2-1-4c-4-2-5-3-5-1m-245 3 1 3c1 2 20 15 21 15 2 0 1-3-1-4l-2-2-5-5-4-3c0-1-7-6-9-6l-1 2m75-1c-3 1-3 3-1 4h5l7-1c3 0 4-1 3-3h-14m375 14-2 14 1-24c1-7 1-4 1 10m-296-9 6 13-4-5-6-12 4 4m232 6c-4 6-5 8-4 10 2 2 2 1 6-6 3-6 5-13 4-13l-6 9m264-6 1 2c0 1-9 0-12-2l-3-1 2-1c3-1 10 0 12 2m-408 3c-1 2 1 4 4 7 5 2 5 3 5 0l-4-5c-3-3-4-3-5-2m388 0c4 3-1 6-8 3-4-1-5-2-4-3h12m-530 1c-4 2-4 4 1 4 3 0 5-1 5-2 0-2-3-3-6-2m65 2 3 6 2 7c3 4 5 9 3 8-1-2-10-18-10-21v-3c1 0 2 1 2 3m643-2-10 1c-6 0-9 1-8 2l13 1 16 1c1 1 2 2 2 5l2 9c3 5 5 17 5 18-1 1-7 1-15-1-10-1-10-1-12 2l-3 3h-2l3 7c6 11 4 13-5 5l-7-6-7-4-8-4v12c2 10 1 17-2 14l-4-1c-2-1-2-1-1 2 3 4 7 7 10 7h4v-12l1-12 8 5c6 6 16 12 19 12s3-6 0-15v-9c1-2 2-2 5-2l9 2 10 2c7 0 7-2 2-12l-5-16c0-9 1-9 8-6 6 2 8 3 8 1s-15-8-23-10c-6-2-9-2-13-1m-676 3c0 1 3 3 4 2l-1-2c0-2-3-3-3 0m-42 0c-1 1 0 1 2 1 3 0 3 0 2-1h-4m566 0c2 1 4 5 3 6l-9-1-8-1c-1 2 2 3 10 4 12 3 15 4 13 8 0 1-1 1-14-1l-9-3c-3-1-3-1-3-5 1-2 0-3-1-4l-2-3 9-1 11 1m-456 1c0 2 7 10 9 10s1-4-3-7c-3-4-6-5-6-3m-196 2c0 3 2 6 8 9l8 3c2 0 1-2-5-6-6-5-11-7-11-6m28 0c-2 1-1 4 0 4 3 1 6 0 6-2s-5-4-6-2m598 1c2 0 3 6 1 6-2 1-2 4-1 5l15 2c17 1 24 3 26 6l2 3c0 2-5 1-16-2a203 203 0 0 0-29-5c-2-1-4-5-4-9l-2-3c-2-1-1-3 2-3h6m-522 4-4 2c0 1 12 2 14 1 2 0 1-3-1-3h-9m576 2c3 3 3 4 0 4-4 0-2 2 3 3l10 5c7 5 22 19 22 21l-2 3-3 5-1 5c-2 0-28-25-28-27s4-1 10 4c10 7 12 6 4-2-5-5-7-6-11-7-10-2-17-8-11-9 3 0 2-1-2-3l-5-3c-1-2 11-1 14 1m57 0 4 2c7 2 12 1 6-2h-10m-164 1-14 17a360 360 0 0 0-50 68c-8 13-13 20-15 20l-7 12a419 419 0 0 1-16 34c0 3-4 10-6 11s-3 2-5 8l-2 13-2 14-2 10-1-1c-1-2-1-2-3 0-1 1-1 1-2-1-2-4-1-13 0-24l1-10c0-2 2-3 4-2 3 2 5 0 6-8 1-7 2-9 6-9 1 1 2 0 3-2l2-6c0-4 2-9 5-13l12-20a1153 1153 0 0 1 30-55 215 215 0 0 1 49-54l4-1c2-2 3-2 3-1m-582 7c3 7 6 11 9 15l5 8 9 10 4 6c-3 1-21-21-26-31-1-4-4-7-5-8-2-2-2 1 0 6s2 7 1 7c-2 0-4 5-5 15l-2 10c-1 1-1 1-2-1-2-5-1-13 3-22 3-8 3-12-1-12-2 0-2 1-7 16l-1 8c0 5-1 8-4 7l-1-8 2-8 3-6c5-14 10-21 14-17l4 5m-76-4c2 4 2 14 1 16-1 1-1 1-2-1l-1-5-1-3-2-5c0-4 0-4 2-4l3 2m433 0-3 5-2 8c-2 5-2 7 1 3 8-10 10-13 9-15s-3-2-5-1m-304 1-1 2c0 2 1 2 4 2 5 0 9-2 8-4h-11m98 0c-2 1-1 3 2 6 5 3 7 2 4-2-1-4-5-6-6-4m56 2c1 5 1 5 3 5 3 0 3-3-1-5l-3-3 1 3m239-1h-1l1-2v2m-103 1-3 9-2 9 1 2c3 0 10-17 9-20s-4-2-5 0m23-1-1 3-2 6c-2 3-1 5 1 3a1182 1182 0 0 1 11-9c0-1-8-4-9-3m-391 9-4 20c-1 12-1 13-4 9-2-4 0-15 4-25 5-15 9-18 4-4m151-8-1 2c1 1 3 2 9 2 9 0 10-2 3-4h-11m-162 10c-2 6-4 22-4 27 0 2-3 1-4-1-1-7 2-19 8-32 2-6 2-3 0 6m282-9 1 5c1 2 1 3-1 8-1 6 0 8 2 6 3-2 3-17 1-19h-3m488 0c-1 1 1 3 2 5l7 6 5 6c3 1 3 1 2-1l-16-16m-800 6c1 4-1 6-2 1l-1-4c0-2 1-3 2-2l1 5m88-3 6 2-3-2h-3m210 1c-1 1 0 12 1 15l2 2c2 0 2-2 1-8 0-10-1-12-4-9m92 1a213 213 0 0 1-5 16c0 5-6 16-12 22-5 5-7 9-4 9l5-4 6-6c6-7 6-8 7-14l2-12 2-12-1 1m50 2-1 5 4-2c5-2 5-5 1-6l-4 3m278 0 14 3c9 2 13 4 14 8 0 2 2 4 3 4v4l-1 6v4l-10-10c-8-9-9-10-12-10s-4 1-4 5l-1 6-7-7-12-12-1-2c0-2 5-1 17 1m-583-1-5 1h15c1-2-3-2-10-1m263 1a200 200 0 0 0-8 24c1 1 1 1 3-1 3-3 7-18 7-23l-1-2-1 2m-116 2 1 4 2 6c0 4 3 9 5 7l-1-9c-2-7-3-9-4-9l-3 1m-67 2c-3 2-1 3 3 3s5-1 3-3h-6m164 0c-2 2-6 17-6 19 0 1 1 1 3-1l3-9v-9m-369 4c1 2 0 6-2 6l-3-4v-5c2-1 4 0 5 3m83-2c1 3 20 8 20 5 0-1-3-4-6-5-3-2-14-1-14 0m56 1c-3 2 0 3 8 3 6 0 7 0 7-2 0-1-2-2-7-2l-8 1m294 2c0 3 0 3 2 3 2-1 2-5 1-5l-3 2m-447 4 2 7c-1 0-7-10-6-11 0-2 1-1 4 4m22 4-3 5c-1-1 0-5 2-10 1-3 1-3 2-1l-1 6m251-7 1 3c2 1 3 5 5 7 2 5 3 6 4 6 1-1 0-3-1-6-4-9-7-13-9-10m-47 3c-1 1 0 2 5 2l7-1c0-2-1-2-6-2l-6 1m145 0 1 1 1-1-1-1-1 1m-300 11c0 6-1 8-2 8s-2-2-2-7c0-4 2-11 3-11l1 10m105-9c-4 1-5 3-2 4s14-1 14-2-4-3-7-3l-5 1m185 2-2 6c-3 6-4 17-2 17 2 2 2 1 3-6l2-10v-8l-1 1m154 4c0 3 0 3-1 2s0-6 1-6v4m-399-2c-1 1 2 2 11 3h8l-2-2c-2-2-3-2-10-2l-7 1m123 0-3 2v2c0 2 11 1 12-1v-3h-9m194 1 1 13c2 1 2-1 2-7l-1-7-2 1m-354 15-1 8-2-3c-2-2-2-4-1-10l1-9c1-2 2 5 3 14m116-10-2 1c0 1 4 2 10 2 4 0 6-1 6-2 0-2-1-2-6-2l-8 1m-64 3c-3 0-4 1-2 2a108 108 0 0 0 24 1c0-3-12-5-22-3m-46 2v11c-1 1-2-1-2-6l1-6 1 1m173 0 1 1 1-1-2-1v1m83 5-1 5c-2 2-2 2-2 0v-6c0-3 0-4 2-3l1 4m-122-3v1h7c1-2 1-2-2-2l-5 1m43 0 4 6c4 2 4-2 1-5-2-2-5-3-5-1m-235 3c17 5 20 7 17 8-4 3-7 3-17 0-12-4-14-5-10-5s4-3 1-4l-3-2 12 3m202 1c-4 2-4 2-3 4 1 3 14 2 16-2 3-3-7-5-13-2m-72 1c-9 1-10 3-2 3 7 0 11-1 11-2 1-2-2-2-9-1m98 0c0 2 6 8 8 8 3-1 1-3-3-6l-5-2m176 2-2 9c2-1 6-10 5-11s-1 0-3 2m-12-1c-1 1-2 7-1 8l3-3c1-4 1-7-2-5m-326 5c1 6 1 7-1 4-2-2-3-9-1-9 1 0 2 2 2 5m429 3-1 6c-1 0-2-4-1-8 0-6 2-5 2 2m-450-1 2 8a104 104 0 0 0 16 36c2 4 11 13 15 13 1 0 2 0 2-2l-8-10c-6-5-9-8-9-10l-2-3c-1-2-4-7-4-10l-2-3-2-6 1-6c1 0 5 6 5 11l3 8 5 8c3 7 19 20 22 19 2-1 1-3-8-13a68 68 0 0 1-17-27c0-3 3 0 7 5l7 12c6 9 16 19 19 19s2-2-2-6c-5-5-13-16-15-21-1-3-1-3 1-3l4 1 1 3 7 10c6 8 10 13 13 13a5550 5550 0 0 1-42 24c-8 5-10 5-9 2 0-2 0-3-3-4s-4-2-5-5l-7-9c-5-5-8-9-12-18-8-16-11-29-8-29 2 0 4 2 4 6 2 11 13 32 21 42 4 4 17 13 19 13s1-3-4-8c-11-10-25-35-28-50-1-7-1-9 1-7l5 11a85 85 0 0 0 8 18l2 4 3 7c2 7 15 20 20 20 4 0 2-3-3-8l-7-7a106 106 0 0 1-14-27c-3-5-6-17-6-20 0-5 2-5 4-1m103-2c-9 2-9 2-8 4 2 1 7 1 14-1s2-4-6-3m159 3-1 2c-1 0-2-4-1-5 1-2 2 0 2 3m-86-2 2 3c3 2 3 3-1 5-3 2-5 2-8 1-4 0-6 0-11 3-4 1-7 3-7 4 0 2 5 2 11 1l8-2 6-2c3-2 6-2 10-2 5 0 5 0 6-2 2-4-1-6-8-8-6-2-8-2-8-1m267 2c0 2 0 2-1 1v-4l1 3m-413 1-1 2-1-3c0-1 0-2 1-1l1 2m-83 8c2 12 6 28 11 37 4 7 20 25 25 28 4 2 5 5 3 5-5 0-24-19-30-30l-5-9-2-2-1-5-1-11c-3-9-4-20-3-21 1-2 3 1 3 8m352-2c-10 8-11 10-13 18-1 6-1 6 1 10l3 5v-3c-3-3-2-4 2-4 3 0 5-1 8-4l6-6c5-3 3-3-4 0-9 4-10 4-4-2l5-6-6 2-5 2 8-8c8-7 11-10 8-10l-9 6m-341-1 1 11c1 9 3 15 8 22l3 5c0 2 13 20 17 24l10 7 4 3c-10 4-12 4-10 1 1-2 0-3-8-12a72 72 0 0 1-14-16c-4-5-11-19-13-27l-3-14c0-8 0-8 2-7l3 3m81 0c1 4 1 5-2 3-4-2-4-7 0-7 1 0 2 1 2 4m244-2c-1 3 0 5 2 2v-4l-2 2m-166 0c-3 0-3 2 0 3 2 0 13-2 13-4l-13 1m22 3c-7 3-3 5 5 3l5-2c4 0 4-1 0-1h-10m318 5c0 4-2 6-2 3v-8c1-1 2 1 2 5m-489 0 3 9c2 9 7 18 18 35 4 5 8 9 14 12 3 2 5 3 5 5 0 4-2 4-4 1l-4-3a97 97 0 0 1-23-28c-7-11-13-25-13-32 0-3 3-2 4 1m308-1c0 2 2 5 3 5s2-3 1-5h-4m-22 3-1 1-2-2 1-1 2 2m87 1-3 4v2c2 0 4-3 4-6h-1m-94 4v3c-1 2-4-1-4-3 1-2 3-2 4 0m79 1c-3 3-1 5 2 3v-5l-2 2m-56 5a136 136 0 0 0 17 31l6 10 9 17 6 11 2 4 5 13a115 115 0 0 1 11 29c7 20 7 23 5 29-2 4-4 5-10 6l-4 1 1-4c2-5-1-20-4-25l-10-32-3-9-5-11a48 48 0 0 0-8-16l-3-6-7-10-5-8c1-1 6 4 14 16 6 8 7 10 15 32l4 10 5 18 2 3c2 0 0-12-4-22a26843 26843 0 0 1-16-38c0-2-7-13-9-15l-5-7-7-7-5-7-3-7-3-5c0-5 1-5 2-2 1 2 1 3 3 2l1-4c-1-5 1-3 3 3m-201-1v3c-2 0-4-3-4-4 1-3 3-2 4 1m21 2c1 2-2 4-7 5l-6 3-2-1c0-1 5-7 7-7h8m-28 6c4 7 5 8 3 8s-10-7-12-9c-1-4-1-5 3-5 2 0 3 1 6 6m38-1-6 4c-8 3-10 3-6-2 4-3 12-5 12-2m145 0v2c-1 1-6-2-5-3 0-2 4-1 5 1m63 0-2 2c0 2 3 1 4-1 0-2 0-2-2-1m-399 2h-1c-2-1-3-2-1-2l2 2m206-1v2l-16 4 13-7 3 1m141 2 2 4c-2 1-6-3-7-5 0-3 2-3 5 1m-339 4 1 3c-2 0-6-3-6-4 0-2 2-1 5 1m316 10c-5 4-5 6-1 6 2 0 11-6 11-8s-6-1-10 2m-69 15c-11 11-18 15-29 17l-6 2-6 1-9 3c-7 2-24 10-24 11h7c1-2 18-10 24-12h10c7 2 14-1 23-9 3-3 7-6 9-6l12-13v-3c-1-1-4 2-11 9m23-1c-2 0-4 3-5 4l-5 6c-3 3-4 4-2 4s15-12 16-14 0-3-4 0m272 10v11l3 3c3 4 4 5 2 8l-1 6c-1 5-2 5-3 1-2-6-3-9-5-9l-5 3c-4 2-5 4-7 8-1 4-2 6-1 7 1 2 5 0 5-2 0-1 1-2 5-2 3-1 3-1 3 1l-1 7-4 24c0 4-1 7-3 6l-1-11v-11l-3 9-1 5c-2 0-4-9-4-17a141 141 0 0 1 9-50c1-4 2-5 4-7l6-1c2 0 2 0 2 11m10-8c2 3 3 9 1 13l-2-6-3-8c-1-3 2-2 4 1m-294 1c-3 3-4 6-2 4 3-1 6-4 6-6s-2-1-4 2m276 9 2 3 1-3-2-3-1 3m-418 4-7 4 2 1 11-2c10-2 12-2 12-4s-11-1-18 1m233 4c-2 2 1 17 3 18 3 0 3-3 2-9s-4-11-5-9m9 1 1 3c1 2 3 0 3-3-1-2-4-3-4 0m-224 3-15 2-14 3c-4 2-2 3 2 2l16-2c12-1 18-3 18-5h-7m206 5 2 15 2 3c2 0 2-9 0-15-1-4-2-5-4-3m-66 6-3 2c-2 0-1-3 1-6 2-2 3-2 3-1l-1 5m-136-1-20 3c-5-1-11 0-12 1v2c2 1 20 0 29-1 6-2 11-4 11-6 0-1-4-1-8 1m193 7c0 9 1 12 4 12s3-1 1-10c-1-8-2-9-4-9l-1 7m-185 0-5 2a253 253 0 0 0-23 5c0 2 15 1 20-1 8-2 12-4 12-6h-4m177 6c0 8 1 10 3 8 2-3 0-15-2-15l-1 7m-36-1c-4 7-3 11 1 7 2-1 4-7 4-10 0-4-3-2-5 3m27 5c-1 8 0 11 3 8 2-4 1-16-1-16-1 0-2 3-2 8m-94-1-6 4c-2 0-7 3-7 5s2 1 9-4c9-5 12-8 11-9-1-2-2-1-7 4m-73 0-14 4c-5 0-7 1-7 2 0 3 17 0 26-4l6-5c0-2-3-1-11 3m159-4-2 7c-1 6 0 9 3 8l3-8-1-4-2-3h-1m-11 5c-1 3-1 8 1 9 1 0 4-6 4-9s-3-3-5 0m-133 1a631 631 0 0 0-32 14c3 2 37-9 39-12 2-4 0-4-7-2m37 1c-7 6-14 10-21 12s-10 4-9 4c1 1 10-1 13-3l7-3c7-2 17-7 19-9l1-3c-2-2-7-1-10 2m-21 3c-6 3-22 10-25 10l-8 4c0 2 6 1 10-1l14-6c11-4 20-9 20-10 0-2-5-1-11 3m78 9c0 6-23 22-45 31l-8 4c0 1 1 1 9-1 18-5 27-10 39-21l7-6c3-1 3-1 3 1s-2 5-6 9c-7 5-9 8-5 6 4-1-4 5-11 10l-16 6-10 3c-7 2-7 2-13 1-4-2-7-2-11-2h-9l-6-2-4-1-4-2c-6 0-12-3-18-10-5-4-7-6-7-8s0-2 4-1h33c13-2 37-8 46-13l12-4v2l-4 2-4 1a4489 4489 0 0 0-31 12c-4 2-23 4-40 5-3 0-3 2 1 4 2 1 5 1 16-1 15-1 27-4 39-9l8-3 9-4c8-4 12-5 9-2a220 220 0 0 1-63 25c0 2 8 1 12 0l6-2c6 0 28-7 37-12l11-8c11-10 14-13 14-10m279 32-1 5c-1 2-1 2-1-2l1-5 1 2m-8 25 1 23a417 417 0 0 1 4 53l1 9c2 3 3-1 2-8a659 659 0 0 1 0-46c2-4 2-4 1-11-2-10-1-14 1-16l2-5 1-5c2-4 3-1 2 13a282 282 0 0 0 2 47 881 881 0 0 0 8 100l1 17 2 12c1 3 0 7-1 7l-1-2c-1-3-3-2-3 1 0 6-3-3-6-18a428 428 0 0 1-6-55c-2-23-2-25-4-26l-1 15v10a1078 1078 0 0 1-6-115m7 2c-1 1-1 0-1-3s0-4 1-3v6m-125-3-1 4c-2 8-5 10-6 5-1-3-1-3 2-7 4-3 6-4 5-2m7 2-1 3c-2 1-2 1-1-3 0-2 2-2 2 0m521 13-14 3c-7 2-18 2-27 0l-12-2c-7 2-18 6-21 9s-9 13-8 14l6-4 9-5 11-4c5-2 7-2 20-2 12 0 15 0 22-2 12-3 17-3 30 5 6 4 13 8 14 10 3 3 8 5 9 4s0-2-3-5l-9-8-11-8c-2-1-4-2-4-4l-3-2-9 1m-191 13-4 3-18 18c-6 4-8 6-11 13l-6 14-2 5-4-2c-3-3-5-3-8-3-2 0-1 2 2 5 3 2 7 9 7 13l-3 5c-5 4-6 8-6 21l-1 12c-1 0-6-5-11-12-2-4-4-8-6-9l-5-9c-4-7-9-13-13-13s-6-3-7-10c-1-11 4-16 12-13 6 2 16 3 16 1l-5-3-10-7c-6-7-8-7-15 0l-6 8-2 6-1 14c1 14 2 18 9 32l4 10 3 9 7 16 5 13 5 10c4 7 10 15 24 29 10 11 14 17 13 21 0 4-1 4-6 2s-7-2-7-1c-1 2 0 4 3 4 9 3 13 4 13 6 0 1-1 1-8-1l-4 1c0 2 3 6 5 6 3 0 8 3 8 4 1 2 0 2-2 3s-3 4-1 6l7 2c4 0 5 1 6 4 2 3 2 4 1 7-2 4-1 5 6 4 5 0 5 0 8 3l3 4-4 2c-4 1-5 2-5 3 0 3 3 4 7 3 2-2 3-2 9 0 11 3 12 5 2 5-7 0-8 1-5 4 2 2 3 2 5 2 9-2 9-2 12 0 4 2 5 5 2 5-5 0-7 1-7 3 0 3 2 3 7 2h10l5 3-4 2c-4 1-6 3-4 5s4 2 8 0l6-1 14 4c5 2 2 3-5 3-6 0-8 1-8 3 0 3 3 4 6 2l5-2 15 5c3 1-2 2-8 2-4 0-6 1-6 2 0 2 1 2 3 2l4-1h4l7 1 6 2c4 2 2 3-3 3l-5 1c-1 2 2 4 6 4l16 3-2 2-2 2c0 2 2 3 8 5 9 2 9 2 13 8l7 8c4 3 11 9 14 14 3 4 14 13 18 14l4 4v14c-3 27-3 25-1 30 8 13 14 16 32 16 10 0 13 0 16-2 5-3 6-5 4-15a2391 2391 0 0 1-4-17c-2 0-4-6-4-12 0-9 1-10 6-10 4 0 4-1 4-2v-14l6-3 9-6c7-9 9-10 15-10 5 0 6-1 14-5 9-5 10-7 6-7-3 0-3-2 0-3l5-2 8-3c5 0 7-1 12-4 3-2 3-2 4-1 0 2 4 1 6-1 0-2 2-3 4-3 2-1 3-4 1-4l-5 1-9 1-12 2-6 1 27-11c10-3 12-5 7-6s-4-2 3-6c5-1 8-3 8-4l-5-2c-1 0-2 0-1-1l2-1 5-1 10-4 11-4v-2c-3-2-2-3 0-3l4-1 8-3c5-1 14-6 14-7l-5-1c-8 0-9-1-4-3l10-4 7-2 3-2 3-2h-4a897 897 0 0 0-9-1l5-2 3-2c3 0 11-5 11-6l-1-2-2-3 2-2 1-4c0-4 8-15 14-20 4-3 8-10 8-13s-3-2-10 3c-6 5-17 11-23 12-3 1-6-1-4-2l5-6 5-6 3-2 10-7a174 174 0 0 0 20-15l6-6c0-3 2-4 5-6 3-1 6-4 8-7l4-4 11-10c7-7 11-11 13-16 3-7 3-7 3-22v-15c-1 0-7 5-7 7v3l-1 6-2 8c0 3-1 5-3 6l-5 2c-3 0-6 4-6 6 1 3-4 8-7 8-2 0-1-1 1-5 4-5 8-14 7-15 0-2-2 0-5 6l-8 10c-3 4-5 7-6 11-2 5-4 9-6 9l-12 7c-6 4-12 9-15 13l-7 7-1 2-17 20-8 9c-4 5-7 6-7 4l7-8a229 229 0 0 0 18-21c7-7 8-9 15-19 5-8 6-9 7-8 2 3 6 0 11-9l9-15c9-15 17-30 18-36 1-3 1-3-1-3l-3 6c-3 6-9 16-10 15 0-1 2-9 4-11 3-4 9-18 9-22l1-6c1-3 2-9 0-10l-1 2-1 4-1 3-1 4-1 2-1 4-4 10-15 30a334 334 0 0 0-14 23c-3 6-9 14-12 17l-3 4-3 4c-2 2-4 4-4 6h-2l1-2c2 0 10-16 10-19l2-6c2-4 2-4 2-2-1 5 1 5 4 0l3-5a441 441 0 0 0 33-65c2-2 4-18 2-18-2 1-6 8-6 14-1 6-5 16-8 20l-6 11-5 11-3 7-4 6-1 3-3 5-4 5-1 1 1-8v-16l-5-13c-3-8-3-7 7-28 5-10 7-15 7-19v-5c-1 0-4 6-6 13-10 23-15 32-15 24l6-14c7-15 9-19 7-20-2-2-4 1-6 8l-8 16c-2 0-2-2-1-3l8-17c1-3-1-3-4-1s-4 3-5 8l-2 5-3-5c-2-4-2-5-1-8 3-9 18-25 27-28 5-2 7-2 11 0 3 1 3 1 5-1l10-3 11-2c3 0 3 0 2 3 0 3 0 5 2 7l6 3c3 0 4 2 2 9-1 5-1 5 2 11 7 11 10 19 10 21s2 4 3 2l2-3c3 0 3-4 0-9l-2-6c-1-5-6-11-8-11l-1-1c1-2-2-12-3-13l-1-10-1-11-9-2c-6 0-7 0-13 4s-7 5-15 5c-18 0-25 2-31 11-5 8-13 16-16 17s-3 1-5-1l-15-8c-3 0-11-5-19-11-10-9-21-15-27-16-4 0-5-1-6-2 0-2-1-2-5-1-4 0-7 1-13 6l-10 8-4 4-4-6c-3-7-6-10-7-8s0 9 1 11c3 3 1 12-2 16l-3 4c-1 0-2-2-2-5-1-6-4-16-6-19l-2-2v4a304 304 0 0 0 4 20c1 7 1 7-1 10l-3 3c-1 0-2-3-2-19 1-19 0-22-4-25l-4-2-3-2c0-2-4-4-5-3l-1 4-1 3-1-5c0-4-2-7-4-7v9c1 8 2 21 1 32-1 10-1 12 2 12 2 0 2-1 2-7a538 538 0 0 0 2-30c2 2 3 10 3 31a63 63 0 0 1-2 22c0 2-1 3-3 4-4 3-8 8-8 10s-1 2-6 2c-7-1-11-2-11-5-1-2-7-5-12-5-4 0-14 4-17 6l-1 6-1 4-4-7-1-3-7-14-3-7c-2-5-4-8-8-11-6-5-11-8-14-8l-6-4-6-4-2-1-18-16c-6-3-11-4-21-5-9 0-11-1-14-3-5-4-16-9-27-12l-8-2-4 2m185 3v6l1 23 1 18 2 1c2-1 2-4 2-23l-2-24c-1-2-4-3-4-1m-55 1c-2 1-2 2-1 3v16c0 11 1 17 2 15a175 175 0 0 0 3-34h-4m8 0c-2 1-2 2-1 4v15l1 13c1 0 2-4 2-14l2-12c0-4-2-7-4-6m39 0v7l1 17c0 11 1 16 2 13 2-2 3-34 2-36s-5-3-5-1m-32 1 1 34c1 2 2-3 3-12l1-12 1-4 1 2v13c0 9 1 14 2 12l4-30v-3l-7-1-6 1m15 3 1 19c0 10 1 16 2 16s2-8 2-23l1-14-4-1c-3 0-3 0-2 3m9 0v23c0 11 1 15 2 13 1-1 3-19 3-29 0-8-1-9-3-9l-2 2m-46 0-2 23c1 2 3 3 3 1 2-4 2-25 1-25l-2 1m-96 4 10 4 16 4c14 2 16 3 17 7 1 3 3 4 13 10l6 2 8 4 5 4c3 0 11 8 14 13l3 6 4 5c4 9 5 11 9 16 7 8 9 20 11 52l-1 18c-3 10-4 15-6 15l-1 2c0 3-8 11-12 13-6 3-17 14-20 21-2 5-4 12-7 30l-4 14v5c3 8-2 8-7 0-3-5-11-14-17-17a294 294 0 0 1-15-9l-5-2-12-5c-4 0-7-2-7-2l-2-1c-1 1-4 0-9-2l-11-6c-3-1-5-3-6-5-3-4-25-24-29-26l-4-6-5-12c-8-16-11-33-11-57 0-17 0-18 2-24l6-9c6-6 8-11 8-21l1-13c2-5 8-11 12-14l12-10 8-8 10 1c6 0 12 1 16 3m88 0c-2 2-2 3-2 8l1 10 1 3 1-3c3-13 4-17 3-19-2-1-2-1-4 1m96 15c2 6 2 10 2 22 0 15 0 15-3 19-1 2-3 3-3 2l1-14v-26l-1-13c0-2 2 2 4 10m-110-6-5 6c-4 5-4 5-2 6l3 1 6-14-2 1m177 4 12 3 13 8c10 8 16 11 27 16 8 3 12 7 14 12l5 7c3 4 5 9 5 13l1 4 3 6 2 5 4 8 4 8c2 3 3 10 1 15l-3 10-4 19c-3 13-5 17-9 17s-11 4-16 9c-4 5-6 6-7 5l-2-1c-2 1-3 5-1 5s1 3-1 5c-1 1-5 3-8 3l-6 4-8 7c-7 6-8 6-15 6-9 1-14 3-21 10l-5 4c-1 0-17 12-21 17-9 8-12 15-16 27-1 4-2 4-3 0 0-4 0-5-2-3l-1 5-1 5c-3 4-1-18 2-29a217 217 0 0 0 8-40 338 338 0 0 1 9-49l7-22c2-6-2-2-5 5l-5 8-2 7-2 7-3 15a447 447 0 0 1-3 37c-1 15-2 19-5 19-1 0-2-2-2-6l-2-9-4-9-4-9a263 263 0 0 0-22-33c-7-8-8-13-6-19 2-5 4-17 4-23 0-8 2-15 11-32l8-18c3-5 4-7 8-10l28-27 25-23c5-1 6-1 14 1m-340 17c0 1 2 3 4 3s3-1 1-3h-5m455 9-3 9c-2 8-10 25-17 37v4c2 2 3 1 14-22 10-21 12-28 9-29l-3 1m8 5-5 11c-3 9-5 14-10 22l-4 7-2 4c-4 7-2 14 1 7l21-41c2-5 3-13 1-14l-2 4m8-2-5 12-2 6-2 7-14 30c-6 12-8 17-4 14l4-7a1215 1215 0 0 1 16-31c5-8 9-21 10-27 0-4-1-6-3-4m-139 5c-2 3-1 36 1 36l1-3a4454 4454 0 0 0 1-31c1-4-1-5-3-2m10 0c-1 3-2 25-1 27 3 3 4 1 5-13l2-15c-2-2-5-1-6 1m-21 1c-2 3-3 22-2 27 2 7 3 4 4-6a180 180 0 0 1 3-22c0-2-4-1-5 1m32 2-1 10-1 13v8c3 2 4 0 4-6l2-14 1-9c-1-4-4-5-5-2m11 3c-1 1-3 32-2 33 1 2 3 1 4-1l1-6 1-13c2-10 2-13-1-14-1-1-2 0-3 1m-55 1c-1 1-2 6-2 18l1 17h2a431 431 0 0 0 2-37l-3 2m-344 3c0 1 3 2 5 1l1-2c0-3 3-1 6 4 3 4 3 5 1 5-3 0-3 3 0 7l5 11c7 23 24 55 27 56 3 0 2-3-1-7l-6-9-3-6-3-6a200 200 0 0 0-9-22l-2-7c-2-3-3-6-2-8l1-3c1 0 8 10 8 12l-1 1c-2 1 4 19 10 31 3 7 4 9 6 9s3 1 6 13l2 9 1 3c-1 1-7-4-10-10l-3-3c-2 0-1 1 9 17 4 5 4 6 0 2-3-2-6-6-13-16-8-13-10-16-11-20l-2-5a65 65 0 0 1-9-21l-2-4-1-3-6-17 6 11c0 3 2 8 4 11l2 7 4 8 3 7c0 2 5 9 6 9 2 0 1-2-2-7l-10-24a181 181 0 0 0-7-18l-2-5c-2-5-4-6-4-3 0 2 0 2-2 0l-3-5a303 303 0 0 0-1-6l2 3m136-1c-1 3 0 14 2 19l3 12c0 6 2 9 4 7v-5l-6-23-2-11-1 1m-14 5c4 25 6 34 8 34s2-3 1-7l-3-13c-3-16-4-18-5-18l-1 4m287-3-1 17-2 20c0 5 2 7 5 5 2-1 2-2 1-7 0-6 0-10 3-26 1-7 1-7-1-9h-5m-78 3c-2 2-3 37-1 37 1 0 2-3 3-14a277 277 0 0 1 3-24c0-2-4-1-5 1m-222 4 1 5 2 11 4 11v-5a496 496 0 0 1-5-24l-2 2m312 0-2 14-2 15c-1 2-2 5-1 10 0 7 1 8 3 7 2 0 2-2 2-6l2-16c3-15 4-23 2-24-2-3-4-2-4 0m-257 0 1 3 1-2-1-2-1 1m-12 7c0 12 4 26 6 23v-6l-3-14-2-9-1 6m-53-2 1 10 2 11c0 3 2 5 4 4 1-1 1-2-1-7l-3-11c0-6-2-9-3-7m-39 1 1 2 1-1-1-1h-1m118 0v2c2 0 3-1 1-2h-1m252 4-2 10-1 7-2 11-4 14c-2 6-1 8 2 9 2 0 3-2 3-8l1-7 7-30c1-9-2-13-4-6m-111-1c-2 3-3 6-4 22a505 505 0 0 1-1 26c2 0 3-3 4-13l1-16 3-21-3 2m-426 4 1 4v-7c-1-1-1 0-1 3m272-3 5 22c2 2 2-2 0-11-2-11-3-14-5-11m-77 1v10c2 15 3 20 6 18 1-1 2-8 0-10-1-1-3-9-3-14l-1-5-2 1m171 4c2 0 3 2 4 4 1 3 1 4-2 2l-6-3-4-2 2-3c1-3 2-3 2-1l4 3m-80 2c0 4 1 9 3 9s2-5 1-9c-2-5-4-5-4 0m29-1 2 7c2 9 7 21 7 17l-6-24c-1-2-3-3-3 0m-147 3c1 4 3 6 4 4 0-2-1-7-3-8l-1 4m163-1 3 12a350 350 0 0 1 9 34c2 0 1-10-1-19-5-22-8-29-10-30l-1 3m-29-1c-1 1 1 20 2 22 2 2 4 1 4-1l-2-11c-1-8-3-12-4-10m92 1c0 2 0 2-3 1l-6 1c-4 2-5 1-2-2s10-3 11 0m-207 9a99 99 0 0 0 4 22l3 3c2 0 3-2 2-6l-4-14c-1-7-3-12-4-12l-1 7m452-6c-2 2 0 3 2 2l1-2h-3m-95 1-1 3-1 10a236 236 0 0 0-5 18l-3 9-4 12c-3 5-5 10-5 15l-6 10-6 8-10 13c-6 6-11 13-11 15s3 1 7-4c6-6 7-7 6-3-1 3-1 3 1 3l4-3c2-4 2-5-1-5-3 1-2 0 1-6 5-7 8-10 10-10 3 0 10-17 19-44 6-21 8-27 8-35l-1-7-2 1m-164 3-1 7-1 5-1-4c-2-3-2-6 0-9 2-1 3-1 3 1m-202 2 1 8a502 502 0 0 0 14 46c5 14 11 27 19 40l7 15 3 3h7c0-1 3 0 6 3 3 2 19 8 21 7 3-1 2-2-3-10l-6-8-1-1c-2 0-1 3 2 8l2 6h-1l-4-5a107 107 0 0 1-15-29l-9-22-9-17c-2 0 0 6 4 15a280 280 0 0 1 15 36l3 8 3 6c0 1-5-4-10-12-6-7-8-9-8-7l8 15c2 3 3 7 0 4l-5-7-6-9a702 702 0 0 0-18-36 278 278 0 0 0-8-22l-2-7-5-16-4-13-1-2v3m180-1-1 3-1 3c0 4-2 3-3-1 0-2 0-4 2-5 2-3 3-3 3 0m6 5c0 3 0 4 2 4 1 0 1 2-1 2-2 1-3 1-5-2v-6c3-4 4-3 4 2m27-3-1 3-2 4c-1 2-4 4-5 3-1-2 4-11 7-11l1 1m235 1-4 7a116 116 0 0 1-11 19l-9 12c-3 4-3 5 0 5s5-2 7-6l3-6 3-4 6-10c6-10 9-16 7-17h-2m-455 4 1 5v-6c-1-3-1-3-1 1m-27 2c2 4 1 5-1 1l-1-4 2 3m145-2 1 2 1-1-1-2-1 1m160 0v4l2-4h-2m101 0c0 2 2 3 2 2l1-2h-3m-548 4 1 5v-7c-1-2-1-1-1 2m408 3-3 7c-1 3-1 9 1 31l1 8v-7a2355 2355 0 0 0 4-39c1-4-1-5-3 0m202-2c0 2-8 15-10 16l2-5 4-9c2-3 4-4 4-2m-439 4a246 246 0 0 0 17 57l5 12-3-2a6992 6992 0 0 0-15-35l-4-9c-3-8-4-5-2 4 4 17 15 41 20 45l8 7c6 6 13 11 14 10l-8-14a286 286 0 0 1-30-75c-2-2-2-2-2 0m-24 4 1 4c0 2 0 2-1 0l-2-7 2 3m233-1c0 1-7 7-9 7s0-3 3-6c4-3 6-4 6-1m-58 0c-1 1 0 4 1 7 3 11 4 22 4 35 0 12 0 14 2 15h2c2-2-1-34-5-48-2-9-4-11-4-9m-320 1c-1 2 0 9 1 10v-5c0-6-1-7-1-5m367 0-3 5c-4 5-5 9-4 16l-1 6c-1-1-2-3-2-9l-1-9c-1-1 1-5 4-8 2-2 7-3 7-1m178 0a1416 1416 0 0 0-12 34l-5 12v11l5-9 2-6 2-4 3-8 4-10c2-6 4-19 3-20h-2m-192 15c0 8 0 8-2 7l-2-9 1-9c1-2 3 5 3 11m140-6-1 6-4 19c0 1 0 2 3 2h3l2-12c2-8 2-11 1-13-1-3-4-4-4-2m-46 4c-1 4-1 5 1 2l1-3c-1-1-1 0-2 1m170 2c-1 3-3 4-3 2l4-5-1 3m-242 7-1 9c-1 3-8-3-8-8 0-4 3-8 4-6 0 2 3 1 3-1l2-2v8m249-3-1 4-1 3c-1 0-3-4-2-5l5-4-1 2m-622 4 1 3 1-2-1-2c-1-1-1 0-1 1m391 0v19c1 0 3-8 3-14-1-5-1-7-3-5m151 4-1 4-1 4-2 5c-4 6-6 13-2 10l4-8 2-5c2-4 3-11 2-11-1-1-1 0-2 1m68 2-12 11-7 6-14 13a360 360 0 0 0-28 24l7-9 4-5 5-6 5-5 9-9 8-8c2-3 7-7 12-10l5-2c0-2 6-1 6 0m-366 0 2 3 1 5 3 9a504 504 0 0 1 17 47l18 35 4 2-4-9a398 398 0 0 1-37-92l-3-1-1 1m-19 1v3a829 829 0 0 0 17 37l9 23c3 6 10 16 12 17s2-1 0-4a316 316 0 0 1-34-72l-4-4m72 2v1h1c0-2-1-2-1-1m13 6 3 23c-2 1-7-6-8-12 0-2-1-2-2-2l-1 1 1 8c2 12 5 15 9 11l4-2c3-2 4-4 1-13l-3-13-3-7-1 6m46-3a310 310 0 0 1 30 32l10 16 7 14c2 3 6 17 9 29v22a375 375 0 0 1-4 41l-1 11h-9c-4 3-5 2-5-1 0-2 1-3 4-3 2 0 3-1 5-6l3-9c0-4 0-4-3-4h-4c-1-1-3 1-5 5-4 7-5 9-2 8l3-2c1 0 2 2 0 5-2 4-7 8-9 7-3 0-5 3-5 8l-1 5-10-1c-9-1-10-1-12-4l-6-4c-6-2-7-5-1-5h3l-3-4c-3-4-10-8-14-8l-6-2-5-2c-1 2 1 4 4 6 10 4 11 5 11 8-1 3 0 5 4 8 6 3 5 4-2 4h-5l-1-4c0-4-1-5-8-11l-8-8-2-5-2-3-2-4-10-22c-4-9-6-23-4-27l1-12 2-13 4-11c2-4 6-10 13-17 2-3 5-4 8-4l8-6c5-6 6-7 9-19l4-10c3-2 5-1 7 2m-386-1 2 3c2 0 6 8 7 13s4 11 6 12c1 0 3-1 5-4l4-3 2 8 5 13c3 6 4 7 3 10l-3 3c-1 0-6-7-6-9l-1-1-1 3-1 2-3-8-2-3c-1 0-2 6-1 9 1 5-1 4-3-2-2-3-3-7-3-10 0-4 0-4-2-4-3 1-3 0-5-5l-4-10-4-16c1-2 4-3 5-1m432 10c0 2 0 2 1 1v-4c-1-1-1 0-1 3m-394 1c2 4 4 17 2 16l-2-8c-3-10-2-15 0-8m478 2-2 5-4 7-6 10-4 7-2 2-4 5-3 4-10 14-9 15-3-1h-3c-1 1-1 1 1 3l3 3c3 0 6-4 8-8l11-16a70 70 0 0 0 11-15l9-11c6-7 7-10 9-19l1-9-3 4m-216 0 11 32c2 3 2 0 0-5l-5-16c-4-12-7-17-6-11m16-1 1 1 1-2-1-1-1 2m269 12c-2 1-2 1-1-1l2-2-1 3m-150 2c-1 1-1 10 1 13l1 1c2 0 2-1 2-6 0-10-2-12-4-8m37 1-4 12c-4 12-7 25-8 36l-3 11c-2 4-5 19-4 20a344 344 0 0 1 13-41l3-15c2-9 4-23 3-24v1m109 2-4 5c-5 4-4 0 1-4 4-5 6-5 3-1m-783 5c13 10 21 19 26 31l9 17c4 5 4 7 5 18l2 18 1 13 1 10 1 4c0 2-1 1-5-5a250 250 0 0 0-10-16l-4-8c-7-13-12-26-13-34-1-10-3-16-6-23-2-2-3-5-3-7 0-3-2-8-6-12a252 252 0 0 1-10-8l1 8 1 12a78 78 0 0 0 13 37c1 0 2-3 1-7l-1-3 2 2 5 9a392 392 0 0 0 9 27l-5-12-3-3c-2-1-2-1-2 1l2 6 5 9 7 12 6 10a179 179 0 0 0 17 23c-1 0-9-7-11-11a53 53 0 0 0-7-10 185 185 0 0 1-22-37 189 189 0 0 1-15-34l-2-9-5-24c0-5 5-10 8-9l8 5m632-4 2 2 1-2-1-2-2 2m-53 2c0 1 0 9 2 17l-1 4c-1 0-4-6-5-12l-1-4c-2 1-1 12 0 14v2c-1 0-3-2-4-5l-5-5c-3 1-2 4 1 8 4 5 9 15 9 18l1 3c2 0 2-6 1-10s2-3 5 2c5 7 9 5 11-5v-9l-2-10c-1-6-3-8-3-3a378 378 0 0 1 1 14v6c-2-2-6-15-6-20 0-6-2-9-4-5m-55 0c-1 2 4 16 5 18l1-4c-1-3-1-4 1-4 3 0 4-2 3-6-1-3-4-5-5-3h-3c-1-2-2-2-2-1m-117 5c6 4 12 11 12 14s3 5 5 5c2-1 4 0 6 2l20 10 7 3 15 4c5 0 13 5 25 14l8 9 8 9c2 2 3 6 4 13l1 4h-12c-9 0-12 0-13-2h-4l-7-2c-3-2-6-2-12-2l-9-1c-1-2-1-2 2-3 5-3 3-5-5-5-6 0-7-1-6-5 2-3 1-3-5-4h-6c-2 0-1-3 1-4l2-2c0-1-2-2-6-2-9-1-15-6-6-6l3-1-3-1c-6 0-12-3-12-5l-1-2c-3 0-7-4-9-8l-3-5-4-8c-2-5-2-5-1-7 2-1 2-1-1-6-4-5-5-9-3-10 0-1 3 0 9 4m367 2-5 6c-3 4-4 4-3 2 2-5-1-4-8 4l-8 7c-1-1 5-9 13-18 3-3 4-3 4 1-1 3 1 3 5-1 3-3 4-4 2-1m-257 3c0 3 5 16 7 16s1-1-2-10c-2-7-5-10-5-6m80 4v12c1 3 3 2 4 0l-3-13-1 1m8 0c-1 2-2 30-1 31 2 1 3-2 3-7l1-8 1-2 3 2c1 1 1 0 1-2l-2-6c-1-8-3-11-6-8m-51 10-3 5 2 3c2 5 4 5 3 1-1-5 0-7 1-8 2-1 3-5 1-5l-4 4m192-1c-1 3-5 6-5 3 0-2 3-6 5-6v3m-521 2 7 4h12c2 1 2 2 1 5 0 4 0 5 2 7 4 5 4 8 5 19a378 378 0 0 0 32 116c4 10 5 13 1 9l-6-11-2-4c-2-2-3-3-4-2-1 0-2 0-3-2l-6-13-2-6c-2-5-4-9-5-8-1 0-3-2-5-6-4-8-4-9-5-15l-3-14c-3-11-4-14-1-14v-9c-4-14-5-24-2-25l3 4 2 4v-7c-2-14-2-14-8-17-8-4-19-13-19-17 0-3 2-3 6 2m291 1 5 12c1 0 1-2-1-8-2-5-4-8-4-4m101 0-1 2-2 4c-2 2-4 16-2 16l1-1 1-2c2 0 2 7 2 15l-1 13c0 6 0 7 3 8s3 2 2 4c-2 2-2 6-1 7l1 4 1 5-2 8c-2 4-4 8-3 9l2-1 2-4 2-4 4-5c0-3 1-4 3-4l3-1c2-1 4-1 4 2l2 1 1-5c0-6-1-7-5-4l-2 2v-3l1-7c2-8 2-9 1-9-1 1-3-3-2-5l1-17-2 2c-2 2-2 3-2 9 1 8-1 15-4 15-1 0-1-3 1-10 1-7 1-13-1-9l-3 6c-2 5-4 7-3 3a23897 23897 0 0 1 0-33c1-10 0-14-2-11m-108 1a752 752 0 0 1 11 23l-3-9c-5-14-7-17-8-14m291 1-3 4c-3 6-10 12-18 17-10 5-18 11-21 13l-6 4c-5 2-4 5 1 4h3c-1 2-6 5-13 6l-8 3c-2 2 0 3 4 2h4l-5 4c-4 4-4 4-8 3-4 0-5 0-8 2-4 4-11 7-11 6l-4-1c-4 0-4-1-1-4l2-2h-7c-5 0-7 1-9 3-4 3-5 6-2 6 1 1 1 1-1 2-9 3-11 6-5 5 4 0 4 3 0 4s-12 5-13 7c-1 1-1 1-1-2 0-5-1-6-4-2s-2 6 1 6c2 0 2 0 1 2-3 2-3 5-1 5l1 1-7 6h-12a173 173 0 0 1 13-45c7-16 16-26 32-37 17-12 21-14 35-15l20-1c11 0 41-4 48-7 3-1 5 0 3 1m-307 1 1 1 1-1-1-2-1 2m73-1c-1 1 1 5 2 5v-4c-1-2-2-2-2-1m58 12c-1 3-1 14 1 17 1 2 3-4 3-12l-1-8-3 3m-192-1c0 3 2 4 6 3 5 0 5-2 0-3h-6m111 4c0 3 1 4 8 7 9 4 12 5 13 1 0-3-2-4-7-4-4-1-6-1-8-4-5-4-6-4-6 0m183 3c-6 5-7 8-5 8l2-2 7-5 6-5c-1-3-4-2-10 4m48-5-14 10-5 3-3 4c0 2 4 1 8-3a211 211 0 0 1 19-14h-5m-34 5c-5 4-6 7-4 7l8-6c6-5 6-6 4-6s-4 2-8 5m16-1c-7 4-10 6-20 19-8 9-9 10-14 10l-4 2-7 3c-6 2-8 4-4 6 3 1 3 2 13-4l9-4c4 0 12-9 16-16 2-4 4-7 7-9a268 268 0 0 0 12-11l-8 4m-40-1-5 4c-3 4-10 16-9 17 1 0 6-5 6-7l10-10 2-2c2-3 2-3 0-3l-4 1m-137 5c-4 2-3 5 3 7l7 5c2 1 0 4-2 4-4-2-12-2-12-1l6 5c4 3 7 4 9 4 5 0 6-1 3-3-4-3-2-5 5-5 4 0 2-3-5-6-8-3-8-3-8-5l4-2c6 0 3-3-4-4-2-1-4-1-6 1m-108 4 2 1c2 0 2 0 1-1l-2-2-1 2m225-1v5c2 0 4-3 4-5h-4m-251 1c-1 2 3 4 9 5 7 0 9-1 5-3-3-2-13-3-14-2m104 3c1 2 2 2 3 0l-1-2-2 2m228-1c1 1-1 4-4 5-4 2-5 1-1-3 4-3 4-3 5-2m-295 3 1 1 1-1-2-1v1m59 2c-1 2 1 7 5 10l5 3c2 0 1-3-2-5l-4-6c-1-3-2-4-4-2m-535 3 2 3c1 2 1 2 1 0l-1-3h-2m549 1 1 2 1-1-1-1h-1m123 2c-2 1-4 5-4 8-3 9-2 13 1 7l8-17c0-2-2-1-5 2m-220-1c-1 4 6 7 13 6l7 1 5 2c3 1 3 1 1-1l-14-7c-8-2-11-2-12-1m233 1-1 2c1 1 3-1 3-3s-2-1-2 1m-205 1c1 2 8 6 13 7l3-1c0-2-1-3-10-5l-6-1m213 3v5c1 1 3 0 3-3 0-2-1-3-3-2m-122 4c0 1 2 3 6 5s6 3 5 4c0 2-1 2-7 2-9 0-7 4 2 8 3 1 7 3 7 5l4 2c3 0 3 3 0 4-3 2-7 0-8-3-1-2-2-2-5-2s-4 0-4 2 1 3 6 5 7 4 4 5l-2 3c0 1 3 3 6 3l10 2 2 6c3 8 1 9-9 10-6 1-4 3 4 5 8 3 10 3 8-2v-8c1-7 0-9-4-12s-5-6-1-6c2-1 2-1 1-3-3-1-2-5 1-6 3 0 2-3-1-5l-4-2 4-3c4-2 4-2 3-4l-3-3-2-4c0-2-1-3-5-4l-7-2-7-3-4 1m-90 1 4 3c4 2 15 4 14 2l-3-1-6-2-9-2m57 1 4 3 4 2-2 2c-4 3-4 4 1 6l3 3-3 2c-4 3-3 4 3 5l7-1c5-3 3-8-2-8-7 0-8-3-2-5 6-1 7-4 4-7-2-2-2-2-4-1h-7c-5-2-6-2-6-1m-486 3a58 58 0 0 1 18 22l8 16a419 419 0 0 0 10 26l3 6 2 4c0 4-25-4-27-9l-7-8c-7-8-11-14-12-20l-3-13c-2-11-3-22-1-25 1-1 4-1 9 1m190 0v2l1 5c0 6 1 8 2 8 2 0 1-5-1-11l-2-4m233 2c-2 2 18 8 27 8 4 0 6-1 5-3l-10-1-16-3-6-1m147 6c0 3-2 6-3 4l1-4c1-4 2-4 2 0m-32 1c3 0 3 2-1 3s-10 1-11-2 3-3 12-1m-110 4 10 4c5 2 5 3 0 3-12 0-30-7-25-9 4-2 9-1 15 2m183 1 1 6c1 2 1 2 2 1 3-3 3-6 0-8-2-1-2-1-3 1m-424 3c-1 1 1 8 2 7l-1-7h-1m-185 2c-2 3 3 17 7 25a397 397 0 0 1 9 17l7-1v-4l-6-10-15-28c-2-1-2-1-2 1m458-1c1 2-1 3-4 3-4 0-7-1-5-3h9m130 3c0 2 0 3-1 2v-3c0-3 1-3 1 1m69 3c-4 4-6 6-10 7-6 2-7 2-7 0l-3-2c-2-1-2-1-1-4 2-3 2-3 8-3l12-2 5-2-4 6m-187 2c5 7 6 9 4 10-1 1-10-1-10-2l1-1 1-2c0-2 0-2-9-2l-10-1c0-2 3-3 9-3 5 0 5 0 6-3l2-3c1 0 4 3 6 7m-277 2a251 251 0 0 0 18 56l-1-10-2-5-3-10c-2-4-5-13-6-20l-5-13-1 2m301 1c-2 1-1 2 1 2 5 0 9 2 9 4l3 3c7 2 9 0 5-6-3-3-3-4-10-4l-8 1m-306 3c0 2 2 4 2 2v-3c-2-1-2-1-2 1m261 0 1 1h-8c-2-2 2-3 7-1m181 4c-1 2-12 8-13 8l2-4c1-2 3-4 6-5 5-1 6-1 5 1m11 4c-3 3-9 5-11 4-1-1 3-4 7-6 6-2 7-1 4 2m-654 1-1 2c-1 0-2-2-1-4s2-1 2 2m50 0c1 5 2 7 3 6v-2l-1-4c-1-4-3-4-2 0m422 0 3 2h-4c-4-1-6-3-5-4 1-2 3-1 6 2m17 1 5 4c1 2 1 2-1 2l-12-4c-1-1 0-1 2-2l4-1 2 1m50 4c0 1 6 6 8 6 3 0 2-2 0-5-3-2-8-3-8-1m-48 5 3 2h-6c-4 0-6-1-6-2 0-3 6-3 9 0m141 3-4 4c-4 4-5 2-1-3 4-3 7-4 5-1m-118 1c3 1 4 3 1 4-2 0-3 2 0 2 2 1 1 3-1 3l-7-1c-4-1-5-2-5-3 0-2 2-3 4-4 4-2 4-2 8-1m71 8c-1 1-2-1-1-2h1v2m34-2-4 5c-4 5-12 9-13 7-1-1 6-8 7-8l5-2c4-3 5-4 5-2m-16 3-9 5c-3 0-6 2-6 3h4l3 1c0 1-8 7-10 7s-2 0-2-4v-3c-3 1-3-1-1-3 3-2 9-5 12-5l5-1h4m-107 3h-1l-2-1h2l1 1m30 3c2 1 3 3 0 3-2 0-6-3-6-4 0-2 3-1 6 1m22 1c6 2 11 2 20 0l5 1-14 4-3 2 6 1 7-1-5 2-8 3c-4 0-6 1-4 2 2 2 1 3-2 4s-2 3 3 3c3 0 3 0 2 2-3 2-7 3-9 0l-2-5c-1-3-1-3 2-4l3-1-3-1c-4-2-11-10-11-13 0-2 0-2 3-2l10 3m-31 1c3 1 4 3 1 3-4 0-2 2 2 3 6 1 6 2 1 2s-9-2-9-4l-1-2-4-1c-2-1-2-1-1-3 2-1 5-1 11 2m-490 5c12 4 23 10 32 18l7 5 4 2 4 2c2 1 4 5 3 6h-5c-5 0-6 2-3 7s1 5-4 1c-2-3-5-4-6-4-3 0-8-3-15-9l-9-7-10-9-6-4c-3 0 0 3 9 13l8 10c-1 0-11-7-16-13-5-5-11-14-11-15 0-2 7-5 10-5l8 2m487 6h-3l-2-2c0-1 4 0 5 2m86-1-7 4 1-3c3-3 7-4 6-1m-592 6c-1 1-1 0-1-1s0-2 1-1v2m243 0c2 2 12 22 15 32l4 9c2 3 1 4-1 1l-4-3c-2 0-3-2-3-2l-2-3c-2-1-8-11-8-13l-2-5c-4-5-6-15-4-17 2-1 2-1 5 1m323-1c3 1 2 2-2 4-6 3-8 2-4-2 2-3 4-3 6-2m-50 4c2 1 3 5 2 5-2 0-10-5-9-6 0-2 6-1 7 1m10 1c3 2 6 8 4 8s-6-5-8-9c-2-2 1-1 4 1m-523 1-1 1-1-1 1-1 1 1m4 4-2-1c-1-1-1-1 0 0l2 1m564 1c-2 4-2 4-5 2-2-2-2-2-1-4l5-1c2 0 2 0 1 3m-14 1-4 5-5 5c0 2-2 4-3 4-2 0-1-2 2-8 3-5 6-7 9-7l1 1m-513 3c0 2 7 8 9 8 4 0 3-2-2-5-4-4-7-5-7-3m501 0c1 1-5 4-6 3-2-1-1-3 2-3l3-1 1 1m19 9c-2 3-3 4-6 4s-4-1-4-2c0-2 1-3 6-5l6-2-2 5m-29-2 2 4 1 5-1 2-6-11h4m-500 2c3 2 3 3 2 3l-5-2c-3-4-2-4 3-1m84 7 5 7c4 4 3 5-2 1-6-4-7-2-2 4 5 4 6 6 3 7-1 0-2 0-3-2l-5-6-4-6 5-9 3 4m435 3c0 5-2 10-3 9v-7c1-6 3-7 3-2m-481-2 2 2c0 2 2 3 3 1 1-1 6-2 8-1l6 4c2 2 6 4 9 4 3 1 6 2 11 8l11 8 3 3v2a428 428 0 0 1-56-31h3m473 25c2 0 2-1 2-2 0-9 3-12 4-4 0 13 0 13 2 13 3 0 3 0 3-9 0-10 1-16 2-17l1 5-1 22v8l-3-2c-1-1-1-1-3 1l-2 2-4-2c-6-2-7-5-7-13a520 520 0 0 0 4-14c0 10 1 12 2 12m-12-13c0 4 0 4-1 2v-9l1 7m-400 6-3 1-2-1 3-1 2 1m118 2 12 9c13 11 26 19 29 19 2 0 5 1 9 5 3 3 6 5 8 5l10 7c3 4 8 7 10 8l8 5 8 4c4 2 11 10 10 11l-8-3c-7-3-10-4-17-5l-11-2-18-5c-6 0-8-2-8-4 0-3-6-9-11-12-8-4-11-6-18-12l-10-7c-8-5-22-20-21-22s5-3 11-3l7 2m-34 1c4 1 7 2 10 5l4 6c0 2 0 2-5 0l-6-4c-2-2-3-3-6-3l-4 2c-1 3 6 14 13 19 4 2 3 3-1 0-4-2-11-8-14-12l-4-7c-2-3-2-4 0-6s5-2 13 0m-116 5a202 202 0 0 0 48 17l1-3c0-3 3-3 12 2l22 6-4 1-13-1-16-2c-12-1-16-2-23-5l-10-4-26-12c-3-2-4-4-2-4l11 5m45-2 4 3a49 49 0 0 0 26 9l14 3c4 1 7 2 8 1 3-1 8 2 9 5 1 2 0 2-2 2l-8-2c-3-2-7-2-12-2l-12-2-15-5c-13-4-17-6-19-10-4-5 1-7 7-2m388 1c0 4-1 7-2 5v-9l2 4m-398 4 5 5c3 2 1 3-2 2-4-1-8-5-9-8-1-4 2-4 6 1m147 2 2 5c0 2-1 1-3-1-3-4-4-7-2-7l3 3m-217-1 2 1 1-1-1-1-2 1m158 4 9 7c5 3 6 5 4 5s-16-10-17-12c-2-4 0-4 4 0m13 17c3 0 5 1 7 3 8 9 22 14 15 6-5-6 0-7 6-1 5 5 7 9 3 10-3 2-8 1-11-1-1-2-7-5-12-7-16-8-18-8-17-10 0-2 1-2 2-1l7 1m326 9c-3 0-2 3 1 3l3-2c0-2-2-2-4-1m-271 8h2l1-1h-1l-2 1m-8 11c2 4 7 7 11 7l5 2h-2l-9-2-4-2c-2 0-7-5-7-7s4-1 6 2m51 16 4 3h-3c-5 0-7-1-7-4 0-2 3-1 6 1m37 4 1 1-4-1-2-1c0-2 3-1 5 1m-11 2c5 1 13 7 13 8-1 1-12-4-15-7-4-3-3-4 2-1m-11 2 5 2 6 4c-2 0-11-3-12-5l-4-1-2-2c0-1 1-1 7 2m17 8-1 1-2-1v-1l3 1m55 7-2 2c-2 1-2 1-2-1l2-2 2 1m-17 5c1 1-4 10-6 11h-5c-2-1-2-1 0-4 2-6 8-9 11-7m-717 8c-1 2 0 2 2 1l1-2c-1-3-3-2-3 1m666 1 1 1 3 3 4 2-2-3-3-4-1-1-2 2m-588 303c-1 3 0 4 3 4 7 1 8 3 7 38-1 20-2 23-7 23-4 0-6 2-4 3l16 1c14 1 15 1 15-1s-2-3-5-3c-4 0-5-3-5-16 0-12 0-13 5-13 3 0 10 10 18 22 3 6 7 10 8 11l10 1c7 0 8 0 8-2 0-1-1-3-4-4s-3-1-14-13c-10-11-14-16-12-17l5-2c10-2 14-7 13-16-1-4-1-6-4-8-3-3-8-6-12-7-5-2-41-2-41-1m137 0c-5 2-5 5-1 6l4 4v59l5-1 9 1c4 3 12 2 17-1 7-4 10-11 10-20 0-17-12-27-26-21l-6 1v-14c0-14 0-14-5-14h-7m211 1c-10 2-21 10-26 19s-6 24-1 34c3 6 12 16 14 16l5 2 12 1c11 1 16-1 23-9 5-5 5-9 1-10-2 0-3 1-5 4-6 11-21 15-34 7-8-5-11-23-7-40 2-9 3-12 7-15 10-9 27-5 34 7 2 4 2 5 5 5 3-1 3 0 2-12l-2-8h-5c-2 3-4 3-9 1-5-3-9-3-14-2m46 0c-4 2-4 4-1 5 4 1 4 7 4 33-1 26-1 28-5 29l-3 1c1 2 21 3 21 1l-2-1-3-2-2-25c2-9 8-14 16-10 4 1 5 4 5 19 0 11-1 13-2 15l-4 2-1 1c1 2 10 3 16 2 6 0 6-2 1-3l-3-2v-14c1-16-1-22-6-24-4-3-11-2-15 1l-5 2-1-16 1-14-4-1-7 1m552 0-1 3c0 1 2 2 5 2 5 1 6 2 6 9l-1 40c0 9-2 11-6 11-3 0-6 2-5 4h58l2-4c2-5 4-14 3-15-1-2-3 0-8 7-4 5-6 6-10 8-6 1-20 1-22-1l-1-25c0-34 0-35 9-35 4 0 5 0 5-2l-1-2h-33m-905 5c5 4 7 11 4 18-2 6-6 8-15 9l-9-1v-17c1-11 3-12 11-12l9 3m-266 13-5 1c-3 0-11 8-11 11 1 3 4 3 6 0 1-3 2-4 6-5 9-2 15 8 11 16-1 1-4 5-8 7l-6 6 4 1c11 2 15 11 12 23-2 6-5 9-11 9-5 0-7-1-10-7-3-5-9-4-9 2 0 8 14 13 26 9 5-2 11-7 13-11 4-6 3-21-2-25l-6-4-4-3 4-5c6-5 8-10 8-15 1-8-10-14-18-10m41 0c-2 1-1 3 2 4l3 3v36l-3 2c-2 1-2 1-1 2 2 2 17 3 20 2s3-3-1-5l-3-1v-18c0-20 0-21 5-21 3 0 3 0 3-2s-1-3-12-3l-13 1m52 0c-2 2-1 5 2 6s4 4 3 22c0 14 0 14-2 17-5 3-4 4 9 6 9 0 12 0 12-3 0-2-1-3-2-3-5-1-5-1-5-20 0-18 1-18 3-19 5-1 6-1 6-3 0-4-1-4-14-4l-12 1m384 5c-5 2-9 8-9 13 0 4 3 10 7 12l8 3c5 2 6 3 8 6 1 3 1 7-1 8-4 3-12 0-16-4-3-3-5-4-6-1-1 2-1 5 1 7 1 2 2 2 4 1h5c6 3 11 2 16-1 5-4 7-9 5-15-2-4-6-7-15-10-5-1-7-3-8-5-6-8 4-14 11-7 7 6 10 6 10 0 0-5-2-8-4-6h-9c-3-2-4-2-7-1m-172 2c-3 1-3 3 1 6l3 3v14c0 11 0 15 2 17 2 5 7 6 13 3 5-2 5-3 0-3-7-1-7-3-8-23v-17l-4-1-7 1m29 0c-7 0-9 3-4 4 4 1 5 5 5 23-1 18 0 19 7 18 6 0 8-3 2-6l-2-1v-18c1-18 1-21-2-21l-6 1m112 0c-9 1-10 3-4 6 3 2 4 2 4 7 1 4 0 16-1 21 0 4-4 6-8 6l-7-2-1-20v-17h-5l-7 1c-1 1-1 2 1 4s2 3 3 17c0 17 1 19 6 22 5 2 10 1 14-3 3-2 5-3 5 0l1 3c2 2 9 1 10-1 2-1 2-1-1-4s-3-3-3-7l1-19c1-16 1-15-8-14m371 0c-6 1-10 3-12 8-3 4-2 7 1 8 3 0 4-2 4-6 0-3 2-4 7-4 4 0 7 2 8 5 3 4 2 6-2 10-3 3-3 3-1 3l4 2c2 4 0 9-5 13-4 4-8 4-11 1-3-4-3-7 1-11s3-6-2-4c-5 1-8 12-6 18 4 7 11 6 20-2l5-4 6 5c5 6 10 8 16 7s15-9 12-13c-2-2-4-1-6 1-4 4-9 4-14 2l-4-4c-2-3-2-13-1-13h27c2-2 1-6-2-12-4-8-7-10-14-10-6 0-7 0-10 3-4 3-6 4-8 1-3-3-9-5-13-4m261 1-7 1c-2 2-1 4 1 4 4 0 5 4 5 15 0 9 0 12-2 15-4 6-12 6-14 0l-1-18c0-19 0-19-7-17l-6 2 2 4c3 3 3 3 3 18v15l3 3c4 4 10 4 15 1 3-2 7-3 7-1 0 3 4 4 9 4 6-1 7-4 2-8l-3-3v-36l-7 1m-202 0c-4 2-5 5-2 6 5 2 5 3 5 18v14l-3 2c-5 4-3 5 7 5 8 0 10 0 10-2 1-1 0-1-2-2-3-1-4-3-4-14 0-10 2-18 4-20 3-2 10-1 12 1 2 3 3 13 2 23 0 7 0 7-3 9l-3 3c1 2 19 3 21 1 1-2 1-2-2-3-4-2-4-3-4-17 1-14 2-17 8-18 8-2 11 3 11 17 0 11-1 16-4 17l-1 3c1 2 2 2 9 2l9-1c1-1 0-4-2-4-2-1-3-8-2-19 0-8 0-9-2-14-2-3-3-5-7-6-5-3-10-2-15 3l-5 3-5-4c-5-6-11-5-17 1l-4 3-1-7h-10m150 3c-3 4-4 4-5 2-1-4-2-5-7-4l-6 1c-1 2-1 2 2 4l3 3-1 15-1 16-2 3c0 1 14 2 18 1 3-1 2-3-2-4l-2-1-1-9c0-16 3-22 9-21s8-3 6-8c-2-4-7-3-11 2m81-3c-4 2-7 8-6 14 1 8 3 11 14 13 8 2 12 8 6 12-2 2-3 2-7 2l-7-3c-4-3-6-3-6 1 1 3 2 3 8 5 9 2 13 1 16-2 5-4 6-8 4-14-2-5-6-8-15-10-7-2-10-3-10-7 0-3 2-5 5-7 3-1 8 0 10 3 4 6 8 4 8-3 0-5-2-6-6-4h-14m-422 1c-5 1-12 6-14 10-1 3-1 3 1 5 3 3 7 1 7-5l1-4c3-2 11-1 13 2l1 6v5l-6 2c-9 2-15 6-17 10-3 5-2 9 2 12 4 4 8 5 9 3l7-5 5-2 2 2 5 4c4 2 8 0 10-5 2-3 2-4 1-5s-1-1-3 1c-3 3-6 3-7-1v-16c1-15 1-17-6-19h-11m58 0-5 4c-1 2-1 2 3 1 9-1 11 4 11 21-1 11-1 14-4 15-4 2-2 4 4 4 11 1 14 1 15-2 0-1-1-2-3-2-2-1-3-2-3-5v-22c2-7 11-11 15-6 4 7 3 30-1 32-3 1-3 5 0 6l10 1 8-1c1-2 0-6-2-8s-2-3-2-16c0-14-1-15-3-18-4-3-7-5-12-5s-9 3-9 5c0 1-1 2-3 2-2 1-2 1-6-2-4-5-9-6-13-4m227 1c-5 2-8 6-12 11-2 4-2 5-2 12 1 10 4 15 11 19 12 6 25 0 30-13 2-6 2-10 0-16-6-13-17-18-27-13m-579 1c4 2 6 10 6 18 1 9-2 15-7 18s-11 3-14 0-3-3-3-17 1-19 5-19c6-2 7-2 9-1l4 1m330-1c-4 1-4 3 0 6l4 2v14l-1 17v3c1 2 3 2 8 2l7-1-3-3-3-2v-10l1-16v-6l-2-5c0-2 0-2-4-2l-7 1m260 3c4 2 6 4 8 12 4 12-1 25-10 26-11 2-18-9-16-25 1-8 6-13 14-14l4 1m-129 2c2 1 2 2 2 5v4h-9c-8 0-9-1-9-3 0-6 10-10 16-6m-158 19c1 3-1 10-4 12s-9 3-11 1-1-7 1-10c2-2 8-6 12-6 1 0 2 1 2 3m-551 6c-2 2-3 4-3 7 0 5 1 6 4 8 3 1 6 0 9-4 4-4 1-11-5-13-2 0-3 0-5 2m1106 0c-2 1-2 3-2 6 1 7 6 9 11 5 4-3 4-9 1-11-2-3-8-2-10 0m-1189 14v2h3v-2h-3m1133 49c-6 0-8 1-8 2l2 2c4 1 4 4 0 12-3 6-5 8-7 6-5-5-21 5-26 16-5 10-6 16-2 18 2 2 9-1 12-4 4-3 6-2 6 2 1 5 5 5 12-1 5-4 5-6 1-4-6 3-8 2-5-3a864 864 0 0 0 22-46h-7m-136 1c-4 0-6 2-3 4l2 3c0 3-4 11-7 15l-5 9-5 11-3 9c0 7 4 8 10 3 5-3 5-5 0-4l-4-1 15-31c6-9 9-16 9-17-1-2-2-2-9-1m158 0c-4 0-5 2-2 4l2 2-6 13c-13 25-13 25-13 30 0 6 2 8 7 8s10-3 16-10c12-13 13-24 3-24-3 0-3 0-2 2 3 2 3 10 0 16-6 10-11 14-16 12-5-3-4-8 4-20l4-7 6-13 6-13h-9m-208 1c-9 4-21 17-23 25-2 7-3 10-2 15 1 10 9 17 18 17 4 0 6-1 11-3l8-5c3-4 0-3-7 0l-10 4c-4 0-11-4-12-8-3-7 1-20 7-31l10-10c7-3 12-3 16 0l4 4c0 3 3 5 4 4 1 0 2-1 2-4 0-6-1-8-4-8l-10-1-12 1m314 20c-5 3-10 8-9 8 0 1 3 0 5-2 3-1 5-2 6-1 2 0 0 5-4 13-7 11-7 13-7 14 1 3 4 2 6-1 1-4 9-13 16-20 4-4 5-5 9-5l5-2c4-3 1-8-4-6l-8 8c-6 5-8 6-6 2l1-6c0-4-1-5-3-5l-7 3m61-2-1 3c0 4-6 18-8 20-4 4-5 3-4-4l1-12c0-6-1-7-3-7-4 0-13 8-13 12l4-1c5-3 5-2 4 12-1 18-3 20-16 22-6 1-7 2-7 4 0 3 1 4 6 4s11-4 17-11l13-18 2-3 6-8c4-8 5-14 2-14l-3 1m-129 1c-1 1-1 1 1 1 2 1 3 2 3 4l-2 5c-2 3-1 3 3 1 5-3 7-7 4-10-1-2-6-3-9-1m45 2c-6 5-6 6 0 6 5-1 8-2 8-5 0-2-2-4-3-4l-5 3m-212-1c-8 2-17 11-20 20-3 7-3 11 1 14 2 2 7 2 10 0 2-2 1-3-2-2-2 1-3 0-4-1-3-3-2-6 2-16 6-12 11-16 15-11 3 3 2 12-3 17l-6 11h1l3-3c2-1 6-5 8-9 4-6 5-7 5-11 0-9-3-11-10-9m26 1-2 3h3l4 1-4 8a1445 1445 0 0 0-10 19c1 4 5 4 8 1 2-3 3-4 1-4-3 0-2-2 1-8 4-5 9-16 9-18 0-1-3-4-5-4l-5 2m167 0c-4 2-5 4-1 4 3 0 3 0 2 2l-7 17c-4 6-5 8-3 9 1 1 11-11 13-17l3-7c1-2 1-7-1-9-2-1-2-1-6 1m-143 2a128 128 0 0 0-11 16v1c2 0 2 1 1 4-2 3-2 9-1 11 2 2 6 0 10-5 4-4 5-7 1-4-2 2-6 3-6 1l7-13 6-13c-1-2-4-1-7 2m39 0c2 1 2 3 2 6-2 13-17 26-21 19-1-2 0-4 3-11 7-13 11-17 16-14m68 4c-9 9-12 20-8 26 1 2 5 3 9 0 3-2 3-3-1-2-3 0-4 0-4-2-1-4 1-8 6-11s7-5 2-3c-4 2-5 0-2-6l3-6-5 4m153 18c-3 3-2 7 2 9s10-6 6-10c-2-2-6-1-8 1m-343 1v1l2-1-1-1-1 1" fill-rule="evenodd"/></svg>